G04 Layer_Color=8388736*
%FSLAX25Y25*%
%MOIN*%
G70*
G01*
G75*
%ADD17C,0.00787*%
%ADD39R,0.06115X0.14186*%
%ADD40R,0.09855X0.09855*%
%ADD41R,0.09068X0.09855*%
%ADD42R,0.05524X0.05131*%
%ADD43R,0.12611X0.12611*%
%ADD44C,0.12611*%
%ADD45R,0.12611X0.12611*%
%ADD46C,0.07099*%
%ADD47R,0.07099X0.07099*%
%ADD48C,0.13398*%
%ADD49C,0.06706*%
%ADD50C,0.34265*%
%ADD51C,0.18516*%
%ADD52C,0.25800*%
D17*
X0Y177165D02*
X393701D01*
Y-177165D02*
Y177165D01*
X0Y-177165D02*
Y177165D01*
Y-177165D02*
X393701D01*
D39*
X230217Y62992D02*
D03*
X206791D02*
D03*
X230217Y-94488D02*
D03*
X206791D02*
D03*
X230217Y-78740D02*
D03*
X206791D02*
D03*
X230217Y-27559D02*
D03*
X206791D02*
D03*
X230217Y-11811D02*
D03*
X206791D02*
D03*
X230217Y78740D02*
D03*
X206791D02*
D03*
X230118Y129921D02*
D03*
X206693D02*
D03*
X230217Y145669D02*
D03*
X206791D02*
D03*
D40*
X227362Y31496D02*
D03*
X209646D02*
D03*
X227362Y-125984D02*
D03*
X209646D02*
D03*
X227362Y-59055D02*
D03*
X209646D02*
D03*
X227362Y98425D02*
D03*
X209646D02*
D03*
D41*
X227165Y47244D02*
D03*
X209842D02*
D03*
Y-110236D02*
D03*
X227165D02*
D03*
Y-43307D02*
D03*
X209842D02*
D03*
Y114173D02*
D03*
X227165D02*
D03*
D42*
X192913Y-38583D02*
D03*
Y-26378D02*
D03*
X199803Y-19882D02*
D03*
Y-7677D02*
D03*
X191969Y104527D02*
D03*
Y92323D02*
D03*
X196850Y72638D02*
D03*
Y84842D02*
D03*
D43*
X80709Y-70866D02*
D03*
Y70866D02*
D03*
D44*
X41339Y-70866D02*
D03*
X246063Y23819D02*
D03*
Y45276D02*
D03*
Y-66732D02*
D03*
Y-45276D02*
D03*
X159449Y-118110D02*
D03*
Y-9843D02*
D03*
Y-157480D02*
D03*
X246063Y-112205D02*
D03*
Y-133661D02*
D03*
Y90748D02*
D03*
Y112205D02*
D03*
Y45276D02*
D03*
Y23819D02*
D03*
Y-133661D02*
D03*
Y-112205D02*
D03*
Y-66732D02*
D03*
Y-45276D02*
D03*
Y90748D02*
D03*
Y112205D02*
D03*
X41339Y70866D02*
D03*
D45*
X246063Y66732D02*
D03*
Y-23819D02*
D03*
Y-90748D02*
D03*
Y133661D02*
D03*
Y66732D02*
D03*
Y-90748D02*
D03*
Y-23819D02*
D03*
Y133661D02*
D03*
D46*
X164291Y113898D02*
D03*
X174291D02*
D03*
X164291Y103898D02*
D03*
X174291D02*
D03*
X164291Y93898D02*
D03*
X174291D02*
D03*
X164291Y83898D02*
D03*
X174291D02*
D03*
X164291Y73898D02*
D03*
X174291D02*
D03*
X164291Y63898D02*
D03*
X174291D02*
D03*
X164291Y53898D02*
D03*
X174291D02*
D03*
X164291Y43898D02*
D03*
X174291D02*
D03*
X164291Y33898D02*
D03*
X174291D02*
D03*
X164291Y23898D02*
D03*
D47*
X174291D02*
D03*
D48*
X272638Y-137795D02*
D03*
Y-78740D02*
D03*
Y78740D02*
D03*
Y137795D02*
D03*
D49*
X225886Y-19685D02*
D03*
X211122D02*
D03*
Y-86614D02*
D03*
X225886D02*
D03*
Y137795D02*
D03*
X211122D02*
D03*
X211122Y70866D02*
D03*
X225886D02*
D03*
D50*
X19685Y157480D02*
D03*
X19685Y-157480D02*
D03*
X59055Y157480D02*
D03*
X19685Y98425D02*
D03*
X59055Y-157480D02*
D03*
X19685Y-98425D02*
D03*
X59055D02*
D03*
X59055Y98425D02*
D03*
X374016Y-118110D02*
D03*
Y0D02*
D03*
Y118110D02*
D03*
X206693Y-157480D02*
D03*
X177165Y157480D02*
D03*
X137795D02*
D03*
Y-157480D02*
D03*
D51*
X374016D02*
D03*
X302165Y-157480D02*
D03*
X374016Y157480D02*
D03*
X302165Y157480D02*
D03*
Y0D02*
D03*
X98425Y157480D02*
D03*
X98425Y-157480D02*
D03*
X19685Y0D02*
D03*
D52*
X323228Y112205D02*
D03*
Y45276D02*
D03*
Y-45276D02*
D03*
Y-112205D02*
D03*
M02*
