G04 Layer_Color=16711935*
%FSLAX25Y25*%
%MOIN*%
G70*
G01*
G75*
%ADD17C,0.00787*%
%ADD35C,0.01000*%
%ADD37C,0.00600*%
%ADD58C,0.00010*%
%ADD59R,0.07126X0.03000*%
D17*
X256890Y-152559D02*
Y-4921D01*
X288386Y-152559D02*
Y-4921D01*
X272638Y-152559D02*
Y-4921D01*
Y4921D02*
Y152559D01*
X288386Y4921D02*
Y152559D01*
X256890Y4921D02*
Y152559D01*
X0Y177165D02*
X393701D01*
Y-177165D02*
Y177165D01*
X0Y-177165D02*
Y177165D01*
Y-177165D02*
X393701D01*
D35*
X395094Y177165D02*
X414386D01*
X395094Y-177165D02*
X414386D01*
X413386Y13496D02*
Y177165D01*
Y-177165D02*
Y-16696D01*
X411386Y171165D02*
X413386Y177165D01*
X415386Y171165D01*
X413386Y-177165D02*
X415386Y-171165D01*
X411386D02*
X413386Y-177165D01*
X0Y-197850D02*
Y-178559D01*
X393701Y-197850D02*
Y-178559D01*
X0Y-196850D02*
X177656D01*
X212845D02*
X393701D01*
X0D02*
X6000Y-198850D01*
X0Y-196850D02*
X6000Y-194850D01*
X387701D02*
X393701Y-196850D01*
X387701Y-198850D02*
X393701Y-196850D01*
X19685Y175613D02*
Y189976D01*
X0Y178559D02*
Y189976D01*
X-10000Y188976D02*
X0D01*
X19685D02*
X29685D01*
X-6000Y190976D02*
X0Y188976D01*
X-6000Y186976D02*
X0Y188976D01*
X19685D02*
X25685Y186976D01*
X19685Y188976D02*
X25685Y190976D01*
X374016Y167739D02*
Y205724D01*
X302165Y167739D02*
Y205724D01*
X351086Y204724D02*
X374016D01*
X302165D02*
X321895D01*
X368016Y206724D02*
X374016Y204724D01*
X368016Y202724D02*
X374016Y204724D01*
X302165D02*
X308165Y202724D01*
X302165Y204724D02*
X308165Y206724D01*
X177165Y175613D02*
Y189976D01*
X393701Y178559D02*
Y189976D01*
X177165Y188976D02*
X268737D01*
X298929D02*
X393701D01*
X177165D02*
X183165Y186976D01*
X177165Y188976D02*
X183165Y190976D01*
X387701D02*
X393701Y188976D01*
X387701Y186976D02*
X393701Y188976D01*
X59055Y175613D02*
Y205724D01*
X19685Y175613D02*
Y205724D01*
X52366Y204724D02*
X59055D01*
X19685D02*
X23174D01*
X53055Y206724D02*
X59055Y204724D01*
X53055Y202724D02*
X59055Y204724D01*
X19685D02*
X25685Y202724D01*
X19685Y204724D02*
X25685Y206724D01*
X-16748Y157480D02*
X1553D01*
X-16748Y98425D02*
X1553D01*
X-15748Y140949D02*
Y157480D01*
Y98425D02*
Y111757D01*
X-17748Y151480D02*
X-15748Y157480D01*
X-13748Y151480D01*
X-15748Y98425D02*
X-13748Y104425D01*
X-17748D02*
X-15748Y98425D01*
X393701Y-186039D02*
Y-178559D01*
X206693Y-186039D02*
Y-175613D01*
X313692Y-185039D02*
X393701D01*
X206693D02*
X283501D01*
X387701Y-183039D02*
X393701Y-185039D01*
X387701Y-187039D02*
X393701Y-185039D01*
X206693D02*
X212693Y-187039D01*
X206693Y-185039D02*
X212693Y-183039D01*
X395094Y177165D02*
X402575D01*
X392148Y118110D02*
X402575D01*
X401575Y160634D02*
Y177165D01*
Y118110D02*
Y131442D01*
X399575Y171165D02*
X401575Y177165D01*
X403575Y171165D01*
X401575Y118110D02*
X403575Y124110D01*
X399575D02*
X401575Y118110D01*
D37*
X215122Y-19685D02*
G03*
X215122Y-19685I-4000J0D01*
G01*
X219122D02*
G03*
X219122Y-19685I-8000J0D01*
G01*
Y-86614D02*
G03*
X219122Y-86614I-8000J0D01*
G01*
X215122D02*
G03*
X215122Y-86614I-4000J0D01*
G01*
Y137795D02*
G03*
X215122Y137795I-4000J0D01*
G01*
X219122D02*
G03*
X219122Y137795I-8000J0D01*
G01*
X219122Y70866D02*
G03*
X219122Y70866I-8000J0D01*
G01*
X215122D02*
G03*
X215122Y70866I-4000J0D01*
G01*
X415985Y-15096D02*
X416985Y-14096D01*
Y-12097D01*
X415985Y-11097D01*
X411986D01*
X410987Y-12097D01*
Y-14096D01*
X411986Y-15096D01*
X412986D01*
X413986Y-14096D01*
Y-11097D01*
X411986Y-9098D02*
X410987Y-8098D01*
Y-6099D01*
X411986Y-5099D01*
X415985D01*
X416985Y-6099D01*
Y-8098D01*
X415985Y-9098D01*
X411986D01*
X416985Y-3100D02*
X415985D01*
Y-2100D01*
X416985D01*
Y-3100D01*
X411986Y1899D02*
X410987Y2898D01*
Y4898D01*
X411986Y5898D01*
X415985D01*
X416985Y4898D01*
Y2898D01*
X415985Y1899D01*
X411986D01*
Y7897D02*
X410987Y8897D01*
Y10896D01*
X411986Y11896D01*
X415985D01*
X416985Y10896D01*
Y8897D01*
X415985Y7897D01*
X411986D01*
X179256Y-200449D02*
X181255D01*
X180255D01*
Y-194451D01*
X179256Y-195451D01*
X184254D02*
X185254Y-194451D01*
X187253D01*
X188253Y-195451D01*
Y-199450D01*
X187253Y-200449D01*
X185254D01*
X184254Y-199450D01*
Y-195451D01*
X190252D02*
X191252Y-194451D01*
X193251D01*
X194251Y-195451D01*
Y-199450D01*
X193251Y-200449D01*
X191252D01*
X190252Y-199450D01*
Y-195451D01*
X196250Y-200449D02*
Y-199450D01*
X197250D01*
Y-200449D01*
X196250D01*
X201249Y-195451D02*
X202248Y-194451D01*
X204247D01*
X205247Y-195451D01*
Y-199450D01*
X204247Y-200449D01*
X202248D01*
X201249Y-199450D01*
Y-195451D01*
X207246D02*
X208246Y-194451D01*
X210245D01*
X211245Y-195451D01*
Y-199450D01*
X210245Y-200449D01*
X208246D01*
X207246Y-199450D01*
Y-195451D01*
X1745Y202172D02*
X-2254D01*
Y199173D01*
X-255Y200173D01*
X745D01*
X1745Y199173D01*
Y197174D01*
X745Y196174D01*
X-1254D01*
X-2254Y197174D01*
X3744Y196174D02*
Y197174D01*
X4744D01*
Y196174D01*
X3744D01*
X8742Y201173D02*
X9742Y202172D01*
X11741D01*
X12741Y201173D01*
Y197174D01*
X11741Y196174D01*
X9742D01*
X8742Y197174D01*
Y201173D01*
X14740D02*
X15740Y202172D01*
X17739D01*
X18739Y201173D01*
Y197174D01*
X17739Y196174D01*
X15740D01*
X14740Y197174D01*
Y201173D01*
X323495Y201125D02*
X325494D01*
X324494D01*
Y207123D01*
X323495Y206124D01*
X328493D02*
X329493Y207123D01*
X331492D01*
X332492Y206124D01*
Y205124D01*
X331492Y204124D01*
X332492Y203125D01*
Y202125D01*
X331492Y201125D01*
X329493D01*
X328493Y202125D01*
Y203125D01*
X329493Y204124D01*
X328493Y205124D01*
Y206124D01*
X329493Y204124D02*
X331492D01*
X334491Y201125D02*
Y202125D01*
X335491D01*
Y201125D01*
X334491D01*
X343488D02*
X339490D01*
X343488Y205124D01*
Y206124D01*
X342489Y207123D01*
X340489D01*
X339490Y206124D01*
X349486Y207123D02*
X345488D01*
Y204124D01*
X347487Y205124D01*
X348487D01*
X349486Y204124D01*
Y202125D01*
X348487Y201125D01*
X346487D01*
X345488Y202125D01*
X274336Y191375D02*
X270337D01*
Y188376D01*
X272337Y189376D01*
X273337D01*
X274336Y188376D01*
Y186377D01*
X273337Y185377D01*
X271337D01*
X270337Y186377D01*
X280334Y191375D02*
X276336D01*
Y188376D01*
X278335Y189376D01*
X279334D01*
X280334Y188376D01*
Y186377D01*
X279334Y185377D01*
X277335D01*
X276336Y186377D01*
X282334Y185377D02*
Y186377D01*
X283333D01*
Y185377D01*
X282334D01*
X287332Y190376D02*
X288332Y191375D01*
X290331D01*
X291331Y190376D01*
Y186377D01*
X290331Y185377D01*
X288332D01*
X287332Y186377D01*
Y190376D01*
X293330D02*
X294330Y191375D01*
X296329D01*
X297329Y190376D01*
Y186377D01*
X296329Y185377D01*
X294330D01*
X293330Y186377D01*
Y190376D01*
X24774Y201125D02*
X26774D01*
X25774D01*
Y207123D01*
X24774Y206124D01*
X29773D02*
X30772Y207123D01*
X32772D01*
X33771Y206124D01*
Y202125D01*
X32772Y201125D01*
X30772D01*
X29773Y202125D01*
Y206124D01*
X35771Y201125D02*
Y202125D01*
X36770D01*
Y201125D01*
X35771D01*
X40769Y206124D02*
X41769Y207123D01*
X43768D01*
X44768Y206124D01*
Y202125D01*
X43768Y201125D01*
X41769D01*
X40769Y202125D01*
Y206124D01*
X46767D02*
X47767Y207123D01*
X49766D01*
X50766Y206124D01*
Y202125D01*
X49766Y201125D01*
X47767D01*
X46767Y202125D01*
Y206124D01*
X-12149Y113357D02*
Y115356D01*
Y114357D01*
X-18147D01*
X-17147Y113357D01*
X-18147Y122354D02*
Y118355D01*
X-15148D01*
X-16148Y120355D01*
Y121354D01*
X-15148Y122354D01*
X-13149D01*
X-12149Y121354D01*
Y119355D01*
X-13149Y118355D01*
X-12149Y124353D02*
X-13149D01*
Y125353D01*
X-12149D01*
Y124353D01*
X-17147Y129352D02*
X-18147Y130351D01*
Y132351D01*
X-17147Y133351D01*
X-13149D01*
X-12149Y132351D01*
Y130351D01*
X-13149Y129352D01*
X-17147D01*
Y135350D02*
X-18147Y136349D01*
Y138349D01*
X-17147Y139349D01*
X-13149D01*
X-12149Y138349D01*
Y136349D01*
X-13149Y135350D01*
X-17147D01*
X288100Y-188638D02*
Y-182640D01*
X285101Y-185639D01*
X289100D01*
X291099Y-182640D02*
X295098D01*
Y-183640D01*
X291099Y-187639D01*
Y-188638D01*
X297097D02*
Y-187639D01*
X298097D01*
Y-188638D01*
X297097D01*
X306094Y-182640D02*
X302096D01*
Y-185639D01*
X304095Y-184640D01*
X305095D01*
X306094Y-185639D01*
Y-187639D01*
X305095Y-188638D01*
X303095D01*
X302096Y-187639D01*
X308094Y-183640D02*
X309093Y-182640D01*
X311093D01*
X312092Y-183640D01*
Y-187639D01*
X311093Y-188638D01*
X309093D01*
X308094Y-187639D01*
Y-183640D01*
X405174Y133042D02*
Y135041D01*
Y134042D01*
X399176D01*
X400176Y133042D01*
X399176Y142039D02*
Y138040D01*
X402175D01*
X401175Y140040D01*
Y141039D01*
X402175Y142039D01*
X404174D01*
X405174Y141039D01*
Y139040D01*
X404174Y138040D01*
X405174Y144038D02*
X404174D01*
Y145038D01*
X405174D01*
Y144038D01*
X400176Y149037D02*
X399176Y150037D01*
Y152036D01*
X400176Y153035D01*
X404174D01*
X405174Y152036D01*
Y150037D01*
X404174Y149037D01*
X400176D01*
Y155035D02*
X399176Y156035D01*
Y158034D01*
X400176Y159034D01*
X404174D01*
X405174Y158034D01*
Y156035D01*
X404174Y155035D01*
X400176D01*
D58*
X330118Y45276D02*
G03*
X330118Y45276I-6890J0D01*
G01*
X312093Y75787D02*
G03*
X313416Y73150I11135J3937D01*
G01*
D02*
G03*
X333041Y73150I9812J6574D01*
G01*
D02*
G03*
X334364Y75787I-9812J6574D01*
G01*
Y14764D02*
G03*
X333041Y17401I-11135J-3937D01*
G01*
D02*
G03*
X313416Y17401I-9812J-6574D01*
G01*
D02*
G03*
X312093Y14764I9812J-6574D01*
G01*
X250394Y19291D02*
G03*
X250000Y20597I-2362J0D01*
G01*
Y26647D02*
G03*
X250394Y27953I-1969J1306D01*
G01*
X248031Y25591D02*
G03*
X250000Y26647I0J2362D01*
G01*
Y20597D02*
G03*
X248031Y21654I-1969J-1306D01*
G01*
X250394Y40945D02*
G03*
X250000Y42251I-2362J0D01*
G01*
Y48300D02*
G03*
X250394Y49606I-1969J1306D01*
G01*
X248031Y47244D02*
G03*
X250000Y48300I0J2362D01*
G01*
Y42251D02*
G03*
X248031Y43307I-1969J-1306D01*
G01*
X250394Y62598D02*
G03*
X250000Y63904I-2362J0D01*
G01*
Y69954D02*
G03*
X250394Y71260I-1969J1306D01*
G01*
X248031Y68898D02*
G03*
X250000Y69954I0J2362D01*
G01*
Y63904D02*
G03*
X248031Y64961I-1969J-1306D01*
G01*
X334652Y15176D02*
G03*
X311805Y15176I-11423J-4349D01*
G01*
Y75375D02*
G03*
X334652Y75375I11423J4349D01*
G01*
X330118Y-112205D02*
G03*
X330118Y-112205I-6890J0D01*
G01*
X312093Y-81693D02*
G03*
X313416Y-84330I11135J3937D01*
G01*
D02*
G03*
X333041Y-84330I9812J6574D01*
G01*
D02*
G03*
X334364Y-81693I-9812J6574D01*
G01*
Y-142717D02*
G03*
X333041Y-140079I-11135J-3937D01*
G01*
D02*
G03*
X313416Y-140079I-9812J-6574D01*
G01*
D02*
G03*
X312093Y-142717I9812J-6574D01*
G01*
X250394Y-138189D02*
G03*
X250000Y-136883I-2362J0D01*
G01*
Y-130833D02*
G03*
X250394Y-129527I-1969J1306D01*
G01*
X248031Y-131890D02*
G03*
X250000Y-130833I0J2362D01*
G01*
Y-136883D02*
G03*
X248031Y-135827I-1969J-1306D01*
G01*
X250394Y-116535D02*
G03*
X250000Y-115230I-2362J0D01*
G01*
Y-109180D02*
G03*
X250394Y-107874I-1969J1306D01*
G01*
X248031Y-110236D02*
G03*
X250000Y-109180I0J2362D01*
G01*
Y-115230D02*
G03*
X248031Y-114173I-1969J-1306D01*
G01*
X250394Y-94882D02*
G03*
X250000Y-93576I-2362J0D01*
G01*
Y-87526D02*
G03*
X250394Y-86221I-1969J1306D01*
G01*
X248031Y-88583D02*
G03*
X250000Y-87526I0J2362D01*
G01*
Y-93576D02*
G03*
X248031Y-92520I-1969J-1306D01*
G01*
X334652Y-142304D02*
G03*
X311805Y-142304I-11423J-4349D01*
G01*
Y-82105D02*
G03*
X334652Y-82105I11423J4349D01*
G01*
X330118Y-45276D02*
G03*
X330118Y-45276I-6890J0D01*
G01*
X312093Y-14764D02*
G03*
X313416Y-17401I11135J3937D01*
G01*
D02*
G03*
X333041Y-17401I9812J6574D01*
G01*
D02*
G03*
X334364Y-14764I-9812J6574D01*
G01*
Y-75787D02*
G03*
X333041Y-73150I-11135J-3937D01*
G01*
D02*
G03*
X313416Y-73150I-9812J-6574D01*
G01*
D02*
G03*
X312093Y-75787I9812J-6574D01*
G01*
X250394Y-71260D02*
G03*
X250000Y-69954I-2362J0D01*
G01*
Y-63904D02*
G03*
X250394Y-62598I-1969J1306D01*
G01*
X248031Y-64961D02*
G03*
X250000Y-63904I0J2362D01*
G01*
Y-69954D02*
G03*
X248031Y-68898I-1969J-1306D01*
G01*
X250394Y-49606D02*
G03*
X250000Y-48300I-2362J0D01*
G01*
Y-42251D02*
G03*
X250394Y-40945I-1969J1306D01*
G01*
X248031Y-43307D02*
G03*
X250000Y-42251I0J2362D01*
G01*
Y-48300D02*
G03*
X248031Y-47244I-1969J-1306D01*
G01*
X250394Y-27953D02*
G03*
X250000Y-26647I-2362J0D01*
G01*
Y-20597D02*
G03*
X250394Y-19291I-1969J1306D01*
G01*
X248031Y-21654D02*
G03*
X250000Y-20597I0J2362D01*
G01*
Y-26647D02*
G03*
X248031Y-25591I-1969J-1306D01*
G01*
X334652Y-75375D02*
G03*
X311805Y-75375I-11423J-4349D01*
G01*
Y-15176D02*
G03*
X334652Y-15176I11423J4349D01*
G01*
X330118Y112205D02*
G03*
X330118Y112205I-6890J0D01*
G01*
X312093Y142717D02*
G03*
X313416Y140079I11135J3937D01*
G01*
D02*
G03*
X333041Y140079I9812J6574D01*
G01*
D02*
G03*
X334364Y142717I-9812J6574D01*
G01*
Y81693D02*
G03*
X333041Y84330I-11135J-3937D01*
G01*
D02*
G03*
X313416Y84330I-9812J-6574D01*
G01*
D02*
G03*
X312093Y81693I9812J-6574D01*
G01*
X250394Y86221D02*
G03*
X250000Y87526I-2362J0D01*
G01*
Y93576D02*
G03*
X250394Y94882I-1969J1306D01*
G01*
X248031Y92520D02*
G03*
X250000Y93576I0J2362D01*
G01*
Y87526D02*
G03*
X248031Y88583I-1969J-1306D01*
G01*
X250394Y107874D02*
G03*
X250000Y109180I-2362J0D01*
G01*
Y115230D02*
G03*
X250394Y116535I-1969J1306D01*
G01*
X248031Y114173D02*
G03*
X250000Y115230I0J2362D01*
G01*
Y109180D02*
G03*
X248031Y110236I-1969J-1306D01*
G01*
X250394Y129528D02*
G03*
X250000Y130833I-2362J0D01*
G01*
Y136883D02*
G03*
X250394Y138189I-1969J1306D01*
G01*
X248031Y135827D02*
G03*
X250000Y136883I0J2362D01*
G01*
Y130833D02*
G03*
X248031Y131890I-1969J-1306D01*
G01*
X334652Y82105D02*
G03*
X311805Y82105I-11423J-4349D01*
G01*
Y142304D02*
G03*
X334652Y142304I11423J4349D01*
G01*
X323228Y45276D02*
X333071D01*
X323228D02*
Y55118D01*
X313386Y45276D02*
X323228D01*
Y35433D02*
Y45276D01*
X266142Y75787D02*
X312093D01*
X266142Y14764D02*
X312093D01*
X334364D02*
X344882D01*
X334364Y75787D02*
X344882D01*
Y14764D02*
Y75787D01*
X266142Y71260D02*
Y75787D01*
Y51575D02*
Y62598D01*
Y27953D02*
Y38976D01*
Y14764D02*
Y19291D01*
X312093Y75787D02*
X334364D01*
X312093Y14764D02*
X334364D01*
X266142Y62598D02*
Y71260D01*
X250394D02*
X266142D01*
X250394Y62598D02*
X266142D01*
Y38976D02*
Y51575D01*
X250394D02*
X266142D01*
X250394Y38976D02*
X266142D01*
Y19291D02*
Y27953D01*
X250394Y19291D02*
X266142D01*
X250394Y27953D02*
X266142D01*
X323228Y28543D02*
Y35433D01*
X306496Y45276D02*
X313386D01*
X323228Y55118D02*
Y62008D01*
X333071Y45276D02*
X339961D01*
X250000Y20597D02*
Y26647D01*
Y42251D02*
Y48300D01*
Y63904D02*
Y69954D01*
X247244Y21654D02*
X248031D01*
X247244Y25591D02*
X248031D01*
X244882Y21654D02*
Y23622D01*
X247244Y21654D02*
Y23622D01*
X244882Y21654D02*
X247244D01*
X244882Y23622D02*
Y25591D01*
X247244Y23622D02*
Y25591D01*
X244882D02*
X247244D01*
X244882Y23622D02*
X247244D01*
X250394Y49606D02*
Y51575D01*
Y38976D02*
Y40945D01*
X247244Y43307D02*
X248031D01*
X247244Y47244D02*
X248031D01*
X244882D02*
X247244D01*
X244882Y45276D02*
Y47244D01*
X247244Y45276D02*
Y47244D01*
X244882Y43307D02*
Y45276D01*
Y43307D02*
X247244D01*
Y45276D01*
X244882D02*
X247244D01*
Y64961D02*
X248031D01*
X247244Y68898D02*
X248031D01*
X247244Y66929D02*
Y68898D01*
X244882D02*
X247244D01*
X244882Y66929D02*
Y68898D01*
Y64961D02*
Y66929D01*
Y64961D02*
X247244D01*
Y66929D01*
X244882D02*
X247244D01*
X313416Y17401D02*
X333041D01*
X313416Y73150D02*
X333041D01*
X274428Y67501D02*
X305924D01*
Y23050D02*
Y67501D01*
X274428Y23050D02*
Y67501D01*
Y23050D02*
X305924D01*
X344469Y15176D02*
Y75375D01*
X266554Y15176D02*
Y75375D01*
X334652D02*
X344469D01*
X344882Y75787D01*
X344469Y15176D02*
X344882Y14764D01*
X334652Y15176D02*
X344469D01*
X334364Y14764D02*
X334652Y15176D01*
X311805D02*
X312093Y14764D01*
X266554Y15176D02*
X311805D01*
X266142Y14764D02*
X266554Y15176D01*
X266142Y75787D02*
X266554Y75375D01*
X311805D01*
X312093Y75787D01*
X334364D02*
X334652Y75375D01*
X323228Y-112205D02*
X333071D01*
X323228D02*
Y-102362D01*
X313386Y-112205D02*
X323228D01*
Y-122047D02*
Y-112205D01*
X266142Y-81693D02*
X312093D01*
X266142Y-142717D02*
X312093D01*
X334364D02*
X344882D01*
X334364Y-81693D02*
X344882D01*
Y-142717D02*
Y-81693D01*
X266142Y-86221D02*
Y-81693D01*
Y-105905D02*
Y-94882D01*
Y-129527D02*
Y-118504D01*
Y-142717D02*
Y-138189D01*
X312093Y-81693D02*
X334364D01*
X312093Y-142717D02*
X334364D01*
X266142Y-94882D02*
Y-86221D01*
X250394D02*
X266142D01*
X250394Y-94882D02*
X266142D01*
Y-118504D02*
Y-105905D01*
X250394D02*
X266142D01*
X250394Y-118504D02*
X266142D01*
Y-138189D02*
Y-129527D01*
X250394Y-138189D02*
X266142D01*
X250394Y-129527D02*
X266142D01*
X323228Y-128937D02*
Y-122047D01*
X306496Y-112205D02*
X313386D01*
X323228Y-102362D02*
Y-95472D01*
X333071Y-112205D02*
X339961D01*
X250000Y-136883D02*
Y-130833D01*
Y-115230D02*
Y-109180D01*
Y-93576D02*
Y-87526D01*
X247244Y-135827D02*
X248031D01*
X247244Y-131890D02*
X248031D01*
X244882Y-135827D02*
Y-133858D01*
X247244Y-135827D02*
Y-133858D01*
X244882Y-135827D02*
X247244D01*
X244882Y-133858D02*
Y-131890D01*
X247244Y-133858D02*
Y-131890D01*
X244882D02*
X247244D01*
X244882Y-133858D02*
X247244D01*
X250394Y-107874D02*
Y-105905D01*
Y-118504D02*
Y-116535D01*
X247244Y-114173D02*
X248031D01*
X247244Y-110236D02*
X248031D01*
X244882D02*
X247244D01*
X244882Y-112205D02*
Y-110236D01*
X247244Y-112205D02*
Y-110236D01*
X244882Y-114173D02*
Y-112205D01*
Y-114173D02*
X247244D01*
Y-112205D01*
X244882D02*
X247244D01*
Y-92520D02*
X248031D01*
X247244Y-88583D02*
X248031D01*
X247244Y-90551D02*
Y-88583D01*
X244882D02*
X247244D01*
X244882Y-90551D02*
Y-88583D01*
Y-92520D02*
Y-90551D01*
Y-92520D02*
X247244D01*
Y-90551D01*
X244882D02*
X247244D01*
X313416Y-140079D02*
X333041D01*
X313416Y-84330D02*
X333041D01*
X274428Y-89979D02*
X305924D01*
Y-134430D02*
Y-89979D01*
X274428Y-134430D02*
Y-89979D01*
Y-134430D02*
X305924D01*
X344469Y-142304D02*
Y-82105D01*
X266554Y-142304D02*
Y-82105D01*
X334652D02*
X344469D01*
X344882Y-81693D01*
X344469Y-142304D02*
X344882Y-142717D01*
X334652Y-142304D02*
X344469D01*
X334364Y-142717D02*
X334652Y-142304D01*
X311805D02*
X312093Y-142717D01*
X266554Y-142304D02*
X311805D01*
X266142Y-142717D02*
X266554Y-142304D01*
X266142Y-81693D02*
X266554Y-82105D01*
X311805D01*
X312093Y-81693D01*
X334364D02*
X334652Y-82105D01*
X323228Y-45276D02*
X333071D01*
X323228D02*
Y-35433D01*
X313386Y-45276D02*
X323228D01*
Y-55118D02*
Y-45276D01*
X266142Y-14764D02*
X312093D01*
X266142Y-75787D02*
X312093D01*
X334364D02*
X344882D01*
X334364Y-14764D02*
X344882D01*
Y-75787D02*
Y-14764D01*
X266142Y-19291D02*
Y-14764D01*
Y-38976D02*
Y-27953D01*
Y-62598D02*
Y-51575D01*
Y-75787D02*
Y-71260D01*
X312093Y-14764D02*
X334364D01*
X312093Y-75787D02*
X334364D01*
X266142Y-27953D02*
Y-19291D01*
X250394D02*
X266142D01*
X250394Y-27953D02*
X266142D01*
Y-51575D02*
Y-38976D01*
X250394D02*
X266142D01*
X250394Y-51575D02*
X266142D01*
Y-71260D02*
Y-62598D01*
X250394Y-71260D02*
X266142D01*
X250394Y-62598D02*
X266142D01*
X323228Y-62008D02*
Y-55118D01*
X306496Y-45276D02*
X313386D01*
X323228Y-35433D02*
Y-28543D01*
X333071Y-45276D02*
X339961D01*
X250000Y-69954D02*
Y-63904D01*
Y-48300D02*
Y-42251D01*
Y-26647D02*
Y-20597D01*
X247244Y-68898D02*
X248031D01*
X247244Y-64961D02*
X248031D01*
X244882Y-68898D02*
Y-66929D01*
X247244Y-68898D02*
Y-66929D01*
X244882Y-68898D02*
X247244D01*
X244882Y-66929D02*
Y-64961D01*
X247244Y-66929D02*
Y-64961D01*
X244882D02*
X247244D01*
X244882Y-66929D02*
X247244D01*
X250394Y-40945D02*
Y-38976D01*
Y-51575D02*
Y-49606D01*
X247244Y-47244D02*
X248031D01*
X247244Y-43307D02*
X248031D01*
X244882D02*
X247244D01*
X244882Y-45276D02*
Y-43307D01*
X247244Y-45276D02*
Y-43307D01*
X244882Y-47244D02*
Y-45276D01*
Y-47244D02*
X247244D01*
Y-45276D01*
X244882D02*
X247244D01*
Y-25591D02*
X248031D01*
X247244Y-21654D02*
X248031D01*
X247244Y-23622D02*
Y-21654D01*
X244882D02*
X247244D01*
X244882Y-23622D02*
Y-21654D01*
Y-25591D02*
Y-23622D01*
Y-25591D02*
X247244D01*
Y-23622D01*
X244882D02*
X247244D01*
X313416Y-73150D02*
X333041D01*
X313416Y-17401D02*
X333041D01*
X274428Y-23050D02*
X305924D01*
Y-67501D02*
Y-23050D01*
X274428Y-67501D02*
Y-23050D01*
Y-67501D02*
X305924D01*
X344469Y-75375D02*
Y-15176D01*
X266554Y-75375D02*
Y-15176D01*
X334652D02*
X344469D01*
X344882Y-14764D01*
X344469Y-75375D02*
X344882Y-75787D01*
X334652Y-75375D02*
X344469D01*
X334364Y-75787D02*
X334652Y-75375D01*
X311805D02*
X312093Y-75787D01*
X266554Y-75375D02*
X311805D01*
X266142Y-75787D02*
X266554Y-75375D01*
X266142Y-14764D02*
X266554Y-15176D01*
X311805D01*
X312093Y-14764D01*
X334364D02*
X334652Y-15176D01*
X323228Y112205D02*
X333071D01*
X323228D02*
Y122047D01*
X313386Y112205D02*
X323228D01*
Y102362D02*
Y112205D01*
X266142Y142717D02*
X312093D01*
X266142Y81693D02*
X312093D01*
X334364D02*
X344882D01*
X334364Y142717D02*
X344882D01*
Y81693D02*
Y142717D01*
X266142Y138189D02*
Y142717D01*
Y118504D02*
Y129528D01*
Y94882D02*
Y105905D01*
Y81693D02*
Y86221D01*
X312093Y142717D02*
X334364D01*
X312093Y81693D02*
X334364D01*
X266142Y129528D02*
Y138189D01*
X250394D02*
X266142D01*
X250394Y129528D02*
X266142D01*
Y105905D02*
Y118504D01*
X250394D02*
X266142D01*
X250394Y105905D02*
X266142D01*
Y86221D02*
Y94882D01*
X250394Y86221D02*
X266142D01*
X250394Y94882D02*
X266142D01*
X323228Y95472D02*
Y102362D01*
X306496Y112205D02*
X313386D01*
X323228Y122047D02*
Y128937D01*
X333071Y112205D02*
X339961D01*
X250000Y87526D02*
Y93576D01*
Y109180D02*
Y115230D01*
Y130833D02*
Y136883D01*
X247244Y88583D02*
X248031D01*
X247244Y92520D02*
X248031D01*
X244882Y88583D02*
Y90551D01*
X247244Y88583D02*
Y90551D01*
X244882Y88583D02*
X247244D01*
X244882Y90551D02*
Y92520D01*
X247244Y90551D02*
Y92520D01*
X244882D02*
X247244D01*
X244882Y90551D02*
X247244D01*
X250394Y116535D02*
Y118504D01*
Y105905D02*
Y107874D01*
X247244Y110236D02*
X248031D01*
X247244Y114173D02*
X248031D01*
X244882D02*
X247244D01*
X244882Y112205D02*
Y114173D01*
X247244Y112205D02*
Y114173D01*
X244882Y110236D02*
Y112205D01*
Y110236D02*
X247244D01*
Y112205D01*
X244882D02*
X247244D01*
Y131890D02*
X248031D01*
X247244Y135827D02*
X248031D01*
X247244Y133858D02*
Y135827D01*
X244882D02*
X247244D01*
X244882Y133858D02*
Y135827D01*
Y131890D02*
Y133858D01*
Y131890D02*
X247244D01*
Y133858D01*
X244882D02*
X247244D01*
X313416Y84330D02*
X333041D01*
X313416Y140079D02*
X333041D01*
X274428Y134430D02*
X305924D01*
Y89979D02*
Y134430D01*
X274428Y89979D02*
Y134430D01*
Y89979D02*
X305924D01*
X344469Y82105D02*
Y142304D01*
X266554Y82105D02*
Y142304D01*
X334652D02*
X344469D01*
X344882Y142717D01*
X344469Y82105D02*
X344882Y81693D01*
X334652Y82105D02*
X344469D01*
X334364Y81693D02*
X334652Y82105D01*
X311805D02*
X312093Y81693D01*
X266554Y82105D02*
X311805D01*
X266142Y81693D02*
X266554Y82105D01*
X266142Y142717D02*
X266554Y142304D01*
X311805D01*
X312093Y142717D01*
X334364D02*
X334652Y142304D01*
D59*
X218386Y-19685D02*
D03*
Y-86614D02*
D03*
Y137795D02*
D03*
Y70866D02*
D03*
M02*
