G04 Layer_Color=65535*
%FSLAX25Y25*%
%MOIN*%
G70*
G01*
G75*
%ADD17C,0.00787*%
%ADD29C,0.01181*%
%ADD30C,0.00984*%
%ADD31C,0.01968*%
%ADD32C,0.01000*%
%ADD33C,0.00500*%
%ADD34C,0.00600*%
%ADD35C,0.00591*%
%ADD36C,0.00800*%
%ADD37R,0.03090X0.10000*%
%ADD38R,0.02165X0.13386*%
G36*
X290354Y-167323D02*
X254921D01*
X254921Y167323D01*
X290354D01*
X290354Y-167323D01*
D02*
G37*
%LPC*%
G36*
X273316Y-130905D02*
X271959D01*
X270628Y-131170D01*
X269374Y-131690D01*
X268246Y-132444D01*
X267286Y-133403D01*
X266532Y-134532D01*
X266013Y-135786D01*
X265748Y-137117D01*
Y-137795D01*
Y-138474D01*
X266013Y-139805D01*
X266532Y-141059D01*
X267286Y-142187D01*
X268246Y-143147D01*
X269374Y-143901D01*
X270628Y-144420D01*
X271959Y-144685D01*
X273316D01*
X274647Y-144420D01*
X275901Y-143901D01*
X277030Y-143147D01*
X277989Y-142187D01*
X278743Y-141059D01*
X279263Y-139805D01*
X279528Y-138474D01*
Y-137795D01*
Y-137117D01*
X279263Y-135786D01*
X278743Y-134532D01*
X277989Y-133403D01*
X277030Y-132444D01*
X275901Y-131690D01*
X274647Y-131170D01*
X273316Y-130905D01*
D02*
G37*
G36*
Y-71850D02*
X271959D01*
X270628Y-72115D01*
X269374Y-72635D01*
X268246Y-73388D01*
X267286Y-74348D01*
X266532Y-75477D01*
X266013Y-76731D01*
X265748Y-78062D01*
Y-78740D01*
Y-79419D01*
X266013Y-80750D01*
X266532Y-82004D01*
X267286Y-83132D01*
X268246Y-84092D01*
X269374Y-84846D01*
X270628Y-85365D01*
X271959Y-85630D01*
X273316D01*
X274647Y-85365D01*
X275901Y-84846D01*
X277030Y-84092D01*
X277989Y-83132D01*
X278743Y-82004D01*
X279263Y-80750D01*
X279528Y-79419D01*
Y-78740D01*
Y-78062D01*
X279263Y-76731D01*
X278743Y-75477D01*
X277989Y-74348D01*
X277030Y-73388D01*
X275901Y-72635D01*
X274647Y-72115D01*
X273316Y-71850D01*
D02*
G37*
G36*
Y144685D02*
X271959D01*
X270628Y144420D01*
X269374Y143901D01*
X268246Y143147D01*
X267286Y142187D01*
X266532Y141059D01*
X266013Y139805D01*
X265748Y138474D01*
Y137795D01*
Y137117D01*
X266013Y135786D01*
X266532Y134532D01*
X267286Y133403D01*
X268246Y132444D01*
X269374Y131690D01*
X270628Y131170D01*
X271959Y130905D01*
X273316D01*
X274647Y131170D01*
X275901Y131690D01*
X277030Y132444D01*
X277989Y133403D01*
X278743Y134532D01*
X279263Y135786D01*
X279528Y137117D01*
Y137795D01*
Y138474D01*
X279263Y139805D01*
X278743Y141059D01*
X277989Y142187D01*
X277030Y143147D01*
X275901Y143901D01*
X274647Y144420D01*
X273316Y144685D01*
D02*
G37*
G36*
Y85630D02*
X271959D01*
X270628Y85365D01*
X269374Y84846D01*
X268246Y84092D01*
X267286Y83132D01*
X266532Y82004D01*
X266013Y80750D01*
X265748Y79419D01*
Y78740D01*
Y78062D01*
X266013Y76731D01*
X266532Y75477D01*
X267286Y74348D01*
X268246Y73388D01*
X269374Y72635D01*
X270628Y72115D01*
X271959Y71850D01*
X273316D01*
X274647Y72115D01*
X275901Y72635D01*
X277030Y73388D01*
X277989Y74348D01*
X278743Y75477D01*
X279263Y76731D01*
X279528Y78062D01*
Y78740D01*
Y79419D01*
X279263Y80750D01*
X278743Y82004D01*
X277989Y83132D01*
X277030Y84092D01*
X275901Y84846D01*
X274647Y85365D01*
X273316Y85630D01*
D02*
G37*
%LPD*%
D17*
X330118Y45276D02*
G03*
X330118Y45276I-6890J0D01*
G01*
X313416Y17401D02*
G03*
X312093Y14764I9812J-6574D01*
G01*
X333041Y17401D02*
G03*
X313416Y17401I-9812J-6574D01*
G01*
X334364Y14764D02*
G03*
X333041Y17401I-11135J-3937D01*
G01*
Y73150D02*
G03*
X334364Y75787I-9812J6574D01*
G01*
X313416Y73150D02*
G03*
X333041Y73150I9812J6574D01*
G01*
X312093Y75787D02*
G03*
X313416Y73150I11135J3937D01*
G01*
X330118Y-112205D02*
G03*
X330118Y-112205I-6890J0D01*
G01*
X313416Y-140079D02*
G03*
X312093Y-142717I9812J-6574D01*
G01*
X333041Y-140079D02*
G03*
X313416Y-140079I-9812J-6574D01*
G01*
X334364Y-142717D02*
G03*
X333041Y-140079I-11135J-3937D01*
G01*
Y-84330D02*
G03*
X334364Y-81693I-9812J6574D01*
G01*
X313416Y-84330D02*
G03*
X333041Y-84330I9812J6574D01*
G01*
X312093Y-81693D02*
G03*
X313416Y-84330I11135J3937D01*
G01*
X330118Y-45276D02*
G03*
X330118Y-45276I-6890J0D01*
G01*
X313416Y-73150D02*
G03*
X312093Y-75787I9812J-6574D01*
G01*
X333041Y-73150D02*
G03*
X313416Y-73150I-9812J-6574D01*
G01*
X334364Y-75787D02*
G03*
X333041Y-73150I-11135J-3937D01*
G01*
Y-17401D02*
G03*
X334364Y-14764I-9812J6574D01*
G01*
X313416Y-17401D02*
G03*
X333041Y-17401I9812J6574D01*
G01*
X312093Y-14764D02*
G03*
X313416Y-17401I11135J3937D01*
G01*
X330118Y112205D02*
G03*
X330118Y112205I-6890J0D01*
G01*
X313416Y84330D02*
G03*
X312093Y81693I9812J-6574D01*
G01*
X333041Y84330D02*
G03*
X313416Y84330I-9812J-6574D01*
G01*
X334364Y81693D02*
G03*
X333041Y84330I-11135J-3937D01*
G01*
Y140079D02*
G03*
X334364Y142717I-9812J6574D01*
G01*
X313416Y140079D02*
G03*
X333041Y140079I9812J6574D01*
G01*
X312093Y142717D02*
G03*
X313416Y140079I11135J3937D01*
G01*
X266142Y75787D02*
X312093D01*
X266142Y14764D02*
X312093D01*
X334364D02*
X344882D01*
X334364Y75787D02*
X344882D01*
Y14764D02*
Y75787D01*
X266142Y71260D02*
Y75787D01*
Y51575D02*
Y62598D01*
Y27953D02*
Y38976D01*
Y14764D02*
Y19291D01*
X312093Y75787D02*
X334364D01*
X312093Y14764D02*
X334364D01*
X266142Y62598D02*
Y71260D01*
X252953D02*
X266142D01*
X252953Y62598D02*
X266142D01*
Y38976D02*
Y51575D01*
X252953D02*
X266142D01*
X252953Y38976D02*
X266142D01*
Y19291D02*
Y27953D01*
X252953Y19291D02*
X266142D01*
X252953Y27953D02*
X266142D01*
X323228Y45276D02*
X333071D01*
X323228D02*
Y55118D01*
X313386Y45276D02*
X323228D01*
Y35433D02*
Y45276D01*
X211024Y56693D02*
X225984D01*
X211024Y69291D02*
X225984D01*
X237205Y-4921D02*
X355315D01*
X237205Y-152559D02*
X355315D01*
Y-4921D01*
X237205Y-152559D02*
Y-4921D01*
Y4921D02*
Y152559D01*
X355315Y4921D02*
Y152559D01*
X237205Y4921D02*
X355315D01*
X237205Y152559D02*
X355315D01*
X215748Y40551D02*
Y53937D01*
Y40551D02*
X224016D01*
X215748Y53937D02*
X224016D01*
X235827Y-76575D02*
X256693D01*
X235827Y-13976D02*
X256693D01*
X235827Y-76575D02*
Y-13976D01*
X256693Y-76575D02*
Y-13976D01*
X254724Y-76575D02*
Y-13976D01*
X131890Y-125984D02*
X187008D01*
X131890Y-1969D02*
X187008D01*
X131890Y-125984D02*
Y-1969D01*
X187008Y-125984D02*
Y-1969D01*
X211024Y-100787D02*
X225984D01*
X211024Y-88189D02*
X225984D01*
X215748Y-103543D02*
X224016D01*
X215748Y-116929D02*
X224016D01*
X215748D02*
Y-103543D01*
X211024Y-85039D02*
X225984D01*
X211024Y-72441D02*
X225984D01*
X215748Y-50000D02*
Y-36614D01*
Y-50000D02*
X224016D01*
X215748Y-36614D02*
X224016D01*
X211024Y-33858D02*
X225984D01*
X211024Y-21260D02*
X225984D01*
X211024Y-18110D02*
X225984D01*
X211024Y-5512D02*
X225984D01*
X211024Y72441D02*
X225984D01*
X211024Y85039D02*
X225984D01*
X215748Y120866D02*
X224016D01*
X215748Y107480D02*
X224016D01*
X215748D02*
Y120866D01*
X210925Y123622D02*
X225886D01*
X210925Y136221D02*
X225886D01*
X211024Y139370D02*
X225984D01*
X211024Y151969D02*
X225984D01*
X254724Y-143504D02*
Y-80905D01*
X256693Y-143504D02*
Y-80905D01*
X235827Y-143504D02*
Y-80905D01*
X256693D01*
X235827Y-143504D02*
X256693D01*
X235827Y80905D02*
X256693D01*
X235827Y143504D02*
X256693D01*
X235827Y80905D02*
Y143504D01*
X256693Y80905D02*
Y143504D01*
X254724Y80905D02*
Y143504D01*
Y13976D02*
Y76575D01*
X256693Y13976D02*
Y76575D01*
X235827Y13976D02*
Y76575D01*
X256693D01*
X235827Y13976D02*
X256693D01*
X266142Y-81693D02*
X312093D01*
X266142Y-142717D02*
X312093D01*
X334364D02*
X344882D01*
X334364Y-81693D02*
X344882D01*
Y-142717D02*
Y-81693D01*
X266142Y-86221D02*
Y-81693D01*
Y-105905D02*
Y-94882D01*
Y-129527D02*
Y-118504D01*
Y-142717D02*
Y-138189D01*
X312093Y-81693D02*
X334364D01*
X312093Y-142717D02*
X334364D01*
X266142Y-94882D02*
Y-86221D01*
X252953D02*
X266142D01*
X252953Y-94882D02*
X266142D01*
Y-118504D02*
Y-105905D01*
X252953D02*
X266142D01*
X252953Y-118504D02*
X266142D01*
Y-138189D02*
Y-129527D01*
X252953Y-138189D02*
X266142D01*
X252953Y-129527D02*
X266142D01*
X323228Y-112205D02*
X333071D01*
X323228D02*
Y-102362D01*
X313386Y-112205D02*
X323228D01*
Y-122047D02*
Y-112205D01*
X266142Y-14764D02*
X312093D01*
X266142Y-75787D02*
X312093D01*
X334364D02*
X344882D01*
X334364Y-14764D02*
X344882D01*
Y-75787D02*
Y-14764D01*
X266142Y-19291D02*
Y-14764D01*
Y-38976D02*
Y-27953D01*
Y-62598D02*
Y-51575D01*
Y-75787D02*
Y-71260D01*
X312093Y-14764D02*
X334364D01*
X312093Y-75787D02*
X334364D01*
X266142Y-27953D02*
Y-19291D01*
X252953D02*
X266142D01*
X252953Y-27953D02*
X266142D01*
Y-51575D02*
Y-38976D01*
X252953D02*
X266142D01*
X252953Y-51575D02*
X266142D01*
Y-71260D02*
Y-62598D01*
X252953Y-71260D02*
X266142D01*
X252953Y-62598D02*
X266142D01*
X323228Y-45276D02*
X333071D01*
X323228D02*
Y-35433D01*
X313386Y-45276D02*
X323228D01*
Y-55118D02*
Y-45276D01*
X266142Y142717D02*
X312093D01*
X266142Y81693D02*
X312093D01*
X334364D02*
X344882D01*
X334364Y142717D02*
X344882D01*
Y81693D02*
Y142717D01*
X266142Y138189D02*
Y142717D01*
Y118504D02*
Y129528D01*
Y94882D02*
Y105905D01*
Y81693D02*
Y86221D01*
X312093Y142717D02*
X334364D01*
X312093Y81693D02*
X334364D01*
X266142Y129528D02*
Y138189D01*
X252953D02*
X266142D01*
X252953Y129528D02*
X266142D01*
Y105905D02*
Y118504D01*
X252953D02*
X266142D01*
X252953Y105905D02*
X266142D01*
Y86221D02*
Y94882D01*
X252953Y86221D02*
X266142D01*
X252953Y94882D02*
X266142D01*
X323228Y112205D02*
X333071D01*
X323228D02*
Y122047D01*
X313386Y112205D02*
X323228D01*
Y102362D02*
Y112205D01*
X122047Y-70868D02*
X129919D01*
X125983Y-66932D02*
Y-74804D01*
X122047Y70864D02*
X129919D01*
X125983Y74800D02*
Y66928D01*
X0Y177165D02*
X393701D01*
Y-177165D02*
Y177165D01*
X0Y-177165D02*
Y177165D01*
Y-177165D02*
X393701D01*
D29*
X120079Y-70866D02*
G03*
X120079Y-70866I-59055J0D01*
G01*
Y70866D02*
G03*
X120079Y70866I-59055J0D01*
G01*
D30*
X238878Y74016D02*
G03*
X238878Y74016I-492J0D01*
G01*
Y-16535D02*
G03*
X238878Y-16535I-492J0D01*
G01*
Y-83465D02*
G03*
X238878Y-83465I-492J0D01*
G01*
Y140945D02*
G03*
X238878Y140945I-492J0D01*
G01*
Y74016D02*
G03*
X238878Y74016I-492J0D01*
G01*
Y-83465D02*
G03*
X238878Y-83465I-492J0D01*
G01*
Y-16535D02*
G03*
X238878Y-16535I-492J0D01*
G01*
Y140945D02*
G03*
X238878Y140945I-492J0D01*
G01*
D31*
X207643Y54331D02*
G03*
X207643Y54331I-557J0D01*
G01*
Y-103150D02*
G03*
X207643Y-103150I-557J0D01*
G01*
Y-36220D02*
G03*
X207643Y-36220I-557J0D01*
G01*
Y121260D02*
G03*
X207643Y121260I-557J0D01*
G01*
D32*
X279528Y-137795D02*
G03*
X279528Y-137795I-6890J0D01*
G01*
Y-78740D02*
G03*
X279528Y-78740I-6890J0D01*
G01*
Y78740D02*
G03*
X279528Y78740I-6890J0D01*
G01*
Y137795D02*
G03*
X279528Y137795I-6890J0D01*
G01*
X9904Y-14687D02*
X8905Y-13687D01*
X6905D01*
X5906Y-14687D01*
Y-18685D01*
X6905Y-19685D01*
X8905D01*
X9904Y-18685D01*
X15902Y-19685D02*
X11904D01*
X15902Y-15686D01*
Y-14687D01*
X14903Y-13687D01*
X12903D01*
X11904Y-14687D01*
X166291Y122730D02*
Y119398D01*
X162959Y122730D01*
X162126D01*
X161293Y121897D01*
Y120231D01*
X162126Y119398D01*
Y124396D02*
X161293Y125229D01*
Y126895D01*
X162126Y127728D01*
X165458D01*
X166291Y126895D01*
Y125229D01*
X165458Y124396D01*
X162126D01*
X176791Y17898D02*
Y19564D01*
Y18731D01*
X171793D01*
X172626Y17898D01*
X9904Y132951D02*
X8905Y133951D01*
X6905D01*
X5906Y132951D01*
Y128952D01*
X6905Y127953D01*
X8905D01*
X9904Y128952D01*
X11904Y132951D02*
X12903Y133951D01*
X14903D01*
X15902Y132951D01*
Y131951D01*
X14903Y130952D01*
X13903D01*
X14903D01*
X15902Y129952D01*
Y128952D01*
X14903Y127953D01*
X12903D01*
X11904Y128952D01*
D33*
X150885Y3819D02*
X186712D01*
Y133976D01*
X150885D02*
X186712D01*
X150885Y3819D02*
Y133976D01*
Y3819D02*
X186712D01*
Y133976D01*
X150885D02*
X186712D01*
X150885Y3819D02*
Y133976D01*
D34*
X210000Y24370D02*
X227008D01*
X210000Y38622D02*
X227008D01*
Y24370D02*
Y26378D01*
Y36614D02*
Y38622D01*
X210000Y36614D02*
Y38622D01*
Y24370D02*
Y26378D01*
Y-133110D02*
X227008D01*
X210000Y-118858D02*
X227008D01*
Y-133110D02*
Y-131102D01*
Y-120866D02*
Y-118858D01*
X210000Y-120866D02*
Y-118858D01*
Y-133110D02*
Y-131102D01*
Y-66181D02*
X227008D01*
X210000Y-51929D02*
X227008D01*
Y-66181D02*
Y-64173D01*
Y-53937D02*
Y-51929D01*
X210000Y-53937D02*
Y-51929D01*
Y-66181D02*
Y-64173D01*
Y91299D02*
X227008D01*
X210000Y105551D02*
X227008D01*
Y91299D02*
Y93307D01*
Y103543D02*
Y105551D01*
X210000Y103543D02*
Y105551D01*
Y91299D02*
Y93307D01*
D35*
X196260Y-41732D02*
Y-23228D01*
X189567Y-41732D02*
X196260D01*
X189567D02*
Y-23228D01*
X196260D01*
X203150Y-23031D02*
Y-4528D01*
X196457Y-23031D02*
X203150D01*
X196457D02*
Y-4528D01*
X203150D01*
X188622Y89173D02*
Y107677D01*
X195315D01*
Y89173D02*
Y107677D01*
X188622Y89173D02*
X195315D01*
X200197Y69488D02*
Y87992D01*
X193504Y69488D02*
X200197D01*
X193504D02*
Y87992D01*
X200197D01*
D36*
X168687Y140825D02*
X167020D01*
X167853D01*
Y136660D01*
X167020Y135827D01*
X166187D01*
X165354Y136660D01*
X170353Y135827D02*
X172019D01*
X171186D01*
Y140825D01*
X170353Y139992D01*
X193898Y49213D02*
Y54211D01*
X196397D01*
X197230Y53378D01*
Y51712D01*
X196397Y50879D01*
X193898D01*
X195564D02*
X197230Y49213D01*
X198896Y53378D02*
X199729Y54211D01*
X201395D01*
X202228Y53378D01*
Y52545D01*
X201395Y51712D01*
X200562D01*
X201395D01*
X202228Y50879D01*
Y50046D01*
X201395Y49213D01*
X199729D01*
X198896Y50046D01*
X237205Y2046D02*
Y-2953D01*
Y-454D01*
X240537D01*
Y2046D01*
Y-2953D01*
X245535Y1213D02*
X244702Y2046D01*
X243036D01*
X242203Y1213D01*
Y380D01*
X243036Y-454D01*
X244702D01*
X245535Y-1287D01*
Y-2120D01*
X244702Y-2953D01*
X243036D01*
X242203Y-2120D01*
X250534Y-2953D02*
X247201D01*
X250534Y380D01*
Y1213D01*
X249701Y2046D01*
X248035D01*
X247201Y1213D01*
X257874Y160510D02*
Y155512D01*
Y158011D01*
X261206D01*
Y160510D01*
Y155512D01*
X266205Y159677D02*
X265372Y160510D01*
X263705D01*
X262872Y159677D01*
Y158844D01*
X263705Y158011D01*
X265372D01*
X266205Y157178D01*
Y156345D01*
X265372Y155512D01*
X263705D01*
X262872Y156345D01*
X267871Y155512D02*
X269537D01*
X268704D01*
Y160510D01*
X267871Y159677D01*
X214567Y4921D02*
Y9920D01*
X217066D01*
X217899Y9087D01*
Y7421D01*
X217066Y6587D01*
X214567D01*
X216233D02*
X217899Y4921D01*
X222898D02*
X219565D01*
X222898Y8253D01*
Y9087D01*
X222064Y9920D01*
X220398D01*
X219565Y9087D01*
X194882Y34526D02*
Y29528D01*
X197381D01*
X198214Y30361D01*
Y33693D01*
X197381Y34526D01*
X194882D01*
X203212Y29528D02*
X199880D01*
X203212Y32860D01*
Y33693D01*
X202379Y34526D01*
X200713D01*
X199880Y33693D01*
X193898Y47321D02*
Y42323D01*
X196397D01*
X197230Y43156D01*
Y46488D01*
X196397Y47321D01*
X193898D01*
X198896Y42323D02*
X200562D01*
X199729D01*
Y47321D01*
X198896Y46488D01*
X245458Y-10978D02*
Y-7646D01*
X244625Y-6813D01*
X242959D01*
X242126Y-7646D01*
Y-10978D01*
X242959Y-11811D01*
X244625D01*
X243792Y-10145D02*
X245458Y-11811D01*
X244625D02*
X245458Y-10978D01*
X250457Y-11811D02*
X247124D01*
X250457Y-8479D01*
Y-7646D01*
X249623Y-6813D01*
X247957D01*
X247124Y-7646D01*
X126364Y-2724D02*
X125531Y-1891D01*
X123865D01*
X123031Y-2724D01*
Y-6057D01*
X123865Y-6890D01*
X125531D01*
X126364Y-6057D01*
X128030Y-6890D02*
X129696D01*
X128863D01*
Y-1891D01*
X128030Y-2724D01*
X189883Y-21654D02*
X194882D01*
Y-18321D01*
Y-14156D02*
X189883D01*
X192383Y-16655D01*
Y-13323D01*
X189490Y109449D02*
X194488D01*
Y112781D01*
X190323Y114447D02*
X189490Y115280D01*
Y116946D01*
X190323Y117780D01*
X191156D01*
X191989Y116946D01*
Y116113D01*
Y116946D01*
X192822Y117780D01*
X193655D01*
X194488Y116946D01*
Y115280D01*
X193655Y114447D01*
X195866Y2046D02*
Y-2953D01*
X199198D01*
X204197D02*
X200865D01*
X204197Y380D01*
Y1213D01*
X203364Y2046D01*
X201698D01*
X200865Y1213D01*
X196850Y94565D02*
Y89567D01*
X200183D01*
X201849D02*
X203515D01*
X202682D01*
Y94565D01*
X201849Y93732D01*
X245458Y6935D02*
Y10268D01*
X244625Y11101D01*
X242959D01*
X242126Y10268D01*
Y6935D01*
X242959Y6102D01*
X244625D01*
X243792Y7768D02*
X245458Y6102D01*
X244625D02*
X245458Y6935D01*
X247124Y6102D02*
X248791D01*
X247957D01*
Y11101D01*
X247124Y10268D01*
X194882Y-43230D02*
Y-48228D01*
X197381D01*
X198214Y-47395D01*
Y-44063D01*
X197381Y-43230D01*
X194882D01*
X199880Y-44063D02*
X200713Y-43230D01*
X202379D01*
X203212Y-44063D01*
Y-44896D01*
X202379Y-45729D01*
X201546D01*
X202379D01*
X203212Y-46562D01*
Y-47395D01*
X202379Y-48228D01*
X200713D01*
X199880Y-47395D01*
X194882Y-56025D02*
Y-61024D01*
X197381D01*
X198214Y-60190D01*
Y-56858D01*
X197381Y-56025D01*
X194882D01*
X202379Y-61024D02*
Y-56025D01*
X199880Y-58524D01*
X203212D01*
X245458Y146502D02*
Y149835D01*
X244625Y150668D01*
X242959D01*
X242126Y149835D01*
Y146502D01*
X242959Y145669D01*
X244625D01*
X243792Y147335D02*
X245458Y145669D01*
X244625D02*
X245458Y146502D01*
X247124Y149835D02*
X247957Y150668D01*
X249623D01*
X250457Y149835D01*
Y149002D01*
X249623Y148169D01*
X248791D01*
X249623D01*
X250457Y147335D01*
Y146502D01*
X249623Y145669D01*
X247957D01*
X247124Y146502D01*
X227742Y-142868D02*
Y-139535D01*
X226909Y-138702D01*
X225242D01*
X224410Y-139535D01*
Y-142868D01*
X225242Y-143701D01*
X226909D01*
X226076Y-142035D02*
X227742Y-143701D01*
X226909D02*
X227742Y-142868D01*
X231907Y-143701D02*
Y-138702D01*
X229408Y-141202D01*
X232740D01*
X193898Y56102D02*
Y61101D01*
X196397D01*
X197230Y60268D01*
Y58601D01*
X196397Y57768D01*
X193898D01*
X195564D02*
X197230Y56102D01*
X198896D02*
X200562D01*
X199729D01*
Y61101D01*
X198896Y60268D01*
X196457Y116022D02*
Y111024D01*
X198956D01*
X199789Y111857D01*
Y115189D01*
X198956Y116022D01*
X196457D01*
X204787D02*
X201455D01*
Y113523D01*
X203121Y114356D01*
X203954D01*
X204787Y113523D01*
Y111857D01*
X203954Y111024D01*
X202288D01*
X201455Y111857D01*
X196457Y108542D02*
Y103543D01*
X198956D01*
X199789Y104376D01*
Y107709D01*
X198956Y108542D01*
X196457D01*
X204787D02*
X203121Y107709D01*
X201455Y106043D01*
Y104376D01*
X202288Y103543D01*
X203954D01*
X204787Y104376D01*
Y105209D01*
X203954Y106043D01*
X201455D01*
X194882Y-107206D02*
Y-112205D01*
X197381D01*
X198214Y-111372D01*
Y-108039D01*
X197381Y-107206D01*
X194882D01*
X199880D02*
X203212D01*
Y-108039D01*
X199880Y-111372D01*
Y-112205D01*
X194882Y-122954D02*
Y-127953D01*
X197381D01*
X198214Y-127120D01*
Y-123787D01*
X197381Y-122954D01*
X194882D01*
X199880Y-123787D02*
X200713Y-122954D01*
X202379D01*
X203212Y-123787D01*
Y-124620D01*
X202379Y-125454D01*
X203212Y-126287D01*
Y-127120D01*
X202379Y-127953D01*
X200713D01*
X199880Y-127120D01*
Y-126287D01*
X200713Y-125454D01*
X199880Y-124620D01*
Y-123787D01*
X200713Y-125454D02*
X202379D01*
X193898Y62992D02*
Y67990D01*
X196397D01*
X197230Y67157D01*
Y65491D01*
X196397Y64658D01*
X193898D01*
X195564D02*
X197230Y62992D01*
X201395D02*
Y67990D01*
X198896Y65491D01*
X202228D01*
X214567Y-2953D02*
Y2046D01*
X217066D01*
X217899Y1213D01*
Y-453D01*
X217066Y-1287D01*
X214567D01*
X216233D02*
X217899Y-2953D01*
X219565Y2046D02*
X222898D01*
Y1213D01*
X219565Y-2120D01*
Y-2953D01*
X214567Y12795D02*
Y17794D01*
X217066D01*
X217899Y16961D01*
Y15294D01*
X217066Y14461D01*
X214567D01*
X216233D02*
X217899Y12795D01*
X219565Y16961D02*
X220398Y17794D01*
X222064D01*
X222898Y16961D01*
Y16127D01*
X222064Y15294D01*
X222898Y14461D01*
Y13628D01*
X222064Y12795D01*
X220398D01*
X219565Y13628D01*
Y14461D01*
X220398Y15294D01*
X219565Y16127D01*
Y16961D01*
X220398Y15294D02*
X222064D01*
X212598Y154528D02*
Y159526D01*
X215098D01*
X215931Y158693D01*
Y157027D01*
X215098Y156194D01*
X212598D01*
X214265D02*
X215931Y154528D01*
X217597D02*
X219263D01*
X218430D01*
Y159526D01*
X217597Y158693D01*
X221762Y154528D02*
X223428D01*
X222595D01*
Y159526D01*
X221762Y158693D01*
X188976Y127953D02*
Y132951D01*
X191476D01*
X192309Y132118D01*
Y130452D01*
X191476Y129619D01*
X188976D01*
X190642D02*
X192309Y127953D01*
X193975D02*
X195641D01*
X194808D01*
Y132951D01*
X193975Y132118D01*
X201472Y127953D02*
X198140D01*
X201472Y131285D01*
Y132118D01*
X200639Y132951D01*
X198973D01*
X198140Y132118D01*
X188976Y135827D02*
Y140825D01*
X191476D01*
X192309Y139992D01*
Y138326D01*
X191476Y137493D01*
X188976D01*
X190642D02*
X192309Y135827D01*
X193975D02*
X195641D01*
X194808D01*
Y140825D01*
X193975Y139992D01*
X198140D02*
X198973Y140825D01*
X200639D01*
X201472Y139992D01*
Y139159D01*
X200639Y138326D01*
X199806D01*
X200639D01*
X201472Y137493D01*
Y136660D01*
X200639Y135827D01*
X198973D01*
X198140Y136660D01*
X188976Y-80709D02*
Y-75710D01*
X191476D01*
X192309Y-76543D01*
Y-78210D01*
X191476Y-79043D01*
X188976D01*
X190642D02*
X192309Y-80709D01*
X193975D02*
X195641D01*
X194808D01*
Y-75710D01*
X193975Y-76543D01*
X201472Y-75710D02*
X199806Y-76543D01*
X198140Y-78210D01*
Y-79876D01*
X198973Y-80709D01*
X200639D01*
X201472Y-79876D01*
Y-79043D01*
X200639Y-78210D01*
X198140D01*
X188976Y-96457D02*
Y-91458D01*
X191476D01*
X192309Y-92291D01*
Y-93958D01*
X191476Y-94791D01*
X188976D01*
X190642D02*
X192309Y-96457D01*
X193975D02*
X195641D01*
X194808D01*
Y-91458D01*
X193975Y-92291D01*
X198140Y-91458D02*
X201472D01*
Y-92291D01*
X198140Y-95624D01*
Y-96457D01*
X188976Y-88583D02*
Y-83584D01*
X191476D01*
X192309Y-84417D01*
Y-86084D01*
X191476Y-86917D01*
X188976D01*
X190642D02*
X192309Y-88583D01*
X193975D02*
X195641D01*
X194808D01*
Y-83584D01*
X193975Y-84417D01*
X198140D02*
X198973Y-83584D01*
X200639D01*
X201472Y-84417D01*
Y-85250D01*
X200639Y-86084D01*
X201472Y-86917D01*
Y-87750D01*
X200639Y-88583D01*
X198973D01*
X198140Y-87750D01*
Y-86917D01*
X198973Y-86084D01*
X198140Y-85250D01*
Y-84417D01*
X198973Y-86084D02*
X200639D01*
D37*
X185167Y68898D02*
D03*
D38*
X216634Y47244D02*
D03*
Y-110236D02*
D03*
Y-43307D02*
D03*
Y114173D02*
D03*
M02*
