G04 Layer_Color=8421504*
%FSLAX25Y25*%
%MOIN*%
G70*
G01*
G75*
%ADD11R,0.05315X0.13386*%
%ADD12R,0.09055X0.09055*%
%ADD13R,0.08268X0.09055*%
%ADD14R,0.04724X0.04331*%
%ADD17C,0.00787*%
D11*
X230217Y62992D02*
D03*
X206791D02*
D03*
X230217Y-94488D02*
D03*
X206791D02*
D03*
X230217Y-78740D02*
D03*
X206791D02*
D03*
X230217Y-27559D02*
D03*
X206791D02*
D03*
X230217Y-11811D02*
D03*
X206791D02*
D03*
X230217Y78740D02*
D03*
X206791D02*
D03*
X230118Y129921D02*
D03*
X206693D02*
D03*
X230217Y145669D02*
D03*
X206791D02*
D03*
D12*
X227362Y31496D02*
D03*
X209646D02*
D03*
X227362Y-125984D02*
D03*
X209646D02*
D03*
X227362Y-59055D02*
D03*
X209646D02*
D03*
X227362Y98425D02*
D03*
X209646D02*
D03*
D13*
X227165Y47244D02*
D03*
X209842D02*
D03*
Y-110236D02*
D03*
X227165D02*
D03*
Y-43307D02*
D03*
X209842D02*
D03*
Y114173D02*
D03*
X227165D02*
D03*
D14*
X192913Y-38583D02*
D03*
Y-26378D02*
D03*
X199803Y-19882D02*
D03*
Y-7677D02*
D03*
X191969Y104527D02*
D03*
Y92323D02*
D03*
X196850Y72638D02*
D03*
Y84842D02*
D03*
D17*
X0Y177165D02*
X393701D01*
Y-177165D02*
Y177165D01*
X0Y-177165D02*
Y177165D01*
Y-177165D02*
X393701D01*
M02*
