G04 Layer_Color=16711935*
%FSLAX25Y25*%
%MOIN*%
G70*
G01*
G75*
%ADD17C,0.00787*%
%ADD35C,0.00591*%
%ADD55C,0.01575*%
%ADD56C,0.00394*%
D17*
X0Y177165D02*
X393701D01*
Y-177165D02*
Y177165D01*
X0Y-177165D02*
Y177165D01*
Y-177165D02*
X393701D01*
D35*
X212205Y43306D02*
Y40551D01*
X213582D01*
X214041Y41010D01*
Y42847D01*
X213582Y43306D01*
X212205D01*
X214960Y40551D02*
X215878D01*
X215419D01*
Y43306D01*
X214960Y42847D01*
X212205Y-114174D02*
Y-116929D01*
X213582D01*
X214041Y-116470D01*
Y-114633D01*
X213582Y-114174D01*
X212205D01*
X214960D02*
X216796D01*
Y-114633D01*
X214960Y-116470D01*
Y-116929D01*
X212205Y-47245D02*
Y-50000D01*
X213582D01*
X214041Y-49541D01*
Y-47704D01*
X213582Y-47245D01*
X212205D01*
X214960Y-47704D02*
X215419Y-47245D01*
X216337D01*
X216796Y-47704D01*
Y-48163D01*
X216337Y-48623D01*
X215878D01*
X216337D01*
X216796Y-49082D01*
Y-49541D01*
X216337Y-50000D01*
X215419D01*
X214960Y-49541D01*
X212205Y110235D02*
Y107480D01*
X213582D01*
X214041Y107940D01*
Y109776D01*
X213582Y110235D01*
X212205D01*
X216796D02*
X214960D01*
Y108858D01*
X215878Y109317D01*
X216337D01*
X216796Y108858D01*
Y107940D01*
X216337Y107480D01*
X215419D01*
X214960Y107940D01*
D55*
X210630Y40551D02*
Y53937D01*
Y-116929D02*
Y-103543D01*
Y-50000D02*
Y-36614D01*
Y107480D02*
Y120866D01*
D56*
X209055Y55118D02*
X227953D01*
X209055Y39370D02*
Y55118D01*
X227953Y39370D02*
Y55118D01*
X209055Y39370D02*
X227953D01*
Y51575D02*
X229528D01*
Y42913D02*
Y51575D01*
X227953Y42913D02*
X229528D01*
X227953Y45472D02*
Y49803D01*
X207480Y42913D02*
Y51575D01*
Y42913D02*
X209055D01*
Y51575D01*
X207480D02*
X209055D01*
X207480Y-105905D02*
X209055D01*
Y-114567D02*
Y-105905D01*
X207480Y-114567D02*
X209055D01*
X207480D02*
Y-105905D01*
X227953Y-112008D02*
Y-107677D01*
Y-114567D02*
X229528D01*
Y-105905D01*
X227953D02*
X229528D01*
X209055Y-118110D02*
X227953D01*
Y-102362D01*
X209055Y-118110D02*
Y-102362D01*
X227953D01*
X209055Y-35433D02*
X227953D01*
X209055Y-51181D02*
Y-35433D01*
X227953Y-51181D02*
Y-35433D01*
X209055Y-51181D02*
X227953D01*
Y-38976D02*
X229528D01*
Y-47638D02*
Y-38976D01*
X227953Y-47638D02*
X229528D01*
X227953Y-45079D02*
Y-40748D01*
X207480Y-47638D02*
Y-38976D01*
Y-47638D02*
X209055D01*
Y-38976D01*
X207480D02*
X209055D01*
X207480Y118504D02*
X209055D01*
Y109843D02*
Y118504D01*
X207480Y109843D02*
X209055D01*
X207480D02*
Y118504D01*
X227953Y112402D02*
Y116732D01*
Y109843D02*
X229528D01*
Y118504D01*
X227953D02*
X229528D01*
X209055Y106299D02*
X227953D01*
Y122047D01*
X209055Y106299D02*
Y122047D01*
X227953D01*
M02*
