G04 Layer_Physical_Order=1*
G04 Layer_Color=255*
%FSLAX25Y25*%
%MOIN*%
G70*
G01*
G75*
%ADD10C,0.03937*%
%ADD11R,0.05315X0.13386*%
%ADD12R,0.09055X0.09055*%
%ADD13R,0.08268X0.09055*%
%ADD14R,0.04724X0.04331*%
%ADD15C,0.04921*%
%ADD16C,0.05905*%
%ADD17C,0.00787*%
%ADD18R,0.11811X0.11811*%
%ADD19C,0.11811*%
%ADD20R,0.11811X0.11811*%
%ADD21C,0.06299*%
%ADD22R,0.06299X0.06299*%
%ADD23C,0.12598*%
%ADD24C,0.05905*%
%ADD25C,0.33465*%
%ADD26C,0.17716*%
%ADD27C,0.25000*%
%ADD28C,0.03937*%
G36*
X157480Y171836D02*
X157480Y161942D01*
X157118Y160120D01*
X156945Y157480D01*
X157118Y154841D01*
X157634Y152247D01*
X158484Y149742D01*
X159654Y147370D01*
X161123Y145171D01*
X162867Y143182D01*
X164856Y141438D01*
X167055Y139969D01*
X169427Y138799D01*
X171932Y137949D01*
X174526Y137433D01*
X177165Y137260D01*
X179805Y137433D01*
X181627Y137795D01*
X196745Y137795D01*
X200561Y136614D01*
Y123228D01*
X200473Y122030D01*
X199332Y120371D01*
X198043Y119518D01*
X197526Y119095D01*
X178354D01*
X177973Y119407D01*
X176827Y120020D01*
X175584Y120397D01*
X174291Y120524D01*
X172999Y120397D01*
X171756Y120020D01*
X170610Y119407D01*
X170229Y119095D01*
X168354D01*
X167973Y119407D01*
X166827Y120020D01*
X165584Y120397D01*
X164291Y120524D01*
X162999Y120397D01*
X161756Y120020D01*
X160610Y119407D01*
X159606Y118583D01*
X158782Y117579D01*
X158169Y116433D01*
X157792Y115190D01*
X157665Y113898D01*
X157792Y112605D01*
X157863Y112373D01*
Y105423D01*
X157792Y105190D01*
X157665Y103898D01*
X157792Y102605D01*
X157863Y102373D01*
Y95423D01*
X157792Y95190D01*
X157665Y93898D01*
X157792Y92605D01*
X157863Y92373D01*
Y85423D01*
X157792Y85190D01*
X157665Y83898D01*
X157792Y82605D01*
X158169Y81362D01*
X158782Y80216D01*
X159449Y79403D01*
Y78392D01*
X158782Y77579D01*
X158169Y76433D01*
X157792Y75190D01*
X157665Y73898D01*
X157792Y72605D01*
X158169Y71362D01*
X158782Y70216D01*
X159449Y69403D01*
Y68392D01*
X158782Y67579D01*
X158169Y66434D01*
X157792Y65190D01*
X157665Y63898D01*
X157792Y62605D01*
X158169Y61362D01*
X158782Y60216D01*
X159449Y59403D01*
Y58392D01*
X158782Y57579D01*
X158169Y56433D01*
X157792Y55190D01*
X157665Y53898D01*
X157792Y52605D01*
X157863Y52373D01*
Y45423D01*
X157792Y45190D01*
X157665Y43898D01*
X157792Y42605D01*
X157863Y42373D01*
Y35423D01*
X157792Y35190D01*
X157665Y33898D01*
X157792Y32605D01*
X157863Y32373D01*
Y25423D01*
X157792Y25190D01*
X157665Y23898D01*
X157792Y22605D01*
X157863Y22373D01*
Y20465D01*
X157986Y19211D01*
X158352Y18005D01*
X158946Y16894D01*
X159449Y16281D01*
Y14764D01*
X179579Y-5367D01*
Y-29528D01*
Y-67898D01*
X179703Y-69152D01*
X180069Y-70358D01*
X180663Y-71469D01*
X181462Y-72443D01*
X184055Y-75036D01*
Y-174213D01*
X158114D01*
X156596Y-170276D01*
X157318Y-169622D01*
X157518Y-169670D01*
X159285Y-169809D01*
X159449Y-169830D01*
X159613Y-169809D01*
X161379Y-169670D01*
X163262Y-169218D01*
X165052Y-168476D01*
X166703Y-167464D01*
X168050Y-166314D01*
X168182Y-166213D01*
X168282Y-166082D01*
X169433Y-164734D01*
X170445Y-163083D01*
X171186Y-161294D01*
X171638Y-159411D01*
X171777Y-157644D01*
X171799Y-157480D01*
X171777Y-157317D01*
X171638Y-155550D01*
X171186Y-153667D01*
X170445Y-151877D01*
X169433Y-150226D01*
X168282Y-148879D01*
X168182Y-148748D01*
X168050Y-148647D01*
X166703Y-147496D01*
X165052Y-146484D01*
X163262Y-145743D01*
X161379Y-145291D01*
X159613Y-145152D01*
X159449Y-145131D01*
X159285Y-145152D01*
X157518Y-145291D01*
X155635Y-145743D01*
X154526Y-146202D01*
X153837Y-145171D01*
X152093Y-143182D01*
X150105Y-141438D01*
X147906Y-139969D01*
X145533Y-138799D01*
X143029Y-137949D01*
X140435Y-137433D01*
X137795Y-137260D01*
X135156Y-137433D01*
X132562Y-137949D01*
X130057Y-138799D01*
X127685Y-139969D01*
X125486Y-141438D01*
X123497Y-143182D01*
X121753Y-145171D01*
X120284Y-147370D01*
X119114Y-149742D01*
X118264Y-152247D01*
X117748Y-154841D01*
X117575Y-157480D01*
X117748Y-160120D01*
X118264Y-162714D01*
X119114Y-165218D01*
X120284Y-167590D01*
X121753Y-169790D01*
X122179Y-170276D01*
X120396Y-174213D01*
X76455Y-174213D01*
X74671Y-170276D01*
X75097Y-169790D01*
X76566Y-167590D01*
X77736Y-165218D01*
X78587Y-162714D01*
X79103Y-160120D01*
X79276Y-157480D01*
X79103Y-154841D01*
X78587Y-152247D01*
X77736Y-149742D01*
X76566Y-147370D01*
X75097Y-145171D01*
X73353Y-143182D01*
X71364Y-141438D01*
X69165Y-139969D01*
X66793Y-138799D01*
X64289Y-137949D01*
X61694Y-137433D01*
X59055Y-137260D01*
X56416Y-137433D01*
X53822Y-137949D01*
X51317Y-138799D01*
X48945Y-139969D01*
X46746Y-141438D01*
X44757Y-143182D01*
X43013Y-145171D01*
X41544Y-147370D01*
X40374Y-149742D01*
X39524Y-152247D01*
X39008Y-154841D01*
X38835Y-157480D01*
X39008Y-160120D01*
X39524Y-162714D01*
X40374Y-165218D01*
X41544Y-167590D01*
X43013Y-169790D01*
X43439Y-170276D01*
X41655Y-174213D01*
X2953Y-174213D01*
Y-115825D01*
X6890Y-114041D01*
X7376Y-114467D01*
X9575Y-115937D01*
X11947Y-117106D01*
X14452Y-117957D01*
X17046Y-118473D01*
X19685Y-118646D01*
X22324Y-118473D01*
X24918Y-117957D01*
X27423Y-117106D01*
X29795Y-115937D01*
X31995Y-114467D01*
X33983Y-112723D01*
X35727Y-110735D01*
X37196Y-108535D01*
X38366Y-106163D01*
X39217Y-103659D01*
X39733Y-101065D01*
X39906Y-98425D01*
X39733Y-95786D01*
X39217Y-93192D01*
X38366Y-90687D01*
X37196Y-88315D01*
X35727Y-86116D01*
X33983Y-84127D01*
X31995Y-82383D01*
X29795Y-80914D01*
X27423Y-79744D01*
X24918Y-78894D01*
X22324Y-78378D01*
X19685Y-78205D01*
X17046Y-78378D01*
X14452Y-78894D01*
X11947Y-79744D01*
X9575Y-80914D01*
X7376Y-82383D01*
X6890Y-82809D01*
X2953Y-81025D01*
Y81025D01*
X6890Y82809D01*
X7376Y82383D01*
X9575Y80914D01*
X11947Y79744D01*
X14452Y78894D01*
X17046Y78378D01*
X19685Y78205D01*
X22324Y78378D01*
X24918Y78894D01*
X27423Y79744D01*
X29795Y80914D01*
X31995Y82383D01*
X33983Y84127D01*
X35727Y86116D01*
X37196Y88315D01*
X38366Y90687D01*
X39217Y93192D01*
X39733Y95786D01*
X39906Y98425D01*
X39733Y101065D01*
X39217Y103659D01*
X38366Y106163D01*
X37196Y108535D01*
X35727Y110735D01*
X33983Y112723D01*
X31995Y114467D01*
X29795Y115937D01*
X27423Y117106D01*
X24918Y117957D01*
X22324Y118473D01*
X19685Y118646D01*
X17046Y118473D01*
X14452Y117957D01*
X11947Y117106D01*
X9575Y115937D01*
X7376Y114467D01*
X6890Y114041D01*
X2953Y115825D01*
Y174213D01*
X41655D01*
X43439Y170276D01*
X43013Y169790D01*
X41544Y167591D01*
X40374Y165218D01*
X39524Y162714D01*
X39008Y160120D01*
X38835Y157480D01*
X39008Y154841D01*
X39524Y152247D01*
X40374Y149742D01*
X41544Y147370D01*
X43013Y145171D01*
X44757Y143182D01*
X46746Y141438D01*
X48945Y139969D01*
X51317Y138799D01*
X53822Y137949D01*
X56416Y137433D01*
X59055Y137260D01*
X61694Y137433D01*
X64289Y137949D01*
X66793Y138799D01*
X69165Y139969D01*
X71364Y141438D01*
X73353Y143182D01*
X75097Y145171D01*
X76566Y147370D01*
X77736Y149742D01*
X78587Y152247D01*
X79103Y154841D01*
X79276Y157480D01*
X79103Y160120D01*
X78587Y162714D01*
X77736Y165218D01*
X76566Y167591D01*
X75097Y169790D01*
X74671Y170276D01*
X76455Y174213D01*
X153543Y174213D01*
X157480Y171836D01*
D02*
G37*
G36*
X364173Y134843D02*
X374016D01*
Y134843D01*
X390748Y118110D01*
X390748Y-117409D01*
Y-118110D01*
X374016Y-134843D01*
X364173D01*
X324803Y-174213D01*
X206693Y-174213D01*
X189961Y-157480D01*
X206693Y-140748D01*
X235976Y-140748D01*
X236079Y-140915D01*
X237230Y-142263D01*
X237330Y-142394D01*
X237461Y-142495D01*
X238809Y-143646D01*
X240460Y-144658D01*
X242249Y-145399D01*
X244132Y-145851D01*
X245899Y-145990D01*
X246063Y-146011D01*
X246227Y-145990D01*
X247994Y-145851D01*
X249877Y-145399D01*
X251666Y-144658D01*
X253317Y-143646D01*
X254664Y-142495D01*
X254796Y-142394D01*
X254896Y-142263D01*
X256047Y-140915D01*
X257059Y-139264D01*
X257800Y-137475D01*
X258252Y-135592D01*
X258391Y-133825D01*
X258413Y-133661D01*
X258391Y-133498D01*
X258252Y-131731D01*
X257800Y-129848D01*
X257059Y-128059D01*
X256047Y-126408D01*
X254896Y-125060D01*
X254796Y-124929D01*
X254664Y-124828D01*
X253317Y-123677D01*
X251666Y-122665D01*
X249877Y-121924D01*
X247994Y-121472D01*
X246227Y-121333D01*
X246063Y-121312D01*
X245899Y-121333D01*
X244132Y-121472D01*
X242249Y-121924D01*
X242126Y-121975D01*
X238597Y-120019D01*
X238189Y-119440D01*
X238189Y-103647D01*
X238222Y-103534D01*
X238543Y-102969D01*
X242126Y-100128D01*
X251969D01*
X252868Y-100010D01*
X253706Y-99663D01*
X254425Y-99111D01*
X254978Y-98391D01*
X255325Y-97553D01*
X255443Y-96653D01*
Y-84842D01*
X255325Y-83943D01*
X254978Y-83105D01*
X254425Y-82386D01*
X253706Y-81833D01*
X252874Y-81489D01*
X252849Y-81426D01*
X252028Y-78860D01*
X252078Y-77476D01*
X253317Y-76717D01*
X254664Y-75566D01*
X254796Y-75465D01*
X254896Y-75334D01*
X256047Y-73986D01*
X257059Y-72335D01*
X257800Y-70546D01*
X258252Y-68663D01*
X258391Y-66896D01*
X258413Y-66732D01*
X258391Y-66569D01*
X258252Y-64802D01*
X257800Y-62919D01*
X257059Y-61129D01*
X256047Y-59478D01*
X254896Y-58131D01*
X254796Y-58000D01*
X254664Y-57899D01*
X253317Y-56748D01*
X251666Y-55736D01*
X249877Y-54995D01*
X247994Y-54543D01*
X246227Y-54404D01*
X246063Y-54382D01*
X245899Y-54404D01*
X244132Y-54543D01*
X242249Y-54995D01*
X242126Y-55046D01*
X238597Y-53089D01*
X238189Y-52511D01*
X238189Y-36718D01*
X238222Y-36605D01*
X238543Y-36040D01*
X242126Y-33199D01*
X251969D01*
X252868Y-33081D01*
X253706Y-32734D01*
X254425Y-32181D01*
X254978Y-31462D01*
X255325Y-30624D01*
X255443Y-29724D01*
Y-17913D01*
X255325Y-17014D01*
X254978Y-16176D01*
X254425Y-15457D01*
X253706Y-14904D01*
X252868Y-14557D01*
X251969Y-14439D01*
X240158D01*
X238222Y-11033D01*
X238189Y-10920D01*
Y-4810D01*
X238189Y-4810D01*
X235331Y-2661D01*
X234611Y-2109D01*
X233773Y-1762D01*
X232874Y-1643D01*
X227559D01*
X226660Y-1762D01*
X225822Y-2109D01*
X225102Y-2661D01*
X224878Y-2953D01*
X212129D01*
X211906Y-2661D01*
X211186Y-2109D01*
X210348Y-1762D01*
X209449Y-1643D01*
X204134D01*
X203235Y-1762D01*
X199342Y-64D01*
Y1609D01*
X199218Y2863D01*
X198853Y4069D01*
X198819Y4132D01*
Y19685D01*
X242126D01*
X242126Y27559D01*
X239469D01*
X238500Y31496D01*
X238597Y31633D01*
X242126Y33590D01*
X242249Y33538D01*
X244132Y33086D01*
X245899Y32947D01*
X246063Y32926D01*
X246227Y32947D01*
X247994Y33086D01*
X249877Y33538D01*
X251666Y34280D01*
X253317Y35291D01*
X254664Y36442D01*
X254796Y36543D01*
X254896Y36674D01*
X256047Y38022D01*
X257059Y39673D01*
X257800Y41462D01*
X258252Y43345D01*
X258391Y45112D01*
X258413Y45276D01*
X258391Y45439D01*
X258252Y47206D01*
X257800Y49089D01*
X257059Y50878D01*
X256047Y52530D01*
X254896Y53877D01*
X254796Y54008D01*
X254664Y54109D01*
X254478Y54831D01*
X254432Y57919D01*
X254858Y58933D01*
X254978Y59089D01*
X255325Y59927D01*
X255443Y60827D01*
Y72638D01*
X255325Y73537D01*
X254978Y74375D01*
X254425Y75095D01*
X253706Y75647D01*
X252868Y75994D01*
X251969Y76112D01*
X240158D01*
X238222Y79518D01*
X238189Y79631D01*
Y86614D01*
X242126D01*
Y94488D01*
X239469D01*
X238500Y98425D01*
X238597Y98562D01*
X242126Y100519D01*
X242249Y100468D01*
X244132Y100015D01*
X245899Y99876D01*
X246063Y99855D01*
X246227Y99876D01*
X247994Y100015D01*
X249877Y100468D01*
X251666Y101209D01*
X253317Y102220D01*
X254664Y103371D01*
X254796Y103472D01*
X254896Y103603D01*
X256047Y104951D01*
X257059Y106602D01*
X257800Y108391D01*
X258252Y110274D01*
X258391Y112041D01*
X258413Y112205D01*
X258391Y112369D01*
X258252Y114135D01*
X257800Y116018D01*
X257059Y117807D01*
X256047Y119459D01*
X254896Y120806D01*
X254796Y120937D01*
X254664Y121038D01*
X254478Y121760D01*
X254432Y124848D01*
X254858Y125862D01*
X254978Y126019D01*
X255325Y126857D01*
X255443Y127756D01*
Y139567D01*
X255325Y140466D01*
X254978Y141304D01*
X254425Y142024D01*
X253706Y142576D01*
X252868Y142923D01*
X251969Y143042D01*
X240158D01*
X237019Y145021D01*
X236574Y145437D01*
X236349Y145787D01*
Y152362D01*
X236230Y153261D01*
X235883Y154100D01*
X235331Y154819D01*
X234611Y155371D01*
X233773Y155718D01*
X232874Y155837D01*
X227559D01*
X226660Y155718D01*
X225822Y155371D01*
X225102Y154819D01*
X224878Y154528D01*
X212129D01*
X211906Y154819D01*
X211186Y155371D01*
X210348Y155718D01*
X209449Y155837D01*
X204134D01*
X203235Y155718D01*
X202396Y155371D01*
X201677Y154819D01*
X201125Y154100D01*
X200778Y153261D01*
X200659Y152362D01*
Y144062D01*
X199216Y142588D01*
X197866Y141631D01*
X196892Y141272D01*
X196722Y141270D01*
X181627Y141270D01*
X181289Y141225D01*
X180949Y141203D01*
X179350Y140885D01*
X177259Y140748D01*
X177165D01*
X160433Y157480D01*
X177165Y174213D01*
X324803Y174213D01*
X364173Y134843D01*
D02*
G37*
%LPC*%
G36*
X41339Y-61471D02*
X39506Y-61651D01*
X37743Y-62186D01*
X36119Y-63054D01*
X34695Y-64222D01*
X33526Y-65646D01*
X32658Y-67271D01*
X32124Y-69033D01*
X31943Y-70866D01*
X32124Y-72699D01*
X32658Y-74462D01*
X33526Y-76086D01*
X34695Y-77510D01*
X36119Y-78678D01*
X37743Y-79547D01*
X39506Y-80081D01*
X41339Y-80262D01*
X43172Y-80081D01*
X44934Y-79547D01*
X46558Y-78678D01*
X47982Y-77510D01*
X49151Y-76086D01*
X50019Y-74462D01*
X50554Y-72699D01*
X50734Y-70866D01*
X50554Y-69033D01*
X50019Y-67271D01*
X49151Y-65646D01*
X47982Y-64222D01*
X46558Y-63054D01*
X44934Y-62186D01*
X43172Y-61651D01*
X41339Y-61471D01*
D02*
G37*
G36*
X135827Y19238D02*
X133994Y19058D01*
X132231Y18523D01*
X130607Y17655D01*
X129183Y16486D01*
X128015Y15063D01*
X127146Y13438D01*
X126612Y11676D01*
X126431Y9843D01*
X126612Y8010D01*
X127146Y6247D01*
X128015Y4623D01*
X129183Y3199D01*
X130607Y2030D01*
X132231Y1162D01*
X133858Y668D01*
X133994Y627D01*
X135827Y447D01*
X137660Y627D01*
X139422Y1162D01*
X141047Y2030D01*
X142471Y3199D01*
X143639Y4623D01*
X144507Y6247D01*
X145042Y8010D01*
X145222Y9843D01*
X145042Y11676D01*
X144507Y13438D01*
X143639Y15063D01*
X142471Y16486D01*
X141047Y17655D01*
X139422Y18523D01*
X137660Y19058D01*
X135827Y19238D01*
D02*
G37*
G36*
X159449Y-105760D02*
X159285Y-105782D01*
X157518Y-105921D01*
X155635Y-106373D01*
X153846Y-107114D01*
X152195Y-108126D01*
X150847Y-109277D01*
X150716Y-109378D01*
X150616Y-109509D01*
X149465Y-110856D01*
X148453Y-112507D01*
X147712Y-114297D01*
X147260Y-116180D01*
X147120Y-117947D01*
X147099Y-118110D01*
X147120Y-118274D01*
X147260Y-120041D01*
X147712Y-121924D01*
X148453Y-123713D01*
X149465Y-125364D01*
X150616Y-126712D01*
X150716Y-126843D01*
X150847Y-126944D01*
X152195Y-128094D01*
X153846Y-129106D01*
X155635Y-129847D01*
X157518Y-130299D01*
X159285Y-130438D01*
X159449Y-130460D01*
X159613Y-130438D01*
X161379Y-130299D01*
X163262Y-129847D01*
X165052Y-129106D01*
X166703Y-128094D01*
X168050Y-126944D01*
X168182Y-126843D01*
X168282Y-126712D01*
X169433Y-125364D01*
X170445Y-123713D01*
X171186Y-121924D01*
X171638Y-120041D01*
X171777Y-118274D01*
X171799Y-118110D01*
X171777Y-117947D01*
X171638Y-116180D01*
X171186Y-114297D01*
X170445Y-112507D01*
X169433Y-110856D01*
X168282Y-109509D01*
X168182Y-109378D01*
X168050Y-109277D01*
X166703Y-108126D01*
X165052Y-107114D01*
X163262Y-106373D01*
X161379Y-105921D01*
X159613Y-105782D01*
X159449Y-105760D01*
D02*
G37*
G36*
X98425Y-145105D02*
X98256Y-145127D01*
X98085Y-145121D01*
X96348Y-145292D01*
X96016Y-145370D01*
X95680Y-145425D01*
X94710Y-145720D01*
X94612Y-145743D01*
X94556Y-145766D01*
X94010Y-145932D01*
X93700Y-146072D01*
X93381Y-146192D01*
X92878Y-146461D01*
X92822Y-146484D01*
X92737Y-146537D01*
X91842Y-147015D01*
X91565Y-147213D01*
X91276Y-147393D01*
X89927Y-148500D01*
X89694Y-148749D01*
X89445Y-148982D01*
X88338Y-150331D01*
X88158Y-150620D01*
X87960Y-150897D01*
X87482Y-151792D01*
X87429Y-151877D01*
X87406Y-151933D01*
X87137Y-152436D01*
X87017Y-152755D01*
X86877Y-153065D01*
X86711Y-153611D01*
X86688Y-153667D01*
X86664Y-153765D01*
X86370Y-154735D01*
X86315Y-155071D01*
X86237Y-155403D01*
X86066Y-157140D01*
X86077Y-157480D01*
X86066Y-157821D01*
X86237Y-159557D01*
X86315Y-159889D01*
X86370Y-160225D01*
X86664Y-161196D01*
X86688Y-161294D01*
X86711Y-161350D01*
X86877Y-161895D01*
X87017Y-162206D01*
X87137Y-162524D01*
X87406Y-163027D01*
X87429Y-163083D01*
X87482Y-163169D01*
X87960Y-164063D01*
X88158Y-164340D01*
X88338Y-164630D01*
X89445Y-165979D01*
X89694Y-166212D01*
X89927Y-166460D01*
X91276Y-167567D01*
X91565Y-167747D01*
X91842Y-167946D01*
X92737Y-168424D01*
X92822Y-168476D01*
X92878Y-168500D01*
X93381Y-168768D01*
X93700Y-168888D01*
X94010Y-169029D01*
X94556Y-169194D01*
X94612Y-169218D01*
X94710Y-169241D01*
X95680Y-169535D01*
X96016Y-169591D01*
X96348Y-169668D01*
X98085Y-169839D01*
X98256Y-169834D01*
X98425Y-169856D01*
X98595Y-169834D01*
X98766Y-169839D01*
X100502Y-169668D01*
X100834Y-169591D01*
X101170Y-169535D01*
X102141Y-169241D01*
X102239Y-169218D01*
X102295Y-169194D01*
X102840Y-169029D01*
X103150Y-168888D01*
X103469Y-168768D01*
X103972Y-168500D01*
X104028Y-168476D01*
X104114Y-168424D01*
X105008Y-167946D01*
X105285Y-167747D01*
X105575Y-167567D01*
X106923Y-166460D01*
X107156Y-166212D01*
X107405Y-165979D01*
X108512Y-164630D01*
X108692Y-164340D01*
X108890Y-164063D01*
X109369Y-163169D01*
X109421Y-163083D01*
X109444Y-163027D01*
X109713Y-162524D01*
X109833Y-162206D01*
X109974Y-161895D01*
X110139Y-161350D01*
X110162Y-161294D01*
X110186Y-161196D01*
X110480Y-160225D01*
X110536Y-159889D01*
X110613Y-159557D01*
X110784Y-157821D01*
X110773Y-157480D01*
X110784Y-157140D01*
X110613Y-155403D01*
X110536Y-155071D01*
X110480Y-154735D01*
X110186Y-153765D01*
X110162Y-153667D01*
X110139Y-153611D01*
X109974Y-153065D01*
X109833Y-152755D01*
X109713Y-152436D01*
X109444Y-151933D01*
X109421Y-151877D01*
X109369Y-151792D01*
X108890Y-150897D01*
X108692Y-150620D01*
X108512Y-150331D01*
X107405Y-148982D01*
X107156Y-148749D01*
X106923Y-148500D01*
X105575Y-147393D01*
X105285Y-147213D01*
X105008Y-147015D01*
X104114Y-146537D01*
X104028Y-146484D01*
X103972Y-146461D01*
X103469Y-146192D01*
X103150Y-146072D01*
X102840Y-145932D01*
X102295Y-145766D01*
X102239Y-145743D01*
X102141Y-145720D01*
X101170Y-145425D01*
X100834Y-145370D01*
X100502Y-145292D01*
X98766Y-145121D01*
X98595Y-145127D01*
X98425Y-145105D01*
D02*
G37*
G36*
X98425Y169856D02*
X98256Y169834D01*
X98085Y169839D01*
X96348Y169668D01*
X96016Y169591D01*
X95680Y169535D01*
X94710Y169241D01*
X94612Y169218D01*
X94556Y169194D01*
X94010Y169029D01*
X93700Y168888D01*
X93381Y168768D01*
X92878Y168500D01*
X92822Y168476D01*
X92737Y168424D01*
X91842Y167946D01*
X91565Y167747D01*
X91276Y167567D01*
X89927Y166460D01*
X89694Y166212D01*
X89445Y165979D01*
X88338Y164630D01*
X88158Y164340D01*
X87960Y164063D01*
X87482Y163169D01*
X87429Y163083D01*
X87406Y163027D01*
X87137Y162524D01*
X87017Y162206D01*
X86877Y161895D01*
X86711Y161350D01*
X86688Y161294D01*
X86664Y161196D01*
X86370Y160225D01*
X86315Y159889D01*
X86237Y159557D01*
X86066Y157821D01*
X86077Y157480D01*
X86066Y157140D01*
X86237Y155403D01*
X86315Y155071D01*
X86370Y154735D01*
X86664Y153765D01*
X86688Y153667D01*
X86711Y153611D01*
X86877Y153065D01*
X87017Y152755D01*
X87137Y152436D01*
X87406Y151934D01*
X87429Y151877D01*
X87482Y151792D01*
X87960Y150897D01*
X88158Y150620D01*
X88338Y150331D01*
X89445Y148982D01*
X89694Y148749D01*
X89927Y148500D01*
X91276Y147393D01*
X91565Y147213D01*
X91842Y147015D01*
X92737Y146537D01*
X92822Y146484D01*
X92878Y146461D01*
X93381Y146192D01*
X93700Y146072D01*
X94010Y145932D01*
X94556Y145766D01*
X94612Y145743D01*
X94710Y145720D01*
X95680Y145425D01*
X96016Y145370D01*
X96348Y145292D01*
X98085Y145121D01*
X98256Y145127D01*
X98425Y145105D01*
X98595Y145127D01*
X98766Y145121D01*
X100502Y145292D01*
X100834Y145370D01*
X101170Y145425D01*
X102141Y145720D01*
X102239Y145743D01*
X102295Y145766D01*
X102840Y145932D01*
X103150Y146072D01*
X103469Y146192D01*
X103972Y146461D01*
X104028Y146484D01*
X104114Y146537D01*
X105008Y147015D01*
X105285Y147213D01*
X105575Y147393D01*
X106923Y148500D01*
X107156Y148749D01*
X107405Y148982D01*
X108512Y150331D01*
X108692Y150620D01*
X108891Y150897D01*
X109369Y151792D01*
X109421Y151877D01*
X109444Y151934D01*
X109713Y152436D01*
X109833Y152755D01*
X109974Y153065D01*
X110139Y153611D01*
X110162Y153667D01*
X110186Y153765D01*
X110480Y154735D01*
X110536Y155071D01*
X110613Y155403D01*
X110784Y157140D01*
X110773Y157480D01*
X110784Y157821D01*
X110613Y159557D01*
X110536Y159889D01*
X110480Y160225D01*
X110186Y161196D01*
X110162Y161294D01*
X110139Y161350D01*
X109974Y161895D01*
X109833Y162206D01*
X109713Y162524D01*
X109444Y163027D01*
X109421Y163083D01*
X109369Y163169D01*
X108890Y164063D01*
X108692Y164340D01*
X108512Y164630D01*
X107405Y165979D01*
X107156Y166212D01*
X106923Y166460D01*
X105575Y167567D01*
X105285Y167747D01*
X105008Y167946D01*
X104114Y168424D01*
X104028Y168476D01*
X103972Y168500D01*
X103469Y168768D01*
X103150Y168888D01*
X102840Y169029D01*
X102295Y169194D01*
X102239Y169218D01*
X102141Y169241D01*
X101170Y169535D01*
X100834Y169591D01*
X100502Y169668D01*
X98766Y169839D01*
X98595Y169834D01*
X98425Y169856D01*
D02*
G37*
G36*
X19685Y12376D02*
X19515Y12353D01*
X19344Y12359D01*
X17608Y12188D01*
X17276Y12111D01*
X16940Y12055D01*
X15969Y11761D01*
X15871Y11737D01*
X15815Y11714D01*
X15270Y11549D01*
X14960Y11408D01*
X14641Y11288D01*
X14138Y11019D01*
X14082Y10996D01*
X13996Y10943D01*
X13102Y10465D01*
X12825Y10267D01*
X12536Y10087D01*
X11187Y8980D01*
X10954Y8731D01*
X10705Y8498D01*
X9598Y7149D01*
X9418Y6860D01*
X9220Y6583D01*
X8742Y5689D01*
X8689Y5603D01*
X8666Y5547D01*
X8397Y5044D01*
X8277Y4725D01*
X8136Y4415D01*
X7971Y3870D01*
X7948Y3814D01*
X7924Y3716D01*
X7630Y2745D01*
X7574Y2409D01*
X7497Y2077D01*
X7326Y341D01*
X7337Y0D01*
X7326Y-341D01*
X7497Y-2077D01*
X7574Y-2409D01*
X7630Y-2745D01*
X7924Y-3716D01*
X7948Y-3814D01*
X7971Y-3870D01*
X8136Y-4415D01*
X8277Y-4725D01*
X8397Y-5044D01*
X8666Y-5547D01*
X8689Y-5603D01*
X8742Y-5689D01*
X9220Y-6583D01*
X9418Y-6860D01*
X9598Y-7149D01*
X10705Y-8498D01*
X10954Y-8731D01*
X11187Y-8980D01*
X12536Y-10087D01*
X12825Y-10267D01*
X13102Y-10465D01*
X13996Y-10943D01*
X14082Y-10996D01*
X14138Y-11019D01*
X14641Y-11288D01*
X14960Y-11408D01*
X15270Y-11549D01*
X15815Y-11714D01*
X15871Y-11737D01*
X15969Y-11761D01*
X16940Y-12055D01*
X17276Y-12111D01*
X17608Y-12188D01*
X19344Y-12359D01*
X19515Y-12353D01*
X19685Y-12376D01*
X19855Y-12353D01*
X20026Y-12359D01*
X21762Y-12188D01*
X22094Y-12111D01*
X22430Y-12055D01*
X23401Y-11761D01*
X23499Y-11737D01*
X23555Y-11714D01*
X24100Y-11549D01*
X24410Y-11408D01*
X24729Y-11288D01*
X25232Y-11019D01*
X25288Y-10996D01*
X25374Y-10943D01*
X26268Y-10465D01*
X26545Y-10267D01*
X26834Y-10087D01*
X28183Y-8980D01*
X28416Y-8731D01*
X28665Y-8498D01*
X29772Y-7149D01*
X29952Y-6860D01*
X30150Y-6583D01*
X30628Y-5689D01*
X30681Y-5603D01*
X30704Y-5547D01*
X30973Y-5044D01*
X31093Y-4725D01*
X31234Y-4415D01*
X31399Y-3870D01*
X31422Y-3814D01*
X31446Y-3716D01*
X31740Y-2745D01*
X31796Y-2409D01*
X31873Y-2077D01*
X32044Y-341D01*
X32033Y0D01*
X32044Y341D01*
X31873Y2077D01*
X31796Y2409D01*
X31740Y2745D01*
X31446Y3716D01*
X31422Y3814D01*
X31399Y3870D01*
X31234Y4415D01*
X31093Y4725D01*
X30973Y5044D01*
X30704Y5547D01*
X30681Y5603D01*
X30628Y5689D01*
X30150Y6583D01*
X29952Y6860D01*
X29772Y7149D01*
X28665Y8498D01*
X28416Y8731D01*
X28183Y8980D01*
X26834Y10087D01*
X26545Y10267D01*
X26268Y10465D01*
X25374Y10943D01*
X25288Y10996D01*
X25232Y11019D01*
X24729Y11288D01*
X24410Y11408D01*
X24100Y11549D01*
X23555Y11714D01*
X23499Y11737D01*
X23401Y11761D01*
X22430Y12055D01*
X22094Y12111D01*
X21762Y12188D01*
X20026Y12359D01*
X19855Y12353D01*
X19685Y12376D01*
D02*
G37*
G36*
X41339Y80262D02*
X39506Y80081D01*
X37743Y79547D01*
X36119Y78678D01*
X34695Y77510D01*
X33526Y76086D01*
X32658Y74462D01*
X32124Y72699D01*
X31943Y70866D01*
X32124Y69033D01*
X32658Y67271D01*
X33526Y65646D01*
X34695Y64222D01*
X36119Y63054D01*
X37743Y62186D01*
X39506Y61651D01*
X41339Y61471D01*
X43172Y61651D01*
X44934Y62186D01*
X46558Y63054D01*
X47982Y64222D01*
X49151Y65646D01*
X50019Y67271D01*
X50554Y69033D01*
X50734Y70866D01*
X50554Y72699D01*
X50019Y74462D01*
X49151Y76086D01*
X47982Y77510D01*
X46558Y78678D01*
X44934Y79547D01*
X43172Y80081D01*
X41339Y80262D01*
D02*
G37*
G36*
X272638Y-68949D02*
X272525Y-68960D01*
X272297Y-68953D01*
X271062Y-69074D01*
X270841Y-69126D01*
X270728Y-69137D01*
X270619Y-69170D01*
X270394Y-69207D01*
X269207Y-69567D01*
X269000Y-69661D01*
X268891Y-69694D01*
X268791Y-69748D01*
X268578Y-69828D01*
X267483Y-70413D01*
X267298Y-70546D01*
X267198Y-70599D01*
X267110Y-70671D01*
X266917Y-70791D01*
X265958Y-71579D01*
X265802Y-71745D01*
X265714Y-71817D01*
X265642Y-71904D01*
X265476Y-72060D01*
X264689Y-73019D01*
X264569Y-73213D01*
X264497Y-73300D01*
X264443Y-73400D01*
X264311Y-73586D01*
X263726Y-74680D01*
X263645Y-74893D01*
X263592Y-74993D01*
X263559Y-75102D01*
X263465Y-75309D01*
X263105Y-76497D01*
X263068Y-76721D01*
X263035Y-76830D01*
X263024Y-76943D01*
X262972Y-77165D01*
X262850Y-78400D01*
X262856Y-78571D01*
X262833Y-78740D01*
X262856Y-78910D01*
X262850Y-79081D01*
X262972Y-80316D01*
X263024Y-80537D01*
X263035Y-80650D01*
X263068Y-80759D01*
X263105Y-80984D01*
X263465Y-82171D01*
X263559Y-82379D01*
X263592Y-82487D01*
X263645Y-82587D01*
X263726Y-82800D01*
X264311Y-83895D01*
X264443Y-84080D01*
X264497Y-84180D01*
X264569Y-84268D01*
X264689Y-84461D01*
X265476Y-85420D01*
X265642Y-85576D01*
X265714Y-85664D01*
X265802Y-85736D01*
X265958Y-85902D01*
X266917Y-86689D01*
X267110Y-86809D01*
X267198Y-86881D01*
X267298Y-86935D01*
X267483Y-87067D01*
X268578Y-87652D01*
X268791Y-87733D01*
X268891Y-87786D01*
X269000Y-87819D01*
X269207Y-87913D01*
X270394Y-88273D01*
X270619Y-88310D01*
X270728Y-88343D01*
X270841Y-88354D01*
X271062Y-88406D01*
X272297Y-88528D01*
X272525Y-88520D01*
X272638Y-88531D01*
X272751Y-88520D01*
X272978Y-88528D01*
X274213Y-88406D01*
X274435Y-88354D01*
X274548Y-88343D01*
X274657Y-88310D01*
X274881Y-88273D01*
X276069Y-87913D01*
X276276Y-87819D01*
X276385Y-87786D01*
X276485Y-87733D01*
X276698Y-87652D01*
X277792Y-87067D01*
X277977Y-86935D01*
X278078Y-86881D01*
X278165Y-86809D01*
X278359Y-86689D01*
X279318Y-85902D01*
X279473Y-85736D01*
X279561Y-85664D01*
X279633Y-85576D01*
X279800Y-85420D01*
X280587Y-84461D01*
X280707Y-84268D01*
X280779Y-84180D01*
X280832Y-84080D01*
X280965Y-83895D01*
X281550Y-82800D01*
X281630Y-82587D01*
X281684Y-82487D01*
X281717Y-82379D01*
X281811Y-82171D01*
X282171Y-80984D01*
X282208Y-80759D01*
X282241Y-80650D01*
X282252Y-80537D01*
X282304Y-80316D01*
X282425Y-79081D01*
X282420Y-78910D01*
X282442Y-78740D01*
X282420Y-78571D01*
X282425Y-78400D01*
X282304Y-77165D01*
X282252Y-76943D01*
X282241Y-76830D01*
X282208Y-76721D01*
X282171Y-76497D01*
X281811Y-75309D01*
X281717Y-75102D01*
X281684Y-74993D01*
X281630Y-74893D01*
X281550Y-74680D01*
X280965Y-73586D01*
X280832Y-73400D01*
X280779Y-73300D01*
X280707Y-73213D01*
X280587Y-73019D01*
X279800Y-72060D01*
X279633Y-71904D01*
X279561Y-71817D01*
X279473Y-71745D01*
X279318Y-71579D01*
X278359Y-70791D01*
X278165Y-70671D01*
X278078Y-70599D01*
X277977Y-70546D01*
X277792Y-70413D01*
X276698Y-69828D01*
X276485Y-69748D01*
X276385Y-69694D01*
X276276Y-69661D01*
X276069Y-69567D01*
X274881Y-69207D01*
X274657Y-69170D01*
X274548Y-69137D01*
X274435Y-69126D01*
X274213Y-69074D01*
X272978Y-68953D01*
X272751Y-68960D01*
X272638Y-68949D01*
D02*
G37*
G36*
X323228Y-29262D02*
X323093Y-29280D01*
X322956Y-29273D01*
X320994Y-29427D01*
X320771Y-29475D01*
X320726Y-29478D01*
X320682Y-29489D01*
X320456Y-29513D01*
X318543Y-29972D01*
X318330Y-30054D01*
X318286Y-30064D01*
X318244Y-30081D01*
X318024Y-30141D01*
X316206Y-30893D01*
X316009Y-31007D01*
X315967Y-31025D01*
X315929Y-31048D01*
X315720Y-31141D01*
X314043Y-32169D01*
X313866Y-32312D01*
X313827Y-32336D01*
X313793Y-32365D01*
X313602Y-32489D01*
X312106Y-33767D01*
X311953Y-33937D01*
X311919Y-33966D01*
X311889Y-34000D01*
X311720Y-34153D01*
X310442Y-35649D01*
X310318Y-35840D01*
X310289Y-35874D01*
X310265Y-35913D01*
X310122Y-36090D01*
X309094Y-37768D01*
X309001Y-37976D01*
X308977Y-38014D01*
X308960Y-38056D01*
X308846Y-38254D01*
X308093Y-40071D01*
X308034Y-40291D01*
X308017Y-40333D01*
X308006Y-40377D01*
X307925Y-40590D01*
X307466Y-42503D01*
X307442Y-42729D01*
X307431Y-42774D01*
X307428Y-42819D01*
X307380Y-43042D01*
X307226Y-45003D01*
X307238Y-45230D01*
X307234Y-45276D01*
X307238Y-45321D01*
X307226Y-45548D01*
X307380Y-47510D01*
X307428Y-47732D01*
X307431Y-47778D01*
X307442Y-47822D01*
X307466Y-48048D01*
X307925Y-49961D01*
X308006Y-50174D01*
X308017Y-50218D01*
X308034Y-50260D01*
X308093Y-50480D01*
X308846Y-52298D01*
X308960Y-52495D01*
X308977Y-52537D01*
X309001Y-52575D01*
X309094Y-52784D01*
X310122Y-54461D01*
X310265Y-54638D01*
X310289Y-54677D01*
X310318Y-54711D01*
X310442Y-54902D01*
X311720Y-56398D01*
X311889Y-56551D01*
X311919Y-56585D01*
X311953Y-56615D01*
X312106Y-56784D01*
X313602Y-58062D01*
X313793Y-58186D01*
X313827Y-58215D01*
X313866Y-58239D01*
X314043Y-58382D01*
X315720Y-59410D01*
X315929Y-59503D01*
X315967Y-59526D01*
X316009Y-59544D01*
X316206Y-59658D01*
X318024Y-60411D01*
X318244Y-60470D01*
X318286Y-60487D01*
X318330Y-60497D01*
X318543Y-60579D01*
X320456Y-61039D01*
X320682Y-61062D01*
X320726Y-61073D01*
X320771Y-61076D01*
X320994Y-61124D01*
X322956Y-61278D01*
X323093Y-61271D01*
X323228Y-61289D01*
X323364Y-61271D01*
X323501Y-61278D01*
X325462Y-61124D01*
X325685Y-61076D01*
X325730Y-61073D01*
X325774Y-61062D01*
X326001Y-61039D01*
X327914Y-60579D01*
X328127Y-60497D01*
X328171Y-60487D01*
X328213Y-60470D01*
X328433Y-60411D01*
X330250Y-59658D01*
X330448Y-59544D01*
X330490Y-59526D01*
X330528Y-59503D01*
X330736Y-59410D01*
X332414Y-58382D01*
X332591Y-58239D01*
X332629Y-58215D01*
X332664Y-58186D01*
X332855Y-58062D01*
X334351Y-56784D01*
X334504Y-56615D01*
X334538Y-56585D01*
X334567Y-56551D01*
X334737Y-56398D01*
X336014Y-54902D01*
X336139Y-54711D01*
X336168Y-54677D01*
X336192Y-54638D01*
X336335Y-54461D01*
X337363Y-52784D01*
X337456Y-52575D01*
X337479Y-52537D01*
X337497Y-52495D01*
X337611Y-52298D01*
X338363Y-50480D01*
X338422Y-50260D01*
X338440Y-50218D01*
X338450Y-50174D01*
X338532Y-49961D01*
X338991Y-48048D01*
X339015Y-47822D01*
X339026Y-47778D01*
X339029Y-47732D01*
X339076Y-47510D01*
X339231Y-45548D01*
X339219Y-45321D01*
X339223Y-45276D01*
X339219Y-45230D01*
X339231Y-45003D01*
X339076Y-43042D01*
X339029Y-42819D01*
X339026Y-42774D01*
X339015Y-42729D01*
X338991Y-42503D01*
X338532Y-40590D01*
X338450Y-40377D01*
X338440Y-40333D01*
X338422Y-40291D01*
X338363Y-40071D01*
X337611Y-38254D01*
X337497Y-38056D01*
X337479Y-38014D01*
X337456Y-37976D01*
X337363Y-37768D01*
X336335Y-36090D01*
X336192Y-35913D01*
X336168Y-35874D01*
X336139Y-35840D01*
X336014Y-35649D01*
X334737Y-34153D01*
X334567Y-34000D01*
X334538Y-33966D01*
X334504Y-33937D01*
X334351Y-33767D01*
X332855Y-32489D01*
X332664Y-32365D01*
X332629Y-32336D01*
X332591Y-32312D01*
X332414Y-32169D01*
X330736Y-31141D01*
X330528Y-31048D01*
X330490Y-31025D01*
X330448Y-31007D01*
X330250Y-30893D01*
X328433Y-30141D01*
X328213Y-30081D01*
X328171Y-30064D01*
X328127Y-30054D01*
X327914Y-29972D01*
X326001Y-29513D01*
X325774Y-29489D01*
X325730Y-29478D01*
X325685Y-29475D01*
X325462Y-29427D01*
X323501Y-29273D01*
X323364Y-29280D01*
X323228Y-29262D01*
D02*
G37*
G36*
Y-96192D02*
X323093Y-96209D01*
X322956Y-96202D01*
X320994Y-96356D01*
X320771Y-96404D01*
X320726Y-96407D01*
X320682Y-96418D01*
X320456Y-96442D01*
X318543Y-96901D01*
X318330Y-96983D01*
X318286Y-96993D01*
X318244Y-97011D01*
X318024Y-97070D01*
X316206Y-97823D01*
X316009Y-97936D01*
X315967Y-97954D01*
X315929Y-97977D01*
X315720Y-98070D01*
X314043Y-99098D01*
X313866Y-99242D01*
X313827Y-99265D01*
X313793Y-99295D01*
X313602Y-99419D01*
X312106Y-100697D01*
X311953Y-100866D01*
X311919Y-100895D01*
X311889Y-100930D01*
X311720Y-101082D01*
X310442Y-102578D01*
X310318Y-102769D01*
X310289Y-102804D01*
X310265Y-102842D01*
X310122Y-103019D01*
X309094Y-104697D01*
X309001Y-104905D01*
X308977Y-104944D01*
X308960Y-104985D01*
X308846Y-105183D01*
X308093Y-107000D01*
X308034Y-107220D01*
X308017Y-107262D01*
X308006Y-107306D01*
X307925Y-107519D01*
X307466Y-109432D01*
X307442Y-109659D01*
X307431Y-109703D01*
X307428Y-109748D01*
X307380Y-109971D01*
X307226Y-111932D01*
X307238Y-112160D01*
X307234Y-112205D01*
X307238Y-112250D01*
X307226Y-112477D01*
X307380Y-114439D01*
X307428Y-114662D01*
X307431Y-114707D01*
X307442Y-114751D01*
X307466Y-114977D01*
X307925Y-116891D01*
X308006Y-117103D01*
X308017Y-117147D01*
X308034Y-117189D01*
X308093Y-117409D01*
X308846Y-119227D01*
X308960Y-119424D01*
X308977Y-119466D01*
X309001Y-119504D01*
X309094Y-119713D01*
X310122Y-121390D01*
X310265Y-121567D01*
X310289Y-121606D01*
X310318Y-121640D01*
X310442Y-121831D01*
X311720Y-123328D01*
X311889Y-123480D01*
X311919Y-123514D01*
X311953Y-123544D01*
X312106Y-123713D01*
X313602Y-124991D01*
X313793Y-125115D01*
X313827Y-125144D01*
X313866Y-125168D01*
X314043Y-125311D01*
X315720Y-126339D01*
X315929Y-126432D01*
X315967Y-126456D01*
X316009Y-126473D01*
X316206Y-126587D01*
X318024Y-127340D01*
X318244Y-127399D01*
X318286Y-127416D01*
X318330Y-127427D01*
X318543Y-127508D01*
X320456Y-127968D01*
X320682Y-127991D01*
X320726Y-128002D01*
X320771Y-128006D01*
X320994Y-128053D01*
X322956Y-128207D01*
X323093Y-128200D01*
X323228Y-128218D01*
X323364Y-128200D01*
X323501Y-128207D01*
X325462Y-128053D01*
X325685Y-128006D01*
X325730Y-128002D01*
X325774Y-127991D01*
X326001Y-127968D01*
X327914Y-127508D01*
X328127Y-127427D01*
X328171Y-127416D01*
X328213Y-127399D01*
X328433Y-127340D01*
X330250Y-126587D01*
X330448Y-126473D01*
X330490Y-126456D01*
X330528Y-126432D01*
X330736Y-126339D01*
X332414Y-125311D01*
X332591Y-125168D01*
X332629Y-125144D01*
X332664Y-125115D01*
X332855Y-124991D01*
X334351Y-123713D01*
X334504Y-123544D01*
X334538Y-123514D01*
X334567Y-123480D01*
X334737Y-123328D01*
X336014Y-121831D01*
X336139Y-121640D01*
X336168Y-121606D01*
X336192Y-121567D01*
X336335Y-121390D01*
X337363Y-119713D01*
X337456Y-119504D01*
X337479Y-119466D01*
X337497Y-119424D01*
X337611Y-119227D01*
X338363Y-117409D01*
X338422Y-117189D01*
X338440Y-117147D01*
X338450Y-117103D01*
X338532Y-116891D01*
X338991Y-114977D01*
X339015Y-114751D01*
X339026Y-114707D01*
X339029Y-114662D01*
X339076Y-114439D01*
X339231Y-112477D01*
X339219Y-112250D01*
X339223Y-112205D01*
X339219Y-112160D01*
X339231Y-111932D01*
X339076Y-109971D01*
X339029Y-109748D01*
X339026Y-109703D01*
X339015Y-109659D01*
X338991Y-109432D01*
X338532Y-107519D01*
X338450Y-107306D01*
X338440Y-107262D01*
X338422Y-107220D01*
X338363Y-107000D01*
X337611Y-105183D01*
X337497Y-104985D01*
X337479Y-104944D01*
X337456Y-104905D01*
X337363Y-104697D01*
X336335Y-103019D01*
X336192Y-102842D01*
X336168Y-102804D01*
X336139Y-102769D01*
X336014Y-102578D01*
X334737Y-101082D01*
X334567Y-100930D01*
X334538Y-100895D01*
X334504Y-100866D01*
X334351Y-100697D01*
X332855Y-99419D01*
X332664Y-99295D01*
X332629Y-99265D01*
X332591Y-99242D01*
X332414Y-99098D01*
X330736Y-98070D01*
X330528Y-97978D01*
X330490Y-97954D01*
X330448Y-97936D01*
X330250Y-97823D01*
X328433Y-97070D01*
X328213Y-97011D01*
X328171Y-96993D01*
X328127Y-96983D01*
X327914Y-96901D01*
X326001Y-96442D01*
X325774Y-96418D01*
X325730Y-96407D01*
X325685Y-96404D01*
X325462Y-96356D01*
X323501Y-96202D01*
X323364Y-96209D01*
X323228Y-96192D01*
D02*
G37*
G36*
X302165Y-145105D02*
X301996Y-145127D01*
X301825Y-145121D01*
X300088Y-145292D01*
X299756Y-145370D01*
X299420Y-145425D01*
X298450Y-145720D01*
X298352Y-145743D01*
X298296Y-145766D01*
X297750Y-145932D01*
X297440Y-146072D01*
X297121Y-146192D01*
X296619Y-146461D01*
X296563Y-146484D01*
X296477Y-146537D01*
X295582Y-147015D01*
X295305Y-147213D01*
X295016Y-147393D01*
X293667Y-148500D01*
X293434Y-148749D01*
X293185Y-148982D01*
X292078Y-150331D01*
X291898Y-150620D01*
X291700Y-150897D01*
X291222Y-151792D01*
X291169Y-151877D01*
X291146Y-151933D01*
X290877Y-152436D01*
X290757Y-152755D01*
X290617Y-153065D01*
X290451Y-153611D01*
X290428Y-153667D01*
X290405Y-153765D01*
X290110Y-154735D01*
X290055Y-155071D01*
X289977Y-155403D01*
X289806Y-157140D01*
X289818Y-157480D01*
X289806Y-157821D01*
X289977Y-159557D01*
X290055Y-159889D01*
X290110Y-160225D01*
X290405Y-161196D01*
X290428Y-161294D01*
X290451Y-161350D01*
X290617Y-161895D01*
X290757Y-162206D01*
X290877Y-162524D01*
X291146Y-163027D01*
X291169Y-163083D01*
X291222Y-163169D01*
X291700Y-164063D01*
X291898Y-164340D01*
X292078Y-164630D01*
X293185Y-165979D01*
X293434Y-166212D01*
X293667Y-166460D01*
X295016Y-167567D01*
X295305Y-167747D01*
X295582Y-167946D01*
X296477Y-168424D01*
X296563Y-168476D01*
X296619Y-168500D01*
X297121Y-168768D01*
X297440Y-168888D01*
X297750Y-169029D01*
X298296Y-169194D01*
X298352Y-169218D01*
X298450Y-169241D01*
X299420Y-169535D01*
X299756Y-169591D01*
X300088Y-169668D01*
X301825Y-169839D01*
X301996Y-169834D01*
X302165Y-169856D01*
X302335Y-169834D01*
X302506Y-169839D01*
X304242Y-169668D01*
X304574Y-169591D01*
X304910Y-169535D01*
X305881Y-169241D01*
X305979Y-169218D01*
X306035Y-169194D01*
X306580Y-169029D01*
X306891Y-168888D01*
X307210Y-168768D01*
X307712Y-168500D01*
X307768Y-168476D01*
X307854Y-168424D01*
X308749Y-167946D01*
X309026Y-167747D01*
X309315Y-167567D01*
X310664Y-166460D01*
X310897Y-166212D01*
X311145Y-165979D01*
X312252Y-164630D01*
X312432Y-164340D01*
X312631Y-164063D01*
X313109Y-163169D01*
X313161Y-163083D01*
X313185Y-163027D01*
X313453Y-162524D01*
X313573Y-162206D01*
X313714Y-161895D01*
X313879Y-161350D01*
X313902Y-161294D01*
X313926Y-161196D01*
X314220Y-160225D01*
X314276Y-159889D01*
X314353Y-159557D01*
X314524Y-157821D01*
X314513Y-157480D01*
X314524Y-157140D01*
X314353Y-155403D01*
X314276Y-155071D01*
X314220Y-154735D01*
X313926Y-153765D01*
X313902Y-153667D01*
X313879Y-153611D01*
X313714Y-153065D01*
X313573Y-152755D01*
X313453Y-152436D01*
X313185Y-151933D01*
X313161Y-151877D01*
X313109Y-151792D01*
X312631Y-150897D01*
X312432Y-150620D01*
X312252Y-150331D01*
X311145Y-148982D01*
X310897Y-148749D01*
X310664Y-148500D01*
X309315Y-147393D01*
X309026Y-147213D01*
X308749Y-147015D01*
X307854Y-146537D01*
X307768Y-146484D01*
X307712Y-146461D01*
X307210Y-146192D01*
X306891Y-146072D01*
X306580Y-145932D01*
X306035Y-145766D01*
X305979Y-145743D01*
X305881Y-145720D01*
X304910Y-145425D01*
X304574Y-145370D01*
X304242Y-145292D01*
X302506Y-145121D01*
X302335Y-145127D01*
X302165Y-145105D01*
D02*
G37*
G36*
X272638Y-128004D02*
X272525Y-128015D01*
X272297Y-128008D01*
X271062Y-128129D01*
X270841Y-128181D01*
X270728Y-128192D01*
X270619Y-128225D01*
X270394Y-128262D01*
X269207Y-128622D01*
X269000Y-128716D01*
X268891Y-128749D01*
X268791Y-128803D01*
X268578Y-128883D01*
X267483Y-129468D01*
X267298Y-129601D01*
X267198Y-129654D01*
X267110Y-129726D01*
X266917Y-129846D01*
X265958Y-130634D01*
X265802Y-130800D01*
X265714Y-130872D01*
X265642Y-130959D01*
X265476Y-131115D01*
X264689Y-132074D01*
X264569Y-132268D01*
X264497Y-132356D01*
X264443Y-132456D01*
X264311Y-132641D01*
X263726Y-133735D01*
X263645Y-133948D01*
X263592Y-134048D01*
X263559Y-134157D01*
X263465Y-134364D01*
X263105Y-135552D01*
X263068Y-135776D01*
X263035Y-135885D01*
X263024Y-135998D01*
X262972Y-136220D01*
X262850Y-137455D01*
X262856Y-137626D01*
X262833Y-137795D01*
X262856Y-137965D01*
X262850Y-138136D01*
X262972Y-139371D01*
X263024Y-139593D01*
X263035Y-139706D01*
X263068Y-139814D01*
X263105Y-140039D01*
X263465Y-141226D01*
X263559Y-141434D01*
X263592Y-141542D01*
X263645Y-141642D01*
X263726Y-141856D01*
X264311Y-142950D01*
X264443Y-143135D01*
X264497Y-143235D01*
X264569Y-143323D01*
X264689Y-143516D01*
X265476Y-144475D01*
X265642Y-144631D01*
X265714Y-144719D01*
X265802Y-144791D01*
X265958Y-144957D01*
X266917Y-145744D01*
X267110Y-145864D01*
X267198Y-145936D01*
X267298Y-145990D01*
X267483Y-146123D01*
X268578Y-146707D01*
X268791Y-146788D01*
X268891Y-146841D01*
X269000Y-146874D01*
X269207Y-146968D01*
X270394Y-147328D01*
X270619Y-147365D01*
X270728Y-147398D01*
X270841Y-147409D01*
X271062Y-147461D01*
X272297Y-147583D01*
X272525Y-147575D01*
X272638Y-147587D01*
X272751Y-147575D01*
X272978Y-147583D01*
X274213Y-147461D01*
X274435Y-147409D01*
X274548Y-147398D01*
X274657Y-147365D01*
X274881Y-147328D01*
X276069Y-146968D01*
X276276Y-146874D01*
X276385Y-146841D01*
X276485Y-146788D01*
X276698Y-146707D01*
X277792Y-146123D01*
X277977Y-145990D01*
X278078Y-145936D01*
X278165Y-145864D01*
X278359Y-145744D01*
X279318Y-144957D01*
X279473Y-144791D01*
X279561Y-144719D01*
X279633Y-144631D01*
X279800Y-144475D01*
X280587Y-143516D01*
X280707Y-143323D01*
X280779Y-143235D01*
X280832Y-143135D01*
X280965Y-142950D01*
X281550Y-141856D01*
X281630Y-141642D01*
X281684Y-141542D01*
X281717Y-141434D01*
X281811Y-141226D01*
X282171Y-140039D01*
X282208Y-139814D01*
X282241Y-139706D01*
X282252Y-139593D01*
X282304Y-139371D01*
X282425Y-138136D01*
X282420Y-137965D01*
X282442Y-137795D01*
X282420Y-137626D01*
X282425Y-137455D01*
X282304Y-136220D01*
X282252Y-135998D01*
X282241Y-135885D01*
X282208Y-135776D01*
X282171Y-135552D01*
X281811Y-134364D01*
X281717Y-134157D01*
X281684Y-134048D01*
X281630Y-133948D01*
X281550Y-133735D01*
X280965Y-132641D01*
X280832Y-132456D01*
X280779Y-132356D01*
X280707Y-132268D01*
X280587Y-132074D01*
X279800Y-131115D01*
X279633Y-130959D01*
X279561Y-130872D01*
X279473Y-130800D01*
X279318Y-130634D01*
X278359Y-129846D01*
X278165Y-129726D01*
X278078Y-129654D01*
X277977Y-129601D01*
X277792Y-129468D01*
X276698Y-128883D01*
X276485Y-128803D01*
X276385Y-128749D01*
X276276Y-128716D01*
X276069Y-128622D01*
X274881Y-128262D01*
X274657Y-128225D01*
X274548Y-128192D01*
X274435Y-128181D01*
X274213Y-128129D01*
X272978Y-128008D01*
X272751Y-128015D01*
X272638Y-128004D01*
D02*
G37*
G36*
Y147587D02*
X272525Y147575D01*
X272297Y147583D01*
X271062Y147461D01*
X270841Y147409D01*
X270728Y147398D01*
X270619Y147365D01*
X270394Y147328D01*
X269207Y146968D01*
X269000Y146874D01*
X268891Y146841D01*
X268791Y146788D01*
X268578Y146707D01*
X267483Y146123D01*
X267298Y145990D01*
X267198Y145936D01*
X267110Y145864D01*
X266917Y145744D01*
X265958Y144957D01*
X265802Y144791D01*
X265714Y144719D01*
X265642Y144631D01*
X265476Y144475D01*
X264689Y143516D01*
X264569Y143323D01*
X264497Y143235D01*
X264443Y143135D01*
X264311Y142950D01*
X263726Y141856D01*
X263645Y141642D01*
X263592Y141542D01*
X263559Y141434D01*
X263465Y141226D01*
X263105Y140039D01*
X263068Y139814D01*
X263035Y139706D01*
X263024Y139593D01*
X262972Y139371D01*
X262850Y138136D01*
X262856Y137965D01*
X262833Y137795D01*
X262856Y137626D01*
X262850Y137455D01*
X262972Y136220D01*
X263024Y135998D01*
X263035Y135885D01*
X263068Y135776D01*
X263105Y135552D01*
X263465Y134364D01*
X263559Y134157D01*
X263592Y134048D01*
X263645Y133948D01*
X263726Y133735D01*
X264311Y132641D01*
X264443Y132456D01*
X264497Y132356D01*
X264569Y132268D01*
X264689Y132074D01*
X265476Y131115D01*
X265642Y130959D01*
X265714Y130872D01*
X265802Y130800D01*
X265958Y130634D01*
X266917Y129846D01*
X267110Y129726D01*
X267198Y129654D01*
X267298Y129601D01*
X267483Y129468D01*
X268578Y128883D01*
X268791Y128803D01*
X268891Y128749D01*
X269000Y128716D01*
X269207Y128622D01*
X270394Y128262D01*
X270619Y128225D01*
X270728Y128192D01*
X270841Y128181D01*
X271062Y128129D01*
X272297Y128008D01*
X272525Y128015D01*
X272638Y128004D01*
X272751Y128015D01*
X272978Y128008D01*
X274213Y128129D01*
X274435Y128181D01*
X274548Y128192D01*
X274657Y128225D01*
X274881Y128262D01*
X276069Y128622D01*
X276276Y128716D01*
X276385Y128749D01*
X276485Y128803D01*
X276698Y128883D01*
X277792Y129468D01*
X277977Y129601D01*
X278078Y129654D01*
X278165Y129726D01*
X278359Y129846D01*
X279318Y130634D01*
X279473Y130800D01*
X279561Y130872D01*
X279633Y130959D01*
X279800Y131115D01*
X280587Y132074D01*
X280707Y132268D01*
X280779Y132356D01*
X280832Y132456D01*
X280965Y132641D01*
X281550Y133735D01*
X281630Y133948D01*
X281684Y134048D01*
X281717Y134157D01*
X281811Y134364D01*
X282171Y135552D01*
X282208Y135776D01*
X282241Y135885D01*
X282252Y135998D01*
X282304Y136220D01*
X282425Y137455D01*
X282420Y137626D01*
X282442Y137795D01*
X282420Y137965D01*
X282425Y138136D01*
X282304Y139371D01*
X282252Y139593D01*
X282241Y139706D01*
X282208Y139814D01*
X282171Y140039D01*
X281811Y141226D01*
X281717Y141434D01*
X281684Y141542D01*
X281630Y141642D01*
X281550Y141856D01*
X280965Y142950D01*
X280832Y143135D01*
X280779Y143235D01*
X280707Y143323D01*
X280587Y143516D01*
X279800Y144475D01*
X279633Y144631D01*
X279561Y144719D01*
X279473Y144791D01*
X279318Y144957D01*
X278359Y145744D01*
X278165Y145864D01*
X278078Y145936D01*
X277977Y145990D01*
X277792Y146123D01*
X276698Y146707D01*
X276485Y146788D01*
X276385Y146841D01*
X276276Y146874D01*
X276069Y146968D01*
X274881Y147328D01*
X274657Y147365D01*
X274548Y147398D01*
X274435Y147409D01*
X274213Y147461D01*
X272978Y147583D01*
X272751Y147575D01*
X272638Y147587D01*
D02*
G37*
G36*
X323228Y128218D02*
X323093Y128200D01*
X322956Y128207D01*
X320994Y128053D01*
X320771Y128006D01*
X320726Y128002D01*
X320682Y127991D01*
X320456Y127968D01*
X318543Y127508D01*
X318330Y127427D01*
X318286Y127416D01*
X318244Y127399D01*
X318024Y127340D01*
X316206Y126587D01*
X316009Y126473D01*
X315967Y126456D01*
X315929Y126432D01*
X315720Y126339D01*
X314043Y125311D01*
X313866Y125168D01*
X313827Y125144D01*
X313793Y125115D01*
X313602Y124991D01*
X312106Y123713D01*
X311953Y123544D01*
X311919Y123514D01*
X311889Y123480D01*
X311720Y123328D01*
X310442Y121831D01*
X310318Y121640D01*
X310289Y121606D01*
X310265Y121567D01*
X310122Y121390D01*
X309094Y119713D01*
X309001Y119504D01*
X308977Y119466D01*
X308960Y119424D01*
X308846Y119227D01*
X308093Y117409D01*
X308034Y117189D01*
X308017Y117147D01*
X308006Y117103D01*
X307925Y116891D01*
X307466Y114977D01*
X307442Y114751D01*
X307431Y114707D01*
X307428Y114662D01*
X307380Y114439D01*
X307226Y112477D01*
X307238Y112250D01*
X307234Y112205D01*
X307238Y112160D01*
X307226Y111932D01*
X307380Y109971D01*
X307428Y109748D01*
X307431Y109703D01*
X307442Y109659D01*
X307466Y109432D01*
X307925Y107519D01*
X308006Y107306D01*
X308017Y107262D01*
X308034Y107220D01*
X308093Y107000D01*
X308846Y105183D01*
X308960Y104985D01*
X308977Y104944D01*
X309001Y104905D01*
X309094Y104697D01*
X310122Y103019D01*
X310265Y102842D01*
X310289Y102804D01*
X310318Y102769D01*
X310442Y102578D01*
X311720Y101082D01*
X311889Y100930D01*
X311919Y100895D01*
X311953Y100866D01*
X312106Y100697D01*
X313602Y99419D01*
X313793Y99295D01*
X313827Y99265D01*
X313866Y99242D01*
X314043Y99098D01*
X315720Y98070D01*
X315929Y97978D01*
X315967Y97954D01*
X316009Y97936D01*
X316206Y97823D01*
X318024Y97070D01*
X318244Y97011D01*
X318286Y96993D01*
X318330Y96983D01*
X318543Y96901D01*
X320456Y96442D01*
X320682Y96418D01*
X320726Y96407D01*
X320771Y96404D01*
X320994Y96356D01*
X322956Y96202D01*
X323093Y96209D01*
X323228Y96192D01*
X323364Y96209D01*
X323501Y96202D01*
X325462Y96356D01*
X325685Y96404D01*
X325730Y96407D01*
X325774Y96418D01*
X326001Y96442D01*
X327914Y96901D01*
X328127Y96983D01*
X328171Y96993D01*
X328213Y97011D01*
X328433Y97070D01*
X330250Y97823D01*
X330448Y97936D01*
X330490Y97954D01*
X330528Y97977D01*
X330736Y98070D01*
X332414Y99098D01*
X332591Y99242D01*
X332629Y99265D01*
X332664Y99295D01*
X332855Y99419D01*
X334351Y100697D01*
X334504Y100866D01*
X334538Y100895D01*
X334567Y100930D01*
X334737Y101082D01*
X336014Y102578D01*
X336139Y102769D01*
X336168Y102804D01*
X336192Y102842D01*
X336335Y103019D01*
X337363Y104697D01*
X337456Y104905D01*
X337479Y104944D01*
X337497Y104985D01*
X337611Y105183D01*
X338363Y107000D01*
X338422Y107220D01*
X338440Y107262D01*
X338450Y107306D01*
X338532Y107519D01*
X338991Y109432D01*
X339015Y109659D01*
X339026Y109703D01*
X339029Y109748D01*
X339076Y109971D01*
X339231Y111932D01*
X339219Y112160D01*
X339223Y112205D01*
X339219Y112250D01*
X339231Y112477D01*
X339076Y114439D01*
X339029Y114662D01*
X339026Y114707D01*
X339015Y114751D01*
X338991Y114977D01*
X338532Y116891D01*
X338450Y117103D01*
X338440Y117147D01*
X338422Y117189D01*
X338363Y117409D01*
X337611Y119227D01*
X337497Y119424D01*
X337479Y119466D01*
X337456Y119504D01*
X337363Y119713D01*
X336335Y121390D01*
X336192Y121567D01*
X336168Y121606D01*
X336139Y121640D01*
X336014Y121831D01*
X334737Y123328D01*
X334567Y123480D01*
X334538Y123514D01*
X334504Y123544D01*
X334351Y123713D01*
X332855Y124991D01*
X332664Y125115D01*
X332629Y125144D01*
X332591Y125168D01*
X332414Y125311D01*
X330736Y126339D01*
X330528Y126432D01*
X330490Y126456D01*
X330448Y126473D01*
X330250Y126587D01*
X328433Y127340D01*
X328213Y127399D01*
X328171Y127416D01*
X328127Y127427D01*
X327914Y127508D01*
X326001Y127968D01*
X325774Y127991D01*
X325730Y128002D01*
X325685Y128006D01*
X325462Y128053D01*
X323501Y128207D01*
X323364Y128200D01*
X323228Y128218D01*
D02*
G37*
G36*
X302165Y169856D02*
X301996Y169834D01*
X301825Y169839D01*
X300088Y169668D01*
X299756Y169591D01*
X299420Y169535D01*
X298450Y169241D01*
X298352Y169218D01*
X298296Y169194D01*
X297750Y169029D01*
X297440Y168888D01*
X297121Y168768D01*
X296619Y168500D01*
X296563Y168476D01*
X296477Y168424D01*
X295582Y167946D01*
X295305Y167747D01*
X295016Y167567D01*
X293667Y166460D01*
X293434Y166212D01*
X293185Y165979D01*
X292078Y164630D01*
X291898Y164340D01*
X291700Y164063D01*
X291222Y163169D01*
X291169Y163083D01*
X291146Y163027D01*
X290877Y162524D01*
X290757Y162206D01*
X290617Y161895D01*
X290451Y161350D01*
X290428Y161294D01*
X290405Y161196D01*
X290110Y160225D01*
X290055Y159889D01*
X289977Y159557D01*
X289806Y157821D01*
X289818Y157480D01*
X289806Y157140D01*
X289977Y155403D01*
X290055Y155071D01*
X290110Y154735D01*
X290405Y153765D01*
X290428Y153667D01*
X290451Y153611D01*
X290617Y153065D01*
X290757Y152755D01*
X290877Y152436D01*
X291146Y151933D01*
X291169Y151877D01*
X291222Y151792D01*
X291700Y150897D01*
X291898Y150620D01*
X292078Y150331D01*
X293185Y148982D01*
X293434Y148749D01*
X293667Y148500D01*
X295016Y147393D01*
X295305Y147213D01*
X295582Y147015D01*
X296477Y146537D01*
X296563Y146484D01*
X296619Y146461D01*
X297121Y146192D01*
X297440Y146072D01*
X297750Y145932D01*
X298296Y145766D01*
X298352Y145743D01*
X298450Y145720D01*
X299420Y145425D01*
X299756Y145370D01*
X300088Y145292D01*
X301825Y145121D01*
X301996Y145127D01*
X302165Y145105D01*
X302335Y145127D01*
X302506Y145121D01*
X304242Y145292D01*
X304574Y145370D01*
X304910Y145425D01*
X305881Y145720D01*
X305979Y145743D01*
X306035Y145766D01*
X306580Y145932D01*
X306891Y146072D01*
X307210Y146192D01*
X307712Y146461D01*
X307768Y146484D01*
X307854Y146537D01*
X308749Y147015D01*
X309026Y147213D01*
X309315Y147393D01*
X310664Y148500D01*
X310897Y148749D01*
X311145Y148982D01*
X312252Y150331D01*
X312432Y150620D01*
X312631Y150897D01*
X313109Y151792D01*
X313161Y151877D01*
X313185Y151933D01*
X313453Y152436D01*
X313573Y152755D01*
X313714Y153065D01*
X313879Y153611D01*
X313902Y153667D01*
X313926Y153765D01*
X314220Y154735D01*
X314276Y155071D01*
X314353Y155403D01*
X314524Y157140D01*
X314513Y157480D01*
X314524Y157821D01*
X314353Y159557D01*
X314276Y159889D01*
X314220Y160225D01*
X313926Y161196D01*
X313902Y161294D01*
X313879Y161350D01*
X313714Y161895D01*
X313573Y162206D01*
X313453Y162524D01*
X313185Y163027D01*
X313161Y163083D01*
X313109Y163169D01*
X312631Y164063D01*
X312432Y164340D01*
X312252Y164630D01*
X311145Y165979D01*
X310897Y166212D01*
X310664Y166460D01*
X309315Y167567D01*
X309026Y167747D01*
X308749Y167946D01*
X307854Y168424D01*
X307768Y168476D01*
X307712Y168500D01*
X307210Y168768D01*
X306891Y168888D01*
X306580Y169029D01*
X306035Y169194D01*
X305979Y169218D01*
X305881Y169241D01*
X304910Y169535D01*
X304574Y169591D01*
X304242Y169668D01*
X302506Y169839D01*
X302335Y169834D01*
X302165Y169856D01*
D02*
G37*
G36*
X272638Y88531D02*
X272525Y88520D01*
X272297Y88528D01*
X271062Y88406D01*
X270841Y88354D01*
X270728Y88343D01*
X270619Y88310D01*
X270394Y88273D01*
X269207Y87913D01*
X269000Y87819D01*
X268891Y87786D01*
X268791Y87733D01*
X268578Y87652D01*
X267483Y87067D01*
X267298Y86935D01*
X267198Y86881D01*
X267110Y86809D01*
X266917Y86689D01*
X265958Y85902D01*
X265802Y85736D01*
X265714Y85664D01*
X265642Y85576D01*
X265476Y85420D01*
X264689Y84461D01*
X264569Y84268D01*
X264497Y84180D01*
X264443Y84080D01*
X264311Y83895D01*
X263726Y82800D01*
X263645Y82587D01*
X263592Y82487D01*
X263559Y82378D01*
X263465Y82171D01*
X263105Y80984D01*
X263068Y80759D01*
X263035Y80650D01*
X263024Y80537D01*
X262972Y80316D01*
X262850Y79081D01*
X262856Y78910D01*
X262833Y78740D01*
X262856Y78571D01*
X262850Y78400D01*
X262972Y77165D01*
X263024Y76943D01*
X263035Y76830D01*
X263068Y76721D01*
X263105Y76497D01*
X263465Y75309D01*
X263559Y75102D01*
X263592Y74993D01*
X263645Y74893D01*
X263726Y74680D01*
X264311Y73586D01*
X264443Y73400D01*
X264497Y73300D01*
X264569Y73213D01*
X264689Y73019D01*
X265476Y72060D01*
X265642Y71904D01*
X265714Y71817D01*
X265802Y71745D01*
X265958Y71579D01*
X266917Y70791D01*
X267110Y70671D01*
X267198Y70599D01*
X267298Y70546D01*
X267483Y70413D01*
X268578Y69828D01*
X268791Y69748D01*
X268891Y69694D01*
X269000Y69661D01*
X269207Y69567D01*
X270394Y69207D01*
X270619Y69170D01*
X270728Y69137D01*
X270841Y69126D01*
X271062Y69074D01*
X272297Y68953D01*
X272525Y68960D01*
X272638Y68949D01*
X272751Y68960D01*
X272978Y68953D01*
X274213Y69074D01*
X274435Y69126D01*
X274548Y69137D01*
X274657Y69170D01*
X274881Y69207D01*
X276069Y69567D01*
X276276Y69661D01*
X276385Y69694D01*
X276485Y69748D01*
X276698Y69828D01*
X277792Y70413D01*
X277977Y70546D01*
X278078Y70599D01*
X278165Y70671D01*
X278359Y70791D01*
X279318Y71579D01*
X279473Y71745D01*
X279561Y71817D01*
X279633Y71904D01*
X279800Y72060D01*
X280587Y73019D01*
X280707Y73213D01*
X280779Y73300D01*
X280832Y73400D01*
X280965Y73586D01*
X281550Y74680D01*
X281630Y74893D01*
X281684Y74993D01*
X281717Y75102D01*
X281811Y75309D01*
X282171Y76497D01*
X282208Y76721D01*
X282241Y76830D01*
X282252Y76943D01*
X282304Y77165D01*
X282425Y78400D01*
X282420Y78571D01*
X282442Y78740D01*
X282420Y78910D01*
X282425Y79081D01*
X282304Y80316D01*
X282252Y80537D01*
X282241Y80650D01*
X282208Y80759D01*
X282171Y80984D01*
X281811Y82171D01*
X281717Y82379D01*
X281684Y82487D01*
X281630Y82587D01*
X281550Y82800D01*
X280965Y83895D01*
X280832Y84080D01*
X280779Y84180D01*
X280707Y84268D01*
X280587Y84461D01*
X279800Y85420D01*
X279633Y85576D01*
X279561Y85664D01*
X279473Y85736D01*
X279318Y85902D01*
X278359Y86689D01*
X278165Y86809D01*
X278078Y86881D01*
X277977Y86935D01*
X277792Y87067D01*
X276698Y87652D01*
X276485Y87733D01*
X276385Y87786D01*
X276276Y87819D01*
X276069Y87913D01*
X274881Y88273D01*
X274657Y88310D01*
X274548Y88343D01*
X274435Y88354D01*
X274213Y88406D01*
X272978Y88528D01*
X272751Y88520D01*
X272638Y88531D01*
D02*
G37*
G36*
X302165Y12376D02*
X301996Y12353D01*
X301825Y12359D01*
X300088Y12188D01*
X299756Y12111D01*
X299420Y12055D01*
X298450Y11761D01*
X298352Y11737D01*
X298296Y11714D01*
X297750Y11549D01*
X297440Y11408D01*
X297121Y11288D01*
X296619Y11019D01*
X296563Y10996D01*
X296477Y10943D01*
X295582Y10465D01*
X295305Y10267D01*
X295016Y10087D01*
X293667Y8980D01*
X293434Y8731D01*
X293185Y8498D01*
X292078Y7149D01*
X291898Y6860D01*
X291700Y6583D01*
X291222Y5689D01*
X291169Y5603D01*
X291146Y5547D01*
X290877Y5044D01*
X290757Y4725D01*
X290617Y4415D01*
X290451Y3870D01*
X290428Y3814D01*
X290405Y3716D01*
X290110Y2745D01*
X290055Y2409D01*
X289977Y2077D01*
X289806Y341D01*
X289818Y0D01*
X289806Y-341D01*
X289977Y-2077D01*
X290055Y-2409D01*
X290110Y-2745D01*
X290405Y-3716D01*
X290428Y-3814D01*
X290451Y-3870D01*
X290617Y-4415D01*
X290757Y-4725D01*
X290877Y-5044D01*
X291146Y-5547D01*
X291169Y-5603D01*
X291222Y-5689D01*
X291700Y-6583D01*
X291898Y-6860D01*
X292078Y-7149D01*
X293185Y-8498D01*
X293434Y-8731D01*
X293667Y-8980D01*
X295016Y-10087D01*
X295305Y-10267D01*
X295582Y-10465D01*
X296477Y-10943D01*
X296563Y-10996D01*
X296619Y-11019D01*
X297121Y-11288D01*
X297440Y-11408D01*
X297750Y-11549D01*
X298296Y-11714D01*
X298352Y-11737D01*
X298450Y-11761D01*
X299420Y-12055D01*
X299756Y-12111D01*
X300088Y-12188D01*
X301825Y-12359D01*
X301996Y-12353D01*
X302165Y-12376D01*
X302335Y-12353D01*
X302506Y-12359D01*
X304242Y-12188D01*
X304574Y-12111D01*
X304910Y-12055D01*
X305881Y-11761D01*
X305979Y-11737D01*
X306035Y-11714D01*
X306580Y-11549D01*
X306891Y-11408D01*
X307210Y-11288D01*
X307712Y-11019D01*
X307768Y-10996D01*
X307854Y-10943D01*
X308749Y-10465D01*
X309026Y-10267D01*
X309315Y-10087D01*
X310664Y-8980D01*
X310897Y-8731D01*
X311145Y-8498D01*
X312252Y-7149D01*
X312432Y-6860D01*
X312631Y-6583D01*
X313109Y-5689D01*
X313161Y-5603D01*
X313185Y-5547D01*
X313453Y-5044D01*
X313573Y-4725D01*
X313714Y-4415D01*
X313879Y-3870D01*
X313902Y-3814D01*
X313926Y-3716D01*
X314220Y-2745D01*
X314276Y-2409D01*
X314353Y-2077D01*
X314524Y-341D01*
X314513Y0D01*
X314524Y341D01*
X314353Y2077D01*
X314276Y2409D01*
X314220Y2745D01*
X313926Y3716D01*
X313902Y3814D01*
X313879Y3870D01*
X313714Y4415D01*
X313573Y4725D01*
X313453Y5044D01*
X313185Y5547D01*
X313161Y5603D01*
X313109Y5689D01*
X312631Y6583D01*
X312432Y6860D01*
X312252Y7149D01*
X311145Y8498D01*
X310897Y8731D01*
X310664Y8980D01*
X309315Y10087D01*
X309026Y10267D01*
X308749Y10465D01*
X307854Y10943D01*
X307768Y10996D01*
X307712Y11019D01*
X307210Y11288D01*
X306891Y11408D01*
X306580Y11549D01*
X306035Y11714D01*
X305979Y11737D01*
X305881Y11761D01*
X304910Y12055D01*
X304574Y12111D01*
X304242Y12188D01*
X302506Y12359D01*
X302335Y12353D01*
X302165Y12376D01*
D02*
G37*
G36*
X323228Y61289D02*
X323093Y61271D01*
X322956Y61278D01*
X320994Y61124D01*
X320771Y61076D01*
X320726Y61073D01*
X320682Y61062D01*
X320456Y61039D01*
X318543Y60579D01*
X318330Y60497D01*
X318286Y60487D01*
X318244Y60470D01*
X318024Y60411D01*
X316206Y59658D01*
X316009Y59544D01*
X315967Y59526D01*
X315929Y59503D01*
X315720Y59410D01*
X314043Y58382D01*
X313866Y58239D01*
X313827Y58215D01*
X313793Y58186D01*
X313602Y58062D01*
X312106Y56784D01*
X311953Y56615D01*
X311919Y56585D01*
X311889Y56551D01*
X311720Y56398D01*
X310442Y54902D01*
X310318Y54711D01*
X310289Y54677D01*
X310265Y54638D01*
X310122Y54461D01*
X309094Y52784D01*
X309001Y52575D01*
X308977Y52537D01*
X308960Y52495D01*
X308846Y52298D01*
X308093Y50480D01*
X308034Y50260D01*
X308017Y50218D01*
X308006Y50174D01*
X307925Y49961D01*
X307466Y48048D01*
X307442Y47822D01*
X307431Y47778D01*
X307428Y47732D01*
X307380Y47510D01*
X307226Y45548D01*
X307238Y45321D01*
X307234Y45276D01*
X307238Y45230D01*
X307226Y45003D01*
X307380Y43042D01*
X307428Y42819D01*
X307431Y42774D01*
X307442Y42729D01*
X307466Y42503D01*
X307925Y40590D01*
X308006Y40377D01*
X308017Y40333D01*
X308034Y40291D01*
X308093Y40071D01*
X308846Y38254D01*
X308960Y38056D01*
X308977Y38014D01*
X309001Y37976D01*
X309094Y37768D01*
X310122Y36090D01*
X310265Y35913D01*
X310289Y35875D01*
X310318Y35840D01*
X310442Y35649D01*
X311720Y34153D01*
X311889Y34001D01*
X311919Y33966D01*
X311953Y33937D01*
X312106Y33767D01*
X313602Y32489D01*
X313793Y32365D01*
X313827Y32336D01*
X313866Y32312D01*
X314043Y32169D01*
X315720Y31141D01*
X315929Y31048D01*
X315967Y31025D01*
X316009Y31007D01*
X316206Y30893D01*
X318024Y30141D01*
X318244Y30082D01*
X318286Y30064D01*
X318330Y30054D01*
X318543Y29972D01*
X320456Y29513D01*
X320682Y29489D01*
X320726Y29478D01*
X320771Y29475D01*
X320994Y29427D01*
X322956Y29273D01*
X323093Y29280D01*
X323228Y29262D01*
X323364Y29280D01*
X323501Y29273D01*
X325462Y29427D01*
X325685Y29475D01*
X325730Y29478D01*
X325774Y29489D01*
X326001Y29513D01*
X327914Y29972D01*
X328127Y30054D01*
X328171Y30064D01*
X328213Y30082D01*
X328433Y30141D01*
X330250Y30893D01*
X330448Y31007D01*
X330490Y31025D01*
X330528Y31048D01*
X330736Y31141D01*
X332414Y32169D01*
X332591Y32312D01*
X332629Y32336D01*
X332664Y32365D01*
X332855Y32489D01*
X334351Y33767D01*
X334504Y33937D01*
X334538Y33966D01*
X334567Y34000D01*
X334737Y34153D01*
X336014Y35649D01*
X336139Y35840D01*
X336168Y35875D01*
X336192Y35913D01*
X336335Y36090D01*
X337363Y37768D01*
X337456Y37976D01*
X337479Y38014D01*
X337497Y38056D01*
X337611Y38254D01*
X338363Y40071D01*
X338422Y40291D01*
X338440Y40333D01*
X338450Y40377D01*
X338532Y40590D01*
X338991Y42503D01*
X339015Y42729D01*
X339026Y42774D01*
X339029Y42819D01*
X339076Y43042D01*
X339231Y45003D01*
X339219Y45230D01*
X339223Y45276D01*
X339219Y45321D01*
X339231Y45548D01*
X339076Y47510D01*
X339029Y47732D01*
X339026Y47778D01*
X339015Y47822D01*
X338991Y48048D01*
X338532Y49961D01*
X338450Y50174D01*
X338440Y50218D01*
X338422Y50260D01*
X338363Y50480D01*
X337611Y52298D01*
X337497Y52495D01*
X337479Y52537D01*
X337456Y52575D01*
X337363Y52784D01*
X336335Y54461D01*
X336192Y54638D01*
X336168Y54677D01*
X336139Y54711D01*
X336014Y54902D01*
X334737Y56398D01*
X334567Y56551D01*
X334538Y56585D01*
X334504Y56615D01*
X334351Y56784D01*
X332855Y58062D01*
X332664Y58186D01*
X332629Y58215D01*
X332591Y58239D01*
X332414Y58382D01*
X330736Y59410D01*
X330528Y59503D01*
X330490Y59526D01*
X330448Y59544D01*
X330250Y59658D01*
X328433Y60411D01*
X328213Y60470D01*
X328171Y60487D01*
X328127Y60497D01*
X327914Y60579D01*
X326001Y61039D01*
X325774Y61062D01*
X325730Y61073D01*
X325685Y61076D01*
X325462Y61124D01*
X323501Y61278D01*
X323364Y61271D01*
X323228Y61289D01*
D02*
G37*
%LPD*%
D10*
X166339Y-157480D02*
G03*
X166339Y-157480I-6890J0D01*
G01*
X250935Y-40404D02*
G03*
X250935Y-50147I-4872J-4872D01*
G01*
Y117077D02*
G03*
X250935Y107333I-4872J-4872D01*
G01*
X241191Y85876D02*
G03*
X241191Y95620I4872J4872D01*
G01*
Y18947D02*
G03*
X241191Y28691I4872J4872D01*
G01*
X252953Y112205D02*
G03*
X252953Y112205I-6890J0D01*
G01*
Y45276D02*
G03*
X252953Y45276I-6890J0D01*
G01*
Y-45276D02*
G03*
X252953Y-45276I-6890J0D01*
G01*
Y-112205D02*
G03*
X252953Y-112205I-6890J0D01*
G01*
X241191Y-138533D02*
G03*
X241191Y-128790I4872J4872D01*
G01*
Y-71604D02*
G03*
X241191Y-61861I4872J4872D01*
G01*
X166339Y-9843D02*
G03*
X166339Y-9843I-6890J0D01*
G01*
Y-118110D02*
G03*
X166339Y-118110I-6890J0D01*
G01*
X199803Y-19882D02*
X200000Y-19685D01*
X192913Y-7677D02*
X199803D01*
X227362Y31496D02*
Y47047D01*
X227165Y47244D02*
X227362Y47047D01*
X227165Y47244D02*
Y53937D01*
X230217Y56988D01*
Y62992D01*
X206791Y56988D02*
Y62992D01*
Y56988D02*
X209842Y53937D01*
Y47244D02*
Y53937D01*
Y114370D02*
Y121063D01*
X230217Y133661D02*
X246063D01*
X227165Y121063D02*
X230217Y124114D01*
X227165Y114370D02*
Y121063D01*
X227362Y98622D02*
Y114173D01*
X217520Y90748D02*
X246063D01*
X209842Y-43110D02*
Y-36417D01*
X206791Y-33366D02*
X209842Y-36417D01*
X227165D02*
X230217Y-33366D01*
X227165Y-43110D02*
Y-36417D01*
X227362Y-58858D02*
Y-43307D01*
X209842Y-110039D02*
Y-103347D01*
X206791Y-100295D02*
X209842Y-103347D01*
X230217Y-90748D02*
X246063D01*
X227165Y-103347D02*
X230217Y-100295D01*
X227165Y-110039D02*
Y-103347D01*
X227362Y-125787D02*
Y-110236D01*
X206791Y124114D02*
X209842Y121063D01*
X230413Y66732D02*
X246063D01*
X230217Y66929D02*
X230413Y66732D01*
X230217Y62992D02*
Y66929D01*
X209646Y31496D02*
X217323Y23819D01*
X246063D01*
X217520Y-133661D02*
X246063D01*
X230217Y-23819D02*
X246063D01*
X217520Y-66732D02*
X246063D01*
X227165Y-43110D02*
X227362Y-43307D01*
X230217Y-33366D02*
Y-23819D01*
Y-11614D01*
X227165Y114370D02*
X227362Y114173D01*
X230217Y124114D02*
Y133661D01*
Y145866D01*
X227165Y-110039D02*
X227362Y-110236D01*
X230217Y-100295D02*
Y-90748D01*
Y-78543D01*
Y66929D02*
Y78740D01*
X206791Y124114D02*
Y145866D01*
X200000Y-19685D02*
X206791D01*
Y-33366D02*
Y-19685D01*
Y-100295D02*
Y-78543D01*
Y62992D02*
Y72638D01*
X209646Y98622D02*
X217520Y90748D01*
X209646Y-125787D02*
X217520Y-133661D01*
X209646Y-58858D02*
X217520Y-66732D01*
D11*
X230217Y62992D02*
D03*
X206791D02*
D03*
X230217Y-94488D02*
D03*
X206791D02*
D03*
X230217Y-78740D02*
D03*
X206791D02*
D03*
X230217Y-27559D02*
D03*
X206791D02*
D03*
X230217Y-11811D02*
D03*
X206791D02*
D03*
X230217Y78740D02*
D03*
X206791D02*
D03*
X230118Y129921D02*
D03*
X206693D02*
D03*
X230217Y145669D02*
D03*
X206791D02*
D03*
D12*
X227362Y31496D02*
D03*
X209646D02*
D03*
X227362Y-125984D02*
D03*
X209646D02*
D03*
X227362Y-59055D02*
D03*
X209646D02*
D03*
X227362Y98425D02*
D03*
X209646D02*
D03*
D13*
X227165Y47244D02*
D03*
X209842D02*
D03*
Y-110236D02*
D03*
X227165D02*
D03*
Y-43307D02*
D03*
X209842D02*
D03*
Y114173D02*
D03*
X227165D02*
D03*
D14*
X192913Y-38583D02*
D03*
Y-26378D02*
D03*
X199803Y-19882D02*
D03*
Y-7677D02*
D03*
X191969Y104527D02*
D03*
Y92323D02*
D03*
X196850Y72638D02*
D03*
Y84842D02*
D03*
D15*
X186208Y-32480D02*
X200181D01*
X174291Y98425D02*
X209646D01*
D16*
X200181Y-49591D02*
Y-32480D01*
Y-49591D02*
X209646Y-59055D01*
X164291Y20465D02*
X186008Y-1251D01*
X164291Y20465D02*
Y23898D01*
X186008Y-67898D02*
Y-1251D01*
Y-67898D02*
X200181Y-82071D01*
Y-116520D02*
Y-82071D01*
X192913Y-64862D02*
X206594Y-78543D01*
X200181Y-116520D02*
X209646Y-125984D01*
X192342Y104902D02*
X201614Y114173D01*
X209842D01*
X192913Y-22638D02*
Y-7677D01*
Y1609D01*
X174291Y98425D02*
Y103898D01*
Y93898D02*
Y98425D01*
X174291Y98425D01*
X192913Y-64862D02*
Y-42323D01*
X174291Y103898D02*
Y113898D01*
X164291Y33898D02*
Y43898D01*
X174291Y33898D02*
Y43898D01*
Y20231D02*
Y21774D01*
X164291Y103898D02*
Y113898D01*
Y43898D02*
Y53898D01*
Y23898D02*
Y33898D01*
X174291Y43898D02*
Y53898D01*
Y23898D02*
Y33898D01*
X164291Y83898D02*
Y93898D01*
Y103898D01*
X209213Y97992D02*
X209646Y98425D01*
X209318Y114894D02*
X209842Y114370D01*
X174291Y83898D02*
Y93898D01*
Y20231D02*
X192913Y1609D01*
X181394Y86605D02*
X183157Y84842D01*
X174291Y83898D02*
X174336D01*
X200181Y40961D02*
Y58052D01*
X174336Y83898D02*
X200181Y58052D01*
Y40961D02*
X209646Y31496D01*
X183157Y84842D02*
X191929D01*
X196850D01*
X206594Y-78543D02*
X206791D01*
X200787Y72638D02*
X206791D01*
X181197Y87036D02*
X181394Y86839D01*
X181197Y87036D02*
Y90551D01*
X191929Y84842D02*
Y92012D01*
X181394Y86605D02*
Y86839D01*
X191929Y92012D02*
X191969D01*
D17*
X0Y177165D02*
X393701D01*
Y-177165D02*
Y177165D01*
X0Y-177165D02*
Y177165D01*
Y-177165D02*
X393701D01*
D18*
X80709Y-70866D02*
D03*
Y70866D02*
D03*
D19*
X41339Y-70866D02*
D03*
X246063Y23819D02*
D03*
Y45276D02*
D03*
Y-66732D02*
D03*
Y-45276D02*
D03*
X159449Y-118110D02*
D03*
Y-9843D02*
D03*
Y-157480D02*
D03*
X246063Y-112205D02*
D03*
Y-133661D02*
D03*
Y90748D02*
D03*
Y112205D02*
D03*
Y45276D02*
D03*
Y23819D02*
D03*
Y-133661D02*
D03*
Y-112205D02*
D03*
Y-66732D02*
D03*
Y-45276D02*
D03*
Y90748D02*
D03*
Y112205D02*
D03*
X41339Y70866D02*
D03*
X135827Y98425D02*
D03*
Y49213D02*
D03*
Y68898D02*
D03*
Y9843D02*
D03*
D03*
Y68898D02*
D03*
D20*
X246063Y66732D02*
D03*
Y-23819D02*
D03*
Y-90748D02*
D03*
Y133661D02*
D03*
Y66732D02*
D03*
Y-90748D02*
D03*
Y-23819D02*
D03*
Y133661D02*
D03*
D21*
X164291Y113898D02*
D03*
X174291D02*
D03*
X164291Y103898D02*
D03*
X174291D02*
D03*
X164291Y93898D02*
D03*
X174291D02*
D03*
X164291Y83898D02*
D03*
X174291D02*
D03*
X164291Y73898D02*
D03*
X174291D02*
D03*
X164291Y63898D02*
D03*
X174291D02*
D03*
X164291Y53898D02*
D03*
X174291D02*
D03*
X164291Y43898D02*
D03*
X174291D02*
D03*
X164291Y33898D02*
D03*
X174291D02*
D03*
X164291Y23898D02*
D03*
D22*
X174291D02*
D03*
D23*
X272638Y-137795D02*
D03*
Y-78740D02*
D03*
Y78740D02*
D03*
Y137795D02*
D03*
D24*
X225886Y-19685D02*
D03*
X211122D02*
D03*
Y-86614D02*
D03*
X225886D02*
D03*
Y137795D02*
D03*
X211122D02*
D03*
X211122Y70866D02*
D03*
X225886D02*
D03*
D25*
X19685Y157480D02*
D03*
X19685Y-157480D02*
D03*
X59055Y157480D02*
D03*
X19685Y98425D02*
D03*
X59055Y-157480D02*
D03*
X19685Y-98425D02*
D03*
X59055D02*
D03*
X59055Y98425D02*
D03*
X374016Y-118110D02*
D03*
Y0D02*
D03*
Y118110D02*
D03*
X206693Y-157480D02*
D03*
X177165Y157480D02*
D03*
X137795D02*
D03*
Y-157480D02*
D03*
D26*
X374016D02*
D03*
X302165Y-157480D02*
D03*
X374016Y157480D02*
D03*
X302165Y157480D02*
D03*
Y0D02*
D03*
X98425Y157480D02*
D03*
X98425Y-157480D02*
D03*
X19685Y0D02*
D03*
D27*
X323228Y112205D02*
D03*
Y45276D02*
D03*
Y-45276D02*
D03*
Y-112205D02*
D03*
D28*
X181102Y86614D02*
D03*
X164321Y-152609D02*
D03*
X159449Y-164370D02*
D03*
X154577Y-152609D02*
D03*
X159449Y-150591D02*
D03*
X166339Y-157480D02*
D03*
X164321Y-162352D02*
D03*
X154577D02*
D03*
Y-122982D02*
D03*
X152559Y-118110D02*
D03*
X164321Y-122982D02*
D03*
X166339Y-118110D02*
D03*
X159449Y-111221D02*
D03*
X181102Y90551D02*
D03*
X241191Y-71604D02*
D03*
Y-61861D02*
D03*
X250935Y-71604D02*
D03*
Y-61861D02*
D03*
X252953Y-66732D02*
D03*
X246063Y-59842D02*
D03*
Y-73622D02*
D03*
Y-140551D02*
D03*
Y-126772D02*
D03*
X252953Y-133661D02*
D03*
X250935Y-128790D02*
D03*
Y-138533D02*
D03*
X241191Y-128790D02*
D03*
Y-138533D02*
D03*
X252953Y-112205D02*
D03*
X250935Y-107333D02*
D03*
Y-117077D02*
D03*
X241191D02*
D03*
X246063Y-105315D02*
D03*
Y-119095D02*
D03*
X239173Y-112205D02*
D03*
X241191Y-107333D02*
D03*
Y-40404D02*
D03*
X239173Y-45276D02*
D03*
X246063Y-52165D02*
D03*
Y-38386D02*
D03*
X241191Y-50147D02*
D03*
X250935D02*
D03*
Y-40404D02*
D03*
X252953Y-45276D02*
D03*
X241191Y50147D02*
D03*
X239173Y45276D02*
D03*
X246063Y38386D02*
D03*
Y52165D02*
D03*
X241191Y40404D02*
D03*
X250935D02*
D03*
Y50147D02*
D03*
X252953Y45276D02*
D03*
X241191Y117077D02*
D03*
X239173Y112205D02*
D03*
X246063Y105315D02*
D03*
Y119095D02*
D03*
X241191Y107333D02*
D03*
X250935D02*
D03*
Y117077D02*
D03*
X252953Y112205D02*
D03*
X241191Y18947D02*
D03*
Y28691D02*
D03*
X250935Y18947D02*
D03*
Y28691D02*
D03*
X252953Y23819D02*
D03*
X246063Y30709D02*
D03*
Y16929D02*
D03*
X241191Y85876D02*
D03*
Y95620D02*
D03*
X250935Y85876D02*
D03*
Y95620D02*
D03*
X252953Y90748D02*
D03*
X246063Y97638D02*
D03*
Y83858D02*
D03*
X154577Y-4971D02*
D03*
X152559Y-9843D02*
D03*
X159449Y-16732D02*
D03*
Y-2953D02*
D03*
X154577Y-14714D02*
D03*
X164321D02*
D03*
Y-4971D02*
D03*
X166339Y-9843D02*
D03*
X154577Y-113238D02*
D03*
X159449Y-125000D02*
D03*
X164321Y-113238D02*
D03*
X26575Y-86492D02*
D03*
X33465Y-98425D02*
D03*
X31618Y-91535D02*
D03*
Y-105315D02*
D03*
X19685Y-112205D02*
D03*
X26575Y-110359D02*
D03*
X12795D02*
D03*
X5906Y-98425D02*
D03*
X7752Y-105315D02*
D03*
X12795Y-86492D02*
D03*
X19685Y-84646D02*
D03*
X7752Y-91535D02*
D03*
X65945Y-86492D02*
D03*
X72835Y-98425D02*
D03*
X70989Y-91535D02*
D03*
Y-105315D02*
D03*
X59055Y-112205D02*
D03*
X65945Y-110359D02*
D03*
X52165D02*
D03*
X45276Y-98425D02*
D03*
X47122Y-105315D02*
D03*
X52165Y-86492D02*
D03*
X59055Y-84646D02*
D03*
X47122Y-91535D02*
D03*
X65945Y-145547D02*
D03*
X72835Y-157480D02*
D03*
X70989Y-150591D02*
D03*
Y-164370D02*
D03*
X59055Y-171260D02*
D03*
X65945Y-169414D02*
D03*
X52165D02*
D03*
X45276Y-157480D02*
D03*
X47122Y-164370D02*
D03*
X52165Y-145547D02*
D03*
X59055Y-143701D02*
D03*
X47122Y-150591D02*
D03*
X26575Y-145547D02*
D03*
X33465Y-157480D02*
D03*
X31618Y-150591D02*
D03*
Y-164370D02*
D03*
X19685Y-171260D02*
D03*
X26575Y-169414D02*
D03*
X12795D02*
D03*
X5906Y-157480D02*
D03*
X7752Y-164370D02*
D03*
X12795Y-145547D02*
D03*
X19685Y-143701D02*
D03*
X7752Y-150591D02*
D03*
X65945Y110359D02*
D03*
X72835Y98425D02*
D03*
X70989Y105315D02*
D03*
Y91535D02*
D03*
X59055Y84646D02*
D03*
X65945Y86492D02*
D03*
X52165D02*
D03*
X45276Y98425D02*
D03*
X47122Y91535D02*
D03*
X52165Y110359D02*
D03*
X59055Y112205D02*
D03*
X47122Y105315D02*
D03*
X26575Y110359D02*
D03*
X33465Y98425D02*
D03*
X31618Y105315D02*
D03*
Y91535D02*
D03*
X19685Y84646D02*
D03*
X26575Y86492D02*
D03*
X12795D02*
D03*
X5906Y98425D02*
D03*
X7752Y91535D02*
D03*
X12795Y110359D02*
D03*
X19685Y112205D02*
D03*
X7752Y105315D02*
D03*
X65945Y169414D02*
D03*
X72835Y157480D02*
D03*
X70989Y164370D02*
D03*
Y150591D02*
D03*
X59055Y143701D02*
D03*
X65945Y145547D02*
D03*
X52165D02*
D03*
X45276Y157480D02*
D03*
X47122Y150591D02*
D03*
X52165Y169414D02*
D03*
X59055Y171260D02*
D03*
X47122Y164370D02*
D03*
X26575Y169414D02*
D03*
X33465Y157480D02*
D03*
X31618Y164370D02*
D03*
Y150591D02*
D03*
X19685Y143701D02*
D03*
X26575Y145547D02*
D03*
X12795D02*
D03*
X5906Y157480D02*
D03*
X7752Y150591D02*
D03*
X12795Y169414D02*
D03*
X19685Y171260D02*
D03*
X7752Y164370D02*
D03*
X380906Y-106177D02*
D03*
X387795Y-118110D02*
D03*
X385949Y-111221D02*
D03*
Y-125000D02*
D03*
X374016Y-131890D02*
D03*
X380906Y-130044D02*
D03*
X367126D02*
D03*
X360236Y-118110D02*
D03*
X362082Y-125000D02*
D03*
X367126Y-106177D02*
D03*
X374016Y-104331D02*
D03*
X362082Y-111221D02*
D03*
X380906Y11933D02*
D03*
X387795Y0D02*
D03*
X385949Y6890D02*
D03*
Y-6890D02*
D03*
X374016Y-13780D02*
D03*
X380906Y-11933D02*
D03*
X367126D02*
D03*
X360236Y0D02*
D03*
X362082Y-6890D02*
D03*
X367126Y11933D02*
D03*
X374016Y13780D02*
D03*
X362082Y6890D02*
D03*
Y125000D02*
D03*
X374016Y131890D02*
D03*
X367126Y130044D02*
D03*
X362082Y111221D02*
D03*
X360236Y118110D02*
D03*
X367126Y106177D02*
D03*
X380906D02*
D03*
X374016Y104331D02*
D03*
X385949Y111221D02*
D03*
Y125000D02*
D03*
X387795Y118110D02*
D03*
X380906Y130044D02*
D03*
X194760Y-150591D02*
D03*
X206693Y-143701D02*
D03*
X199803Y-145547D02*
D03*
X194760Y-164370D02*
D03*
X192913Y-157480D02*
D03*
X199803Y-169414D02*
D03*
X213583D02*
D03*
X206693Y-171260D02*
D03*
X218626Y-164370D02*
D03*
Y-150591D02*
D03*
X220472Y-157480D02*
D03*
X213583Y-145547D02*
D03*
X165232Y164370D02*
D03*
X177165Y171260D02*
D03*
X170276Y169414D02*
D03*
X165232Y150591D02*
D03*
X163386Y157480D02*
D03*
X170276Y145547D02*
D03*
X184055D02*
D03*
X177165Y143701D02*
D03*
X189099Y150591D02*
D03*
Y164370D02*
D03*
X190945Y157480D02*
D03*
X184055Y169414D02*
D03*
X144685D02*
D03*
X151575Y157480D02*
D03*
X149729Y164370D02*
D03*
X130905Y169414D02*
D03*
X137795Y171260D02*
D03*
X125862Y164370D02*
D03*
Y150591D02*
D03*
X124016Y157480D02*
D03*
X130905Y145547D02*
D03*
X144685D02*
D03*
X137795Y143701D02*
D03*
X149729Y150591D02*
D03*
X144685Y-145547D02*
D03*
X149729Y-150591D02*
D03*
X130905Y-145547D02*
D03*
X137795Y-143701D02*
D03*
X125862Y-150591D02*
D03*
Y-164370D02*
D03*
X124016Y-157480D02*
D03*
X130905Y-169414D02*
D03*
X144685D02*
D03*
X137795Y-171260D02*
D03*
X149729Y-164370D02*
D03*
X152559Y-157480D02*
D03*
X124015Y-4922D02*
D03*
Y22637D02*
D03*
X127460Y29527D02*
D03*
X124015Y36417D02*
D03*
X127460Y43307D02*
D03*
X124015Y50196D02*
D03*
X127460Y57086D02*
D03*
X124015Y63976D02*
D03*
X127460Y70866D02*
D03*
X124015Y77755D02*
D03*
X127460Y84645D02*
D03*
X124015Y91535D02*
D03*
Y105315D02*
D03*
X127460Y112204D02*
D03*
X124015Y119094D02*
D03*
X127460Y125984D02*
D03*
X124015Y132874D02*
D03*
X127460Y139763D02*
D03*
X130905Y-4922D02*
D03*
Y22637D02*
D03*
X134350Y29527D02*
D03*
X130905Y36417D02*
D03*
Y77755D02*
D03*
X134350Y84645D02*
D03*
X130905Y91535D02*
D03*
Y105315D02*
D03*
X134350Y112204D02*
D03*
X130905Y119094D02*
D03*
X134350Y125984D02*
D03*
X130905Y132874D02*
D03*
X137795Y-4922D02*
D03*
Y22637D02*
D03*
X141240Y29527D02*
D03*
X137795Y36417D02*
D03*
X141240Y57086D02*
D03*
X137795Y77755D02*
D03*
X141240Y84645D02*
D03*
Y112204D02*
D03*
X137795Y119094D02*
D03*
X141240Y125984D02*
D03*
X137795Y132874D02*
D03*
X148130Y-11811D02*
D03*
X144685Y-4922D02*
D03*
X148130Y1968D02*
D03*
Y15748D02*
D03*
X144685Y22637D02*
D03*
X148130Y29527D02*
D03*
X144685Y36417D02*
D03*
X148130Y43307D02*
D03*
X144685Y50196D02*
D03*
X148130Y57086D02*
D03*
X144685Y63976D02*
D03*
X148130Y70866D02*
D03*
X144685Y77755D02*
D03*
X148130Y84645D02*
D03*
X144685Y91535D02*
D03*
X148130Y98425D02*
D03*
X144685Y105315D02*
D03*
X148130Y112204D02*
D03*
X144685Y119094D02*
D03*
X148130Y125984D02*
D03*
X144685Y132874D02*
D03*
X148130Y139763D02*
D03*
X155019Y1968D02*
D03*
X151575Y8858D02*
D03*
X155019Y15748D02*
D03*
X151575Y22637D02*
D03*
X155019Y29527D02*
D03*
X151575Y36417D02*
D03*
X155019Y43307D02*
D03*
X151575Y50196D02*
D03*
X155019Y57086D02*
D03*
X151575Y63976D02*
D03*
X155019Y70866D02*
D03*
X151575Y77755D02*
D03*
X155019Y84645D02*
D03*
X151575Y91535D02*
D03*
X155019Y98425D02*
D03*
X151575Y105315D02*
D03*
X155019Y112204D02*
D03*
X151575Y119094D02*
D03*
X155019Y125984D02*
D03*
X151575Y132874D02*
D03*
X155019Y139763D02*
D03*
Y167322D02*
D03*
X161909Y1968D02*
D03*
X158464Y8858D02*
D03*
X161909Y125984D02*
D03*
X158464Y132874D02*
D03*
X161909Y139763D02*
D03*
X168799Y1968D02*
D03*
Y125984D02*
D03*
X165354Y132874D02*
D03*
X172244Y-4922D02*
D03*
X175689Y125984D02*
D03*
X172244Y132874D02*
D03*
X182578Y125984D02*
D03*
X179134Y132874D02*
D03*
X189468Y125984D02*
D03*
X186023Y132874D02*
D03*
X196358Y125984D02*
D03*
X192913Y132874D02*
D03*
M02*
