G04 Layer_Color=32896*
%FSLAX25Y25*%
%MOIN*%
G70*
G01*
G75*
%ADD17C,0.00787*%
%ADD35C,0.01000*%
%ADD39C,0.00800*%
D17*
X330118Y45276D02*
G03*
X330118Y45276I-6890J0D01*
G01*
X286909Y-137795D02*
G03*
X286909Y-137795I-14272J0D01*
G01*
Y-78740D02*
G03*
X286909Y-78740I-14272J0D01*
G01*
Y78740D02*
G03*
X286909Y78740I-14272J0D01*
G01*
Y137795D02*
G03*
X286909Y137795I-14272J0D01*
G01*
X330118Y-112205D02*
G03*
X330118Y-112205I-6890J0D01*
G01*
Y-45276D02*
G03*
X330118Y-45276I-6890J0D01*
G01*
Y112205D02*
G03*
X330118Y112205I-6890J0D01*
G01*
X323228Y35433D02*
Y45276D01*
X313386D02*
X323228D01*
Y55118D01*
Y45276D02*
X333071D01*
X252953Y27953D02*
X266142D01*
X252953Y19291D02*
X266142D01*
Y27953D01*
X252953Y38976D02*
X266142D01*
X252953Y51575D02*
X266142D01*
Y38976D02*
Y51575D01*
X252953Y62598D02*
X266142D01*
X252953Y71260D02*
X266142D01*
Y62598D02*
Y71260D01*
X312093Y14764D02*
X334364D01*
X312093Y75787D02*
X334364D01*
X266142Y14764D02*
Y19291D01*
Y27953D02*
Y38976D01*
Y51575D02*
Y62598D01*
Y71260D02*
Y75787D01*
X344882Y14764D02*
Y75787D01*
X334364D02*
X344882D01*
X334364Y14764D02*
X344882D01*
X266142D02*
X312093D01*
X266142Y75787D02*
X312093D01*
X323228Y-122047D02*
Y-112205D01*
X313386D02*
X323228D01*
Y-102362D01*
Y-112205D02*
X333071D01*
X252953Y-129527D02*
X266142D01*
X252953Y-138189D02*
X266142D01*
Y-129527D01*
X252953Y-118504D02*
X266142D01*
X252953Y-105905D02*
X266142D01*
Y-118504D02*
Y-105905D01*
X252953Y-94882D02*
X266142D01*
X252953Y-86221D02*
X266142D01*
Y-94882D02*
Y-86221D01*
X312093Y-142717D02*
X334364D01*
X312093Y-81693D02*
X334364D01*
X266142Y-142717D02*
Y-138189D01*
Y-129527D02*
Y-118504D01*
Y-105905D02*
Y-94882D01*
Y-86221D02*
Y-81693D01*
X344882Y-142717D02*
Y-81693D01*
X334364D02*
X344882D01*
X334364Y-142717D02*
X344882D01*
X266142D02*
X312093D01*
X266142Y-81693D02*
X312093D01*
X323228Y-55118D02*
Y-45276D01*
X313386D02*
X323228D01*
Y-35433D01*
Y-45276D02*
X333071D01*
X252953Y-62598D02*
X266142D01*
X252953Y-71260D02*
X266142D01*
Y-62598D01*
X252953Y-51575D02*
X266142D01*
X252953Y-38976D02*
X266142D01*
Y-51575D02*
Y-38976D01*
X252953Y-27953D02*
X266142D01*
X252953Y-19291D02*
X266142D01*
Y-27953D02*
Y-19291D01*
X312093Y-75787D02*
X334364D01*
X312093Y-14764D02*
X334364D01*
X266142Y-75787D02*
Y-71260D01*
Y-62598D02*
Y-51575D01*
Y-38976D02*
Y-27953D01*
Y-19291D02*
Y-14764D01*
X344882Y-75787D02*
Y-14764D01*
X334364D02*
X344882D01*
X334364Y-75787D02*
X344882D01*
X266142D02*
X312093D01*
X266142Y-14764D02*
X312093D01*
X323228Y102362D02*
Y112205D01*
X313386D02*
X323228D01*
Y122047D01*
Y112205D02*
X333071D01*
X252953Y94882D02*
X266142D01*
X252953Y86221D02*
X266142D01*
Y94882D01*
X252953Y105905D02*
X266142D01*
X252953Y118504D02*
X266142D01*
Y105905D02*
Y118504D01*
X252953Y129528D02*
X266142D01*
X252953Y138189D02*
X266142D01*
Y129528D02*
Y138189D01*
X312093Y81693D02*
X334364D01*
X312093Y142717D02*
X334364D01*
X266142Y81693D02*
Y86221D01*
Y94882D02*
Y105905D01*
Y118504D02*
Y129528D01*
Y138189D02*
Y142717D01*
X344882Y81693D02*
Y142717D01*
X334364D02*
X344882D01*
X334364Y81693D02*
X344882D01*
X266142D02*
X312093D01*
X266142Y142717D02*
X312093D01*
X122244Y-31102D02*
Y-20866D01*
X143110Y-31102D02*
Y-20866D01*
X161024Y-28937D02*
Y-23031D01*
X147638Y-28937D02*
Y-23031D01*
X186417Y-31102D02*
Y-20866D01*
X165551Y-31102D02*
Y-20866D01*
X190945Y-28937D02*
Y-23031D01*
X204331Y-28937D02*
Y-23031D01*
X0Y177165D02*
X393701D01*
Y-177165D02*
Y177165D01*
X0Y-177165D02*
Y177165D01*
Y-177165D02*
X393701D01*
D35*
X133713Y-46180D02*
X134713Y-45181D01*
X136712D01*
X137712Y-46180D01*
Y-50179D01*
X136712Y-51179D01*
X134713D01*
X133713Y-50179D01*
X128715Y-51179D02*
Y-45181D01*
X131714Y-48180D01*
X127715D01*
X155313Y-43680D02*
X156313Y-42681D01*
X158312D01*
X159312Y-43680D01*
Y-47679D01*
X158312Y-48679D01*
X156313D01*
X155313Y-47679D01*
X149315Y-42681D02*
X153314D01*
Y-45680D01*
X151314Y-44680D01*
X150315D01*
X149315Y-45680D01*
Y-47679D01*
X150315Y-48679D01*
X152314D01*
X153314Y-47679D01*
X177013Y-46180D02*
X178013Y-45181D01*
X180012D01*
X181012Y-46180D01*
Y-50179D01*
X180012Y-51179D01*
X178013D01*
X177013Y-50179D01*
X171015Y-45181D02*
X173014Y-46180D01*
X175014Y-48180D01*
Y-50179D01*
X174014Y-51179D01*
X172015D01*
X171015Y-50179D01*
Y-49179D01*
X172015Y-48180D01*
X175014D01*
X198613Y-43680D02*
X199613Y-42681D01*
X201612D01*
X202612Y-43680D01*
Y-47679D01*
X201612Y-48679D01*
X199613D01*
X198613Y-47679D01*
X196614Y-42681D02*
X192615D01*
Y-43680D01*
X196614Y-47679D01*
Y-48679D01*
D39*
X352967Y45124D02*
Y48457D01*
X353800Y49290D01*
X355466D01*
X356299Y48457D01*
Y45124D01*
X355466Y44291D01*
X353800D01*
X354633Y45957D02*
X352967Y44291D01*
X353800D02*
X352967Y45124D01*
X351301Y44291D02*
X349635D01*
X350468D01*
Y49290D01*
X351301Y48457D01*
X352967Y-43458D02*
Y-40126D01*
X353800Y-39293D01*
X355466D01*
X356299Y-40126D01*
Y-43458D01*
X355466Y-44291D01*
X353800D01*
X354633Y-42625D02*
X352967Y-44291D01*
X353800D02*
X352967Y-43458D01*
X347969Y-44291D02*
X351301D01*
X347969Y-40959D01*
Y-40126D01*
X348802Y-39293D01*
X350468D01*
X351301Y-40126D01*
X352967Y114022D02*
Y117354D01*
X353800Y118187D01*
X355466D01*
X356299Y117354D01*
Y114022D01*
X355466Y113189D01*
X353800D01*
X354633Y114855D02*
X352967Y113189D01*
X353800D02*
X352967Y114022D01*
X351301Y117354D02*
X350468Y118187D01*
X348802D01*
X347969Y117354D01*
Y116521D01*
X348802Y115688D01*
X349635D01*
X348802D01*
X347969Y114855D01*
Y114022D01*
X348802Y113189D01*
X350468D01*
X351301Y114022D01*
X352967Y-112356D02*
Y-109024D01*
X353800Y-108191D01*
X355466D01*
X356299Y-109024D01*
Y-112356D01*
X355466Y-113189D01*
X353800D01*
X354633Y-111523D02*
X352967Y-113189D01*
X353800D02*
X352967Y-112356D01*
X348802Y-113189D02*
Y-108191D01*
X351301Y-110690D01*
X347969D01*
M02*
