G04 Layer_Color=128*
%FSLAX25Y25*%
%MOIN*%
G70*
G01*
G75*
%ADD17C,0.00787*%
%ADD58C,0.00200*%
D17*
X0Y177165D02*
X393701D01*
Y-177165D02*
Y177165D01*
X0Y-177165D02*
Y177165D01*
Y-177165D02*
X393701D01*
D58*
X76772Y-70866D02*
X84646D01*
X80709Y-74803D02*
Y-66929D01*
X37402Y-70866D02*
X45276D01*
X41339Y-74803D02*
Y-66929D01*
X242913Y23819D02*
X249213D01*
X246063Y20669D02*
Y26969D01*
X242913Y45276D02*
X249213D01*
X246063Y42126D02*
Y48425D01*
X242913Y66732D02*
X249213D01*
X246063Y63583D02*
Y69882D01*
X162126Y113898D02*
X166457D01*
X164291Y111732D02*
Y116063D01*
X172126Y113898D02*
X176457D01*
X174291Y111732D02*
Y116063D01*
X162126Y103898D02*
X166457D01*
X164291Y101732D02*
Y106063D01*
X172126Y103898D02*
X176457D01*
X174291Y101732D02*
Y106063D01*
X162126Y93898D02*
X166457D01*
X164291Y91732D02*
Y96063D01*
X172126Y93898D02*
X176457D01*
X174291Y91732D02*
Y96063D01*
X162126Y83898D02*
X166457D01*
X164291Y81732D02*
Y86063D01*
X172126Y83898D02*
X176457D01*
X174291Y81732D02*
Y86063D01*
X162126Y73898D02*
X166457D01*
X164291Y71732D02*
Y76063D01*
X172126Y73898D02*
X176457D01*
X174291Y71732D02*
Y76063D01*
X162126Y63898D02*
X166457D01*
X164291Y61732D02*
Y66063D01*
X172126Y63898D02*
X176457D01*
X174291Y61732D02*
Y66063D01*
X162126Y53898D02*
X166457D01*
X164291Y51732D02*
Y56063D01*
X172126Y53898D02*
X176457D01*
X174291Y51732D02*
Y56063D01*
X162126Y43898D02*
X166457D01*
X164291Y41732D02*
Y46063D01*
X172126Y43898D02*
X176457D01*
X174291Y41732D02*
Y46063D01*
X162126Y33898D02*
X166457D01*
X164291Y31732D02*
Y36063D01*
X172126Y33898D02*
X176457D01*
X174291Y31732D02*
Y36063D01*
X162126Y23898D02*
X166457D01*
X164291Y21732D02*
Y26063D01*
X172126Y23898D02*
X176457D01*
X174291Y21732D02*
Y26063D01*
X266339Y-137795D02*
X278937D01*
X272638Y-144095D02*
Y-131496D01*
X266339Y-78740D02*
X278937D01*
X272638Y-85039D02*
Y-72441D01*
X266339Y78740D02*
X278937D01*
X272638Y72441D02*
Y85039D01*
X266339Y137795D02*
X278937D01*
X272638Y131496D02*
Y144095D01*
X224213Y-19685D02*
X227559D01*
X225886Y-21358D02*
Y-18012D01*
X209449Y-19685D02*
X212795D01*
X211122Y-21358D02*
Y-18012D01*
X242913Y-66732D02*
X249213D01*
X246063Y-69882D02*
Y-63583D01*
X242913Y-45276D02*
X249213D01*
X246063Y-48425D02*
Y-42126D01*
X242913Y-23819D02*
X249213D01*
X246063Y-26969D02*
Y-20669D01*
X157480Y-118110D02*
X161417D01*
X159449Y-120079D02*
Y-116142D01*
X157480Y-9843D02*
X161417D01*
X159449Y-11811D02*
Y-7874D01*
X157480Y-157480D02*
X161417D01*
X159449Y-159449D02*
Y-155512D01*
X10827Y157480D02*
X28543D01*
X19685Y148622D02*
Y166339D01*
X10827Y-157480D02*
X28543D01*
X19685Y-166339D02*
Y-148622D01*
X50197Y157480D02*
X67913D01*
X59055Y148622D02*
Y166339D01*
X10827Y98425D02*
X28543D01*
X19685Y89567D02*
Y107283D01*
X50197Y-157480D02*
X67913D01*
X59055Y-166339D02*
Y-148622D01*
X10827Y-98425D02*
X28543D01*
X19685Y-107283D02*
Y-89567D01*
X50197Y-98425D02*
X67913D01*
X59055Y-107283D02*
Y-89567D01*
X50197Y98425D02*
X67913D01*
X59055Y89567D02*
Y107283D01*
X365158Y-157480D02*
X382874D01*
X374016Y-166339D02*
Y-148622D01*
X365158Y-118110D02*
X382874D01*
X374016Y-126969D02*
Y-109252D01*
X365158Y0D02*
X382874D01*
X374016Y-8858D02*
Y8858D01*
X293307Y-157480D02*
X311024D01*
X302165Y-166339D02*
Y-148622D01*
X365158Y157480D02*
X382874D01*
X374016Y148622D02*
Y166339D01*
X293307Y157480D02*
X311024D01*
X302165Y148622D02*
Y166339D01*
X293307Y0D02*
X311024D01*
X302165Y-8858D02*
Y8858D01*
X242913Y-90748D02*
X249213D01*
X246063Y-93898D02*
Y-87598D01*
X242913Y-112205D02*
X249213D01*
X246063Y-115354D02*
Y-109055D01*
X242913Y-133661D02*
X249213D01*
X246063Y-136811D02*
Y-130512D01*
X242913Y90748D02*
X249213D01*
X246063Y87598D02*
Y93898D01*
X242913Y112205D02*
X249213D01*
X246063Y109055D02*
Y115354D01*
X242913Y133661D02*
X249213D01*
X246063Y130512D02*
Y136811D01*
X242913Y66732D02*
X249213D01*
X246063Y63583D02*
Y69882D01*
X242913Y45276D02*
X249213D01*
X246063Y42126D02*
Y48425D01*
X242913Y23819D02*
X249213D01*
X246063Y20669D02*
Y26969D01*
X209449Y-86614D02*
X212795D01*
X211122Y-88287D02*
Y-84941D01*
X224213Y-86614D02*
X227559D01*
X225886Y-88287D02*
Y-84941D01*
X224213Y137795D02*
X227559D01*
X225886Y136122D02*
Y139469D01*
X209449Y137795D02*
X212795D01*
X211122Y136122D02*
Y139469D01*
X209449Y70866D02*
X212795D01*
X211122Y69193D02*
Y72539D01*
X224213Y70866D02*
X227559D01*
X225886Y69193D02*
Y72539D01*
X310728Y112205D02*
X335728D01*
X323228Y99705D02*
Y124705D01*
X310728Y45276D02*
X335728D01*
X323228Y32776D02*
Y57776D01*
X310728Y-45276D02*
X335728D01*
X323228Y-57776D02*
Y-32776D01*
X310728Y-112205D02*
X335728D01*
X323228Y-124705D02*
Y-99705D01*
X242913Y-133661D02*
X249213D01*
X246063Y-136811D02*
Y-130512D01*
X242913Y-112205D02*
X249213D01*
X246063Y-115354D02*
Y-109055D01*
X242913Y-90748D02*
X249213D01*
X246063Y-93898D02*
Y-87598D01*
X242913Y-66732D02*
X249213D01*
X246063Y-69882D02*
Y-63583D01*
X242913Y-45276D02*
X249213D01*
X246063Y-48425D02*
Y-42126D01*
X242913Y-23819D02*
X249213D01*
X246063Y-26969D02*
Y-20669D01*
X242913Y90748D02*
X249213D01*
X246063Y87598D02*
Y93898D01*
X242913Y112205D02*
X249213D01*
X246063Y109055D02*
Y115354D01*
X242913Y133661D02*
X249213D01*
X246063Y130512D02*
Y136811D01*
X365158Y118110D02*
X382874D01*
X374016Y109252D02*
Y126969D01*
X197835Y-157480D02*
X215551D01*
X206693Y-166339D02*
Y-148622D01*
X168307Y157480D02*
X186024D01*
X177165Y148622D02*
Y166339D01*
X76772Y70866D02*
X84646D01*
X80709Y66929D02*
Y74803D01*
X37402Y70866D02*
X45276D01*
X41339Y66929D02*
Y74803D01*
X89567Y157480D02*
X107283D01*
X98425Y148622D02*
Y166339D01*
X89567Y-157480D02*
X107283D01*
X98425Y-166339D02*
Y-148622D01*
X10827Y0D02*
X28543D01*
X19685Y-8858D02*
Y8858D01*
X128937Y157480D02*
X146653D01*
X137795Y148622D02*
Y166339D01*
X128937Y-157480D02*
X146653D01*
X137795Y-166339D02*
Y-148622D01*
X180118Y86614D02*
X182087D01*
X181102Y85630D02*
Y87598D01*
X163336Y-152609D02*
X165305D01*
X164321Y-153593D02*
Y-151624D01*
X158465Y-164370D02*
X160433D01*
X159449Y-165354D02*
Y-163386D01*
X153593Y-152609D02*
X155561D01*
X154577Y-153593D02*
Y-151624D01*
X158465Y-150591D02*
X160433D01*
X159449Y-151575D02*
Y-149606D01*
X165354Y-157480D02*
X167323D01*
X166339Y-158465D02*
Y-156496D01*
X163336Y-162352D02*
X165305D01*
X164321Y-163336D02*
Y-161368D01*
X153593Y-162352D02*
X155561D01*
X154577Y-163336D02*
Y-161368D01*
X153593Y-122982D02*
X155561D01*
X154577Y-123966D02*
Y-121998D01*
X151575Y-118110D02*
X153543D01*
X152559Y-119095D02*
Y-117126D01*
X163336Y-122982D02*
X165305D01*
X164321Y-123966D02*
Y-121998D01*
X165354Y-118110D02*
X167323D01*
X166339Y-119095D02*
Y-117126D01*
X158465Y-111221D02*
X160433D01*
X159449Y-112205D02*
Y-110236D01*
X180118Y90551D02*
X182087D01*
X181102Y89567D02*
Y91535D01*
X240207Y-71604D02*
X242175D01*
X241191Y-72588D02*
Y-70620D01*
X240207Y-61861D02*
X242175D01*
X241191Y-62845D02*
Y-60876D01*
X249951Y-71604D02*
X251919D01*
X250935Y-72588D02*
Y-70620D01*
X249951Y-61861D02*
X251919D01*
X250935Y-62845D02*
Y-60876D01*
X251969Y-66732D02*
X253937D01*
X252953Y-67716D02*
Y-65748D01*
X245079Y-59842D02*
X247047D01*
X246063Y-60827D02*
Y-58858D01*
X245079Y-73622D02*
X247047D01*
X246063Y-74606D02*
Y-72638D01*
X245079Y-140551D02*
X247047D01*
X246063Y-141535D02*
Y-139567D01*
X245079Y-126772D02*
X247047D01*
X246063Y-127756D02*
Y-125787D01*
X251969Y-133661D02*
X253937D01*
X252953Y-134646D02*
Y-132677D01*
X249951Y-128790D02*
X251919D01*
X250935Y-129774D02*
Y-127805D01*
X249951Y-138533D02*
X251919D01*
X250935Y-139517D02*
Y-137549D01*
X240207Y-128790D02*
X242175D01*
X241191Y-129774D02*
Y-127805D01*
X240207Y-138533D02*
X242175D01*
X241191Y-139517D02*
Y-137549D01*
X251969Y-112205D02*
X253937D01*
X252953Y-113189D02*
Y-111221D01*
X249951Y-107333D02*
X251919D01*
X250935Y-108317D02*
Y-106349D01*
X249951Y-117077D02*
X251919D01*
X250935Y-118061D02*
Y-116092D01*
X240207Y-117077D02*
X242175D01*
X241191Y-118061D02*
Y-116092D01*
X245079Y-105315D02*
X247047D01*
X246063Y-106299D02*
Y-104331D01*
X245079Y-119095D02*
X247047D01*
X246063Y-120079D02*
Y-118110D01*
X238189Y-112205D02*
X240158D01*
X239173Y-113189D02*
Y-111221D01*
X240207Y-107333D02*
X242175D01*
X241191Y-108317D02*
Y-106349D01*
X240207Y-40404D02*
X242175D01*
X241191Y-41388D02*
Y-39419D01*
X238189Y-45276D02*
X240158D01*
X239173Y-46260D02*
Y-44291D01*
X245079Y-52165D02*
X247047D01*
X246063Y-53150D02*
Y-51181D01*
X245079Y-38386D02*
X247047D01*
X246063Y-39370D02*
Y-37402D01*
X240207Y-50147D02*
X242175D01*
X241191Y-51132D02*
Y-49163D01*
X249951Y-50147D02*
X251919D01*
X250935Y-51132D02*
Y-49163D01*
X249951Y-40404D02*
X251919D01*
X250935Y-41388D02*
Y-39419D01*
X251969Y-45276D02*
X253937D01*
X252953Y-46260D02*
Y-44291D01*
X240207Y50147D02*
X242175D01*
X241191Y49163D02*
Y51132D01*
X238189Y45276D02*
X240158D01*
X239173Y44291D02*
Y46260D01*
X245079Y38386D02*
X247047D01*
X246063Y37402D02*
Y39370D01*
X245079Y52165D02*
X247047D01*
X246063Y51181D02*
Y53150D01*
X240207Y40404D02*
X242175D01*
X241191Y39419D02*
Y41388D01*
X249951Y40404D02*
X251919D01*
X250935Y39419D02*
Y41388D01*
X249951Y50147D02*
X251919D01*
X250935Y49163D02*
Y51132D01*
X251969Y45276D02*
X253937D01*
X252953Y44291D02*
Y46260D01*
X240207Y117077D02*
X242175D01*
X241191Y116092D02*
Y118061D01*
X238189Y112205D02*
X240158D01*
X239173Y111221D02*
Y113189D01*
X245079Y105315D02*
X247047D01*
X246063Y104331D02*
Y106299D01*
X245079Y119095D02*
X247047D01*
X246063Y118110D02*
Y120079D01*
X240207Y107333D02*
X242175D01*
X241191Y106349D02*
Y108317D01*
X249951Y107333D02*
X251919D01*
X250935Y106349D02*
Y108317D01*
X249951Y117077D02*
X251919D01*
X250935Y116092D02*
Y118061D01*
X251969Y112205D02*
X253937D01*
X252953Y111221D02*
Y113189D01*
X240207Y18947D02*
X242175D01*
X241191Y17963D02*
Y19931D01*
X240207Y28691D02*
X242175D01*
X241191Y27706D02*
Y29675D01*
X249951Y18947D02*
X251919D01*
X250935Y17963D02*
Y19931D01*
X249951Y28691D02*
X251919D01*
X250935Y27706D02*
Y29675D01*
X251969Y23819D02*
X253937D01*
X252953Y22835D02*
Y24803D01*
X245079Y30709D02*
X247047D01*
X246063Y29724D02*
Y31693D01*
X245079Y16929D02*
X247047D01*
X246063Y15945D02*
Y17913D01*
X240207Y85876D02*
X242175D01*
X241191Y84892D02*
Y86861D01*
X240207Y95620D02*
X242175D01*
X241191Y94636D02*
Y96604D01*
X249951Y85876D02*
X251919D01*
X250935Y84892D02*
Y86861D01*
X249951Y95620D02*
X251919D01*
X250935Y94636D02*
Y96604D01*
X251969Y90748D02*
X253937D01*
X252953Y89764D02*
Y91732D01*
X245079Y97638D02*
X247047D01*
X246063Y96653D02*
Y98622D01*
X245079Y83858D02*
X247047D01*
X246063Y82874D02*
Y84842D01*
X153593Y-4971D02*
X155561D01*
X154577Y-5955D02*
Y-3986D01*
X151575Y-9843D02*
X153543D01*
X152559Y-10827D02*
Y-8858D01*
X158465Y-16732D02*
X160433D01*
X159449Y-17717D02*
Y-15748D01*
X158465Y-2953D02*
X160433D01*
X159449Y-3937D02*
Y-1969D01*
X153593Y-14714D02*
X155561D01*
X154577Y-15699D02*
Y-13730D01*
X163336Y-14714D02*
X165305D01*
X164321Y-15699D02*
Y-13730D01*
X163336Y-4971D02*
X165305D01*
X164321Y-5955D02*
Y-3986D01*
X165354Y-9843D02*
X167323D01*
X166339Y-10827D02*
Y-8858D01*
X153593Y-113238D02*
X155561D01*
X154577Y-114223D02*
Y-112254D01*
X158465Y-125000D02*
X160433D01*
X159449Y-125984D02*
Y-124016D01*
X163336Y-113238D02*
X165305D01*
X164321Y-114223D02*
Y-112254D01*
X25591Y-86492D02*
X27559D01*
X26575Y-87476D02*
Y-85508D01*
X32480Y-98425D02*
X34449D01*
X33465Y-99410D02*
Y-97441D01*
X30634Y-91535D02*
X32603D01*
X31618Y-92520D02*
Y-90551D01*
X30634Y-105315D02*
X32603D01*
X31618Y-106299D02*
Y-104331D01*
X18701Y-112205D02*
X20669D01*
X19685Y-113189D02*
Y-111221D01*
X25591Y-110359D02*
X27559D01*
X26575Y-111343D02*
Y-109374D01*
X11811Y-110359D02*
X13780D01*
X12795Y-111343D02*
Y-109374D01*
X4921Y-98425D02*
X6890D01*
X5906Y-99410D02*
Y-97441D01*
X6767Y-105315D02*
X8736D01*
X7752Y-106299D02*
Y-104331D01*
X11811Y-86492D02*
X13780D01*
X12795Y-87476D02*
Y-85508D01*
X18701Y-84646D02*
X20669D01*
X19685Y-85630D02*
Y-83661D01*
X6767Y-91535D02*
X8736D01*
X7752Y-92520D02*
Y-90551D01*
X64961Y-86492D02*
X66929D01*
X65945Y-87476D02*
Y-85508D01*
X71850Y-98425D02*
X73819D01*
X72835Y-99410D02*
Y-97441D01*
X70004Y-91535D02*
X71973D01*
X70989Y-92520D02*
Y-90551D01*
X70004Y-105315D02*
X71973D01*
X70989Y-106299D02*
Y-104331D01*
X58071Y-112205D02*
X60039D01*
X59055Y-113189D02*
Y-111221D01*
X64961Y-110359D02*
X66929D01*
X65945Y-111343D02*
Y-109374D01*
X51181Y-110359D02*
X53150D01*
X52165Y-111343D02*
Y-109374D01*
X44291Y-98425D02*
X46260D01*
X45276Y-99410D02*
Y-97441D01*
X46137Y-105315D02*
X48106D01*
X47122Y-106299D02*
Y-104331D01*
X51181Y-86492D02*
X53150D01*
X52165Y-87476D02*
Y-85508D01*
X58071Y-84646D02*
X60039D01*
X59055Y-85630D02*
Y-83661D01*
X46137Y-91535D02*
X48106D01*
X47122Y-92520D02*
Y-90551D01*
X64961Y-145547D02*
X66929D01*
X65945Y-146531D02*
Y-144563D01*
X71850Y-157480D02*
X73819D01*
X72835Y-158465D02*
Y-156496D01*
X70004Y-150591D02*
X71973D01*
X70989Y-151575D02*
Y-149606D01*
X70004Y-164370D02*
X71973D01*
X70989Y-165354D02*
Y-163386D01*
X58071Y-171260D02*
X60039D01*
X59055Y-172244D02*
Y-170276D01*
X64961Y-169414D02*
X66929D01*
X65945Y-170398D02*
Y-168430D01*
X51181Y-169414D02*
X53150D01*
X52165Y-170398D02*
Y-168430D01*
X44291Y-157480D02*
X46260D01*
X45276Y-158465D02*
Y-156496D01*
X46137Y-164370D02*
X48106D01*
X47122Y-165354D02*
Y-163386D01*
X51181Y-145547D02*
X53150D01*
X52165Y-146531D02*
Y-144563D01*
X58071Y-143701D02*
X60039D01*
X59055Y-144685D02*
Y-142717D01*
X46137Y-150591D02*
X48106D01*
X47122Y-151575D02*
Y-149606D01*
X25591Y-145547D02*
X27559D01*
X26575Y-146531D02*
Y-144563D01*
X32480Y-157480D02*
X34449D01*
X33465Y-158465D02*
Y-156496D01*
X30634Y-150591D02*
X32603D01*
X31618Y-151575D02*
Y-149606D01*
X30634Y-164370D02*
X32603D01*
X31618Y-165354D02*
Y-163386D01*
X18701Y-171260D02*
X20669D01*
X19685Y-172244D02*
Y-170276D01*
X25591Y-169414D02*
X27559D01*
X26575Y-170398D02*
Y-168430D01*
X11811Y-169414D02*
X13780D01*
X12795Y-170398D02*
Y-168430D01*
X4921Y-157480D02*
X6890D01*
X5906Y-158465D02*
Y-156496D01*
X6767Y-164370D02*
X8736D01*
X7752Y-165354D02*
Y-163386D01*
X11811Y-145547D02*
X13780D01*
X12795Y-146531D02*
Y-144563D01*
X18701Y-143701D02*
X20669D01*
X19685Y-144685D02*
Y-142717D01*
X6767Y-150591D02*
X8736D01*
X7752Y-151575D02*
Y-149606D01*
X64961Y110359D02*
X66929D01*
X65945Y109374D02*
Y111343D01*
X71850Y98425D02*
X73819D01*
X72835Y97441D02*
Y99410D01*
X70004Y105315D02*
X71973D01*
X70989Y104331D02*
Y106299D01*
X70004Y91535D02*
X71973D01*
X70989Y90551D02*
Y92520D01*
X58071Y84646D02*
X60039D01*
X59055Y83661D02*
Y85630D01*
X64961Y86492D02*
X66929D01*
X65945Y85508D02*
Y87476D01*
X51181Y86492D02*
X53150D01*
X52165Y85508D02*
Y87476D01*
X44291Y98425D02*
X46260D01*
X45276Y97441D02*
Y99410D01*
X46137Y91535D02*
X48106D01*
X47122Y90551D02*
Y92520D01*
X51181Y110359D02*
X53150D01*
X52165Y109374D02*
Y111343D01*
X58071Y112205D02*
X60039D01*
X59055Y111221D02*
Y113189D01*
X46137Y105315D02*
X48106D01*
X47122Y104331D02*
Y106299D01*
X25591Y110359D02*
X27559D01*
X26575Y109374D02*
Y111343D01*
X32480Y98425D02*
X34449D01*
X33465Y97441D02*
Y99410D01*
X30634Y105315D02*
X32603D01*
X31618Y104331D02*
Y106299D01*
X30634Y91535D02*
X32603D01*
X31618Y90551D02*
Y92520D01*
X18701Y84646D02*
X20669D01*
X19685Y83661D02*
Y85630D01*
X25591Y86492D02*
X27559D01*
X26575Y85508D02*
Y87476D01*
X11811Y86492D02*
X13780D01*
X12795Y85508D02*
Y87476D01*
X4921Y98425D02*
X6890D01*
X5906Y97441D02*
Y99410D01*
X6767Y91535D02*
X8736D01*
X7752Y90551D02*
Y92520D01*
X11811Y110359D02*
X13780D01*
X12795Y109374D02*
Y111343D01*
X18701Y112205D02*
X20669D01*
X19685Y111221D02*
Y113189D01*
X6767Y105315D02*
X8736D01*
X7752Y104331D02*
Y106299D01*
X64961Y169414D02*
X66929D01*
X65945Y168430D02*
Y170398D01*
X71850Y157480D02*
X73819D01*
X72835Y156496D02*
Y158465D01*
X70004Y164370D02*
X71973D01*
X70989Y163386D02*
Y165354D01*
X70004Y150591D02*
X71973D01*
X70989Y149606D02*
Y151575D01*
X58071Y143701D02*
X60039D01*
X59055Y142717D02*
Y144685D01*
X64961Y145547D02*
X66929D01*
X65945Y144563D02*
Y146531D01*
X51181Y145547D02*
X53150D01*
X52165Y144563D02*
Y146531D01*
X44291Y157480D02*
X46260D01*
X45276Y156496D02*
Y158465D01*
X46137Y150591D02*
X48106D01*
X47122Y149606D02*
Y151575D01*
X51181Y169414D02*
X53150D01*
X52165Y168430D02*
Y170398D01*
X58071Y171260D02*
X60039D01*
X59055Y170276D02*
Y172244D01*
X46137Y164370D02*
X48106D01*
X47122Y163386D02*
Y165354D01*
X25591Y169414D02*
X27559D01*
X26575Y168430D02*
Y170398D01*
X32480Y157480D02*
X34449D01*
X33465Y156496D02*
Y158465D01*
X30634Y164370D02*
X32603D01*
X31618Y163386D02*
Y165354D01*
X30634Y150591D02*
X32603D01*
X31618Y149606D02*
Y151575D01*
X18701Y143701D02*
X20669D01*
X19685Y142717D02*
Y144685D01*
X25591Y145547D02*
X27559D01*
X26575Y144563D02*
Y146531D01*
X11811Y145547D02*
X13780D01*
X12795Y144563D02*
Y146531D01*
X4921Y157480D02*
X6890D01*
X5906Y156496D02*
Y158465D01*
X6767Y150591D02*
X8736D01*
X7752Y149606D02*
Y151575D01*
X11811Y169414D02*
X13780D01*
X12795Y168430D02*
Y170398D01*
X18701Y171260D02*
X20669D01*
X19685Y170276D02*
Y172244D01*
X6767Y164370D02*
X8736D01*
X7752Y163386D02*
Y165354D01*
X379921Y-106177D02*
X381890D01*
X380906Y-107161D02*
Y-105193D01*
X386811Y-118110D02*
X388779D01*
X387795Y-119095D02*
Y-117126D01*
X384965Y-111221D02*
X386933D01*
X385949Y-112205D02*
Y-110236D01*
X384965Y-125000D02*
X386933D01*
X385949Y-125984D02*
Y-124016D01*
X373031Y-131890D02*
X375000D01*
X374016Y-132874D02*
Y-130905D01*
X379921Y-130044D02*
X381890D01*
X380906Y-131028D02*
Y-129059D01*
X366142Y-130044D02*
X368110D01*
X367126Y-131028D02*
Y-129059D01*
X359252Y-118110D02*
X361221D01*
X360236Y-119095D02*
Y-117126D01*
X361098Y-125000D02*
X363067D01*
X362082Y-125984D02*
Y-124016D01*
X366142Y-106177D02*
X368110D01*
X367126Y-107161D02*
Y-105193D01*
X373031Y-104331D02*
X375000D01*
X374016Y-105315D02*
Y-103347D01*
X361098Y-111221D02*
X363067D01*
X362082Y-112205D02*
Y-110236D01*
X379921Y11933D02*
X381890D01*
X380906Y10949D02*
Y12918D01*
X386811Y0D02*
X388779D01*
X387795Y-984D02*
Y984D01*
X384965Y6890D02*
X386933D01*
X385949Y5906D02*
Y7874D01*
X384965Y-6890D02*
X386933D01*
X385949Y-7874D02*
Y-5906D01*
X373031Y-13780D02*
X375000D01*
X374016Y-14764D02*
Y-12795D01*
X379921Y-11933D02*
X381890D01*
X380906Y-12918D02*
Y-10949D01*
X366142Y-11933D02*
X368110D01*
X367126Y-12918D02*
Y-10949D01*
X359252Y0D02*
X361221D01*
X360236Y-984D02*
Y984D01*
X361098Y-6890D02*
X363067D01*
X362082Y-7874D02*
Y-5906D01*
X366142Y11933D02*
X368110D01*
X367126Y10949D02*
Y12918D01*
X373031Y13780D02*
X375000D01*
X374016Y12795D02*
Y14764D01*
X361098Y6890D02*
X363067D01*
X362082Y5906D02*
Y7874D01*
X361098Y125000D02*
X363067D01*
X362082Y124016D02*
Y125984D01*
X373031Y131890D02*
X375000D01*
X374016Y130905D02*
Y132874D01*
X366142Y130044D02*
X368110D01*
X367126Y129059D02*
Y131028D01*
X361098Y111221D02*
X363067D01*
X362082Y110236D02*
Y112205D01*
X359252Y118110D02*
X361221D01*
X360236Y117126D02*
Y119095D01*
X366142Y106177D02*
X368110D01*
X367126Y105193D02*
Y107161D01*
X379921Y106177D02*
X381890D01*
X380906Y105193D02*
Y107161D01*
X373031Y104331D02*
X375000D01*
X374016Y103347D02*
Y105315D01*
X384965Y111221D02*
X386933D01*
X385949Y110236D02*
Y112205D01*
X384965Y125000D02*
X386933D01*
X385949Y124016D02*
Y125984D01*
X386811Y118110D02*
X388779D01*
X387795Y117126D02*
Y119095D01*
X379921Y130044D02*
X381890D01*
X380906Y129059D02*
Y131028D01*
X193775Y-150591D02*
X195744D01*
X194760Y-151575D02*
Y-149606D01*
X205709Y-143701D02*
X207677D01*
X206693Y-144685D02*
Y-142717D01*
X198819Y-145547D02*
X200787D01*
X199803Y-146531D02*
Y-144563D01*
X193775Y-164370D02*
X195744D01*
X194760Y-165354D02*
Y-163386D01*
X191929Y-157480D02*
X193898D01*
X192913Y-158465D02*
Y-156496D01*
X198819Y-169414D02*
X200787D01*
X199803Y-170398D02*
Y-168430D01*
X212598Y-169414D02*
X214567D01*
X213583Y-170398D02*
Y-168430D01*
X205709Y-171260D02*
X207677D01*
X206693Y-172244D02*
Y-170276D01*
X217642Y-164370D02*
X219611D01*
X218626Y-165354D02*
Y-163386D01*
X217642Y-150591D02*
X219611D01*
X218626Y-151575D02*
Y-149606D01*
X219488Y-157480D02*
X221457D01*
X220472Y-158465D02*
Y-156496D01*
X212598Y-145547D02*
X214567D01*
X213583Y-146531D02*
Y-144563D01*
X164248Y164370D02*
X166216D01*
X165232Y163386D02*
Y165354D01*
X176181Y171260D02*
X178150D01*
X177165Y170276D02*
Y172244D01*
X169291Y169414D02*
X171260D01*
X170276Y168430D02*
Y170398D01*
X164248Y150591D02*
X166216D01*
X165232Y149606D02*
Y151575D01*
X162402Y157480D02*
X164370D01*
X163386Y156496D02*
Y158465D01*
X169291Y145547D02*
X171260D01*
X170276Y144563D02*
Y146531D01*
X183071Y145547D02*
X185039D01*
X184055Y144563D02*
Y146531D01*
X176181Y143701D02*
X178150D01*
X177165Y142717D02*
Y144685D01*
X188115Y150591D02*
X190083D01*
X189099Y149606D02*
Y151575D01*
X188115Y164370D02*
X190083D01*
X189099Y163386D02*
Y165354D01*
X189961Y157480D02*
X191929D01*
X190945Y156496D02*
Y158465D01*
X183071Y169414D02*
X185039D01*
X184055Y168430D02*
Y170398D01*
X143701Y169414D02*
X145669D01*
X144685Y168430D02*
Y170398D01*
X150591Y157480D02*
X152559D01*
X151575Y156496D02*
Y158465D01*
X148744Y164370D02*
X150713D01*
X149729Y163386D02*
Y165354D01*
X129921Y169414D02*
X131890D01*
X130905Y168430D02*
Y170398D01*
X136811Y171260D02*
X138779D01*
X137795Y170276D02*
Y172244D01*
X124878Y164370D02*
X126846D01*
X125862Y163386D02*
Y165354D01*
X124878Y150591D02*
X126846D01*
X125862Y149606D02*
Y151575D01*
X123031Y157480D02*
X125000D01*
X124016Y156496D02*
Y158465D01*
X129921Y145547D02*
X131890D01*
X130905Y144563D02*
Y146531D01*
X143701Y145547D02*
X145669D01*
X144685Y144563D02*
Y146531D01*
X136811Y143701D02*
X138779D01*
X137795Y142717D02*
Y144685D01*
X148744Y150591D02*
X150713D01*
X149729Y149606D02*
Y151575D01*
X143701Y-145547D02*
X145669D01*
X144685Y-146531D02*
Y-144563D01*
X148744Y-150591D02*
X150713D01*
X149729Y-151575D02*
Y-149606D01*
X129921Y-145547D02*
X131890D01*
X130905Y-146531D02*
Y-144563D01*
X136811Y-143701D02*
X138779D01*
X137795Y-144685D02*
Y-142717D01*
X124878Y-150591D02*
X126846D01*
X125862Y-151575D02*
Y-149606D01*
X124878Y-164370D02*
X126846D01*
X125862Y-165354D02*
Y-163386D01*
X123031Y-157480D02*
X125000D01*
X124016Y-158465D02*
Y-156496D01*
X129921Y-169414D02*
X131890D01*
X130905Y-170398D02*
Y-168430D01*
X143701Y-169414D02*
X145669D01*
X144685Y-170398D02*
Y-168430D01*
X136811Y-171260D02*
X138779D01*
X137795Y-172244D02*
Y-170276D01*
X148744Y-164370D02*
X150713D01*
X149729Y-165354D02*
Y-163386D01*
X151575Y-157480D02*
X153543D01*
X152559Y-158465D02*
Y-156496D01*
X136811Y-20670D02*
X138779D01*
X137795Y-21654D02*
Y-19685D01*
X140256Y-13780D02*
X142224D01*
X141240Y-14764D02*
Y-12796D01*
X136811Y-6890D02*
X138779D01*
X137795Y-7874D02*
Y-5906D01*
X140256Y-0D02*
X142224D01*
X141240Y-985D02*
Y984D01*
X136811Y6889D02*
X138779D01*
X137795Y5905D02*
Y7874D01*
X140256Y13779D02*
X142224D01*
X141240Y12795D02*
Y14763D01*
X136811Y20669D02*
X138779D01*
X137795Y19685D02*
Y21653D01*
X140256Y27559D02*
X142224D01*
X141240Y26575D02*
Y28543D01*
X136811Y34449D02*
X138779D01*
X137795Y33464D02*
Y35433D01*
X140256Y41338D02*
X142224D01*
X141240Y40354D02*
Y42322D01*
X136811Y48228D02*
X138779D01*
X137795Y47244D02*
Y49212D01*
X140256Y55118D02*
X142224D01*
X141240Y54133D02*
Y56102D01*
X136811Y62007D02*
X138779D01*
X137795Y61023D02*
Y62992D01*
X140256Y68897D02*
X142224D01*
X141240Y67913D02*
Y69881D01*
X136811Y75787D02*
X138779D01*
X137795Y74803D02*
Y76771D01*
X140256Y82677D02*
X142224D01*
X141240Y81692D02*
Y83661D01*
X136811Y89566D02*
X138779D01*
X137795Y88582D02*
Y90551D01*
X140256Y96456D02*
X142224D01*
X141240Y95472D02*
Y97440D01*
X136811Y103346D02*
X138779D01*
X137795Y102362D02*
Y104330D01*
X140256Y110236D02*
X142224D01*
X141240Y109252D02*
Y111220D01*
X136811Y117126D02*
X138779D01*
X137795Y116141D02*
Y118110D01*
X140256Y124015D02*
X142224D01*
X141240Y123031D02*
Y125000D01*
X136811Y130905D02*
X138779D01*
X137795Y129921D02*
Y131889D01*
X140256Y137795D02*
X142224D01*
X141240Y136811D02*
Y138779D01*
X143701Y-20670D02*
X145669D01*
X144685Y-21654D02*
Y-19685D01*
X147145Y-13780D02*
X149114D01*
X148130Y-14764D02*
Y-12796D01*
X143701Y-6890D02*
X145669D01*
X144685Y-7874D02*
Y-5906D01*
X147145Y-0D02*
X149114D01*
X148130Y-985D02*
Y984D01*
X143701Y6889D02*
X145669D01*
X144685Y5905D02*
Y7874D01*
X147145Y13779D02*
X149114D01*
X148130Y12795D02*
Y14763D01*
X143701Y20669D02*
X145669D01*
X144685Y19685D02*
Y21653D01*
X147145Y27559D02*
X149114D01*
X148130Y26575D02*
Y28543D01*
X143701Y34449D02*
X145669D01*
X144685Y33464D02*
Y35433D01*
X147145Y41338D02*
X149114D01*
X148130Y40354D02*
Y42322D01*
X143701Y48228D02*
X145669D01*
X144685Y47244D02*
Y49212D01*
X147145Y55118D02*
X149114D01*
X148130Y54133D02*
Y56102D01*
X143701Y62007D02*
X145669D01*
X144685Y61023D02*
Y62992D01*
X147145Y68897D02*
X149114D01*
X148130Y67913D02*
Y69881D01*
X143701Y75787D02*
X145669D01*
X144685Y74803D02*
Y76771D01*
X147145Y82677D02*
X149114D01*
X148130Y81692D02*
Y83661D01*
X143701Y89566D02*
X145669D01*
X144685Y88582D02*
Y90551D01*
X147145Y96456D02*
X149114D01*
X148130Y95472D02*
Y97440D01*
X143701Y103346D02*
X145669D01*
X144685Y102362D02*
Y104330D01*
X147145Y110236D02*
X149114D01*
X148130Y109252D02*
Y111220D01*
X143701Y117126D02*
X145669D01*
X144685Y116141D02*
Y118110D01*
X147145Y124015D02*
X149114D01*
X148130Y123031D02*
Y125000D01*
X143701Y130905D02*
X145669D01*
X144685Y129921D02*
Y131889D01*
X147145Y137795D02*
X149114D01*
X148130Y136811D02*
Y138779D01*
X150590Y-20670D02*
X152559D01*
X151575Y-21654D02*
Y-19685D01*
X154035Y-0D02*
X156004D01*
X155019Y-985D02*
Y984D01*
X150590Y6889D02*
X152559D01*
X151575Y5905D02*
Y7874D01*
X154035Y13779D02*
X156004D01*
X155019Y12795D02*
Y14763D01*
X150590Y20669D02*
X152559D01*
X151575Y19685D02*
Y21653D01*
X154035Y27559D02*
X156004D01*
X155019Y26575D02*
Y28543D01*
X150590Y34449D02*
X152559D01*
X151575Y33464D02*
Y35433D01*
X154035Y41338D02*
X156004D01*
X155019Y40354D02*
Y42322D01*
X150590Y48228D02*
X152559D01*
X151575Y47244D02*
Y49212D01*
X154035Y55118D02*
X156004D01*
X155019Y54133D02*
Y56102D01*
X150590Y62007D02*
X152559D01*
X151575Y61023D02*
Y62992D01*
X154035Y68897D02*
X156004D01*
X155019Y67913D02*
Y69881D01*
X150590Y75787D02*
X152559D01*
X151575Y74803D02*
Y76771D01*
X154035Y82677D02*
X156004D01*
X155019Y81692D02*
Y83661D01*
X150590Y89566D02*
X152559D01*
X151575Y88582D02*
Y90551D01*
X154035Y96456D02*
X156004D01*
X155019Y95472D02*
Y97440D01*
X150590Y103346D02*
X152559D01*
X151575Y102362D02*
Y104330D01*
X154035Y110236D02*
X156004D01*
X155019Y109252D02*
Y111220D01*
X150590Y117126D02*
X152559D01*
X151575Y116141D02*
Y118110D01*
X154035Y124015D02*
X156004D01*
X155019Y123031D02*
Y125000D01*
X150590Y130905D02*
X152559D01*
X151575Y129921D02*
Y131889D01*
X154035Y137795D02*
X156004D01*
X155019Y136811D02*
Y138779D01*
X157480Y6889D02*
X159449D01*
X158464Y5905D02*
Y7874D01*
X160925Y124015D02*
X162893D01*
X161909Y123031D02*
Y125000D01*
X157480Y130905D02*
X159449D01*
X158464Y129921D02*
Y131889D01*
X160925Y137795D02*
X162893D01*
X161909Y136811D02*
Y138779D01*
X157480Y144685D02*
X159449D01*
X158464Y143700D02*
Y145669D01*
X164370Y-20670D02*
X166338D01*
X165354Y-21654D02*
Y-19685D01*
X167815Y-13780D02*
X169783D01*
X168799Y-14764D02*
Y-12796D01*
X167815Y-0D02*
X169783D01*
X168799Y-985D02*
Y984D01*
X167815Y124015D02*
X169783D01*
X168799Y123031D02*
Y125000D01*
X164370Y130905D02*
X166338D01*
X165354Y129921D02*
Y131889D01*
X171260Y-20670D02*
X173228D01*
X172244Y-21654D02*
Y-19685D01*
X174704Y-13780D02*
X176673D01*
X175689Y-14764D02*
Y-12796D01*
X171260Y-6890D02*
X173228D01*
X172244Y-7874D02*
Y-5906D01*
X174704Y124015D02*
X176673D01*
X175689Y123031D02*
Y125000D01*
X171260Y130905D02*
X173228D01*
X172244Y129921D02*
Y131889D01*
X181594Y124015D02*
X183563D01*
X182578Y123031D02*
Y125000D01*
X178149Y130905D02*
X180118D01*
X179134Y129921D02*
Y131889D01*
X188484Y124015D02*
X190453D01*
X189468Y123031D02*
Y125000D01*
X185039Y130905D02*
X187008D01*
X186023Y129921D02*
Y131889D01*
X195374Y124015D02*
X197342D01*
X196358Y123031D02*
Y125000D01*
X191929Y130905D02*
X193897D01*
X192913Y129921D02*
Y131889D01*
M02*
