G04 Layer_Color=32768*
%FSLAX25Y25*%
%MOIN*%
G70*
G01*
G75*
%ADD17C,0.00787*%
%ADD61C,0.00394*%
%ADD62C,0.00197*%
D17*
X0Y177165D02*
X393701D01*
Y-177165D02*
Y177165D01*
X0Y-177165D02*
Y177165D01*
Y-177165D02*
X393701D01*
D61*
X246063Y43307D02*
Y47244D01*
X244094Y45276D02*
X248031D01*
X218504Y61024D02*
Y64961D01*
X216535Y62992D02*
X220472D01*
X218504Y45276D02*
Y49213D01*
X216535Y47244D02*
X220472D01*
X205118Y39370D02*
X231496D01*
X205118Y55118D02*
X231496D01*
Y39370D02*
Y55118D01*
X205118Y39370D02*
Y55118D01*
X246063Y-47244D02*
Y-43307D01*
X244094Y-45276D02*
X248031D01*
X196063Y-38780D02*
Y-26181D01*
X189764Y-38780D02*
X196063D01*
X189764D02*
Y-26181D01*
X196063D01*
X202953Y-20079D02*
Y-7480D01*
X196653Y-20079D02*
X202953D01*
X196653D02*
Y-7480D01*
X202953D01*
X188819Y92126D02*
Y104724D01*
X195118D01*
Y92126D02*
Y104724D01*
X188819Y92126D02*
X195118D01*
X200000Y72441D02*
Y85039D01*
X193701Y72441D02*
X200000D01*
X193701D02*
Y85039D01*
X200000D01*
X218504Y-96457D02*
Y-92520D01*
X216535Y-94488D02*
X220472D01*
X205118Y-118110D02*
Y-102362D01*
X231496Y-118110D02*
Y-102362D01*
X205118D02*
X231496D01*
X205118Y-118110D02*
X231496D01*
X216535Y-110236D02*
X220472D01*
X218504Y-112205D02*
Y-108268D01*
Y-80709D02*
Y-76772D01*
X216535Y-78740D02*
X220472D01*
X218504Y-45276D02*
Y-41339D01*
X216535Y-43307D02*
X220472D01*
X205118Y-51181D02*
X231496D01*
X205118Y-35433D02*
X231496D01*
Y-51181D02*
Y-35433D01*
X205118Y-51181D02*
Y-35433D01*
X218504Y-29528D02*
Y-25591D01*
X216535Y-27559D02*
X220472D01*
X218504Y-13780D02*
Y-9843D01*
X216535Y-11811D02*
X220472D01*
X218504Y76772D02*
Y80709D01*
X216535Y78740D02*
X220472D01*
X205118Y106299D02*
Y122047D01*
X231496Y106299D02*
Y122047D01*
X205118D02*
X231496D01*
X205118Y106299D02*
X231496D01*
X216535Y114173D02*
X220472D01*
X218504Y112205D02*
Y116142D01*
X218406Y127953D02*
Y131890D01*
X216437Y129921D02*
X220374D01*
X218504Y143701D02*
Y147638D01*
X216535Y145669D02*
X220472D01*
X244094Y-112205D02*
X248031D01*
X246063Y-114173D02*
Y-110236D01*
Y110236D02*
Y114173D01*
X244094Y112205D02*
X248031D01*
X244094Y45276D02*
X248031D01*
X246063Y43307D02*
Y47244D01*
Y-114173D02*
Y-110236D01*
X244094Y-112205D02*
X248031D01*
X246063Y-47244D02*
Y-43307D01*
X244094Y-45276D02*
X248031D01*
X246063Y110236D02*
Y114173D01*
X244094Y112205D02*
X248031D01*
X132677Y-27953D02*
Y-24016D01*
X130709Y-25984D02*
X134646D01*
X152362D02*
X156299D01*
X154331Y-27953D02*
Y-24016D01*
X174016Y-25984D02*
X177953D01*
X175984Y-27953D02*
Y-24016D01*
X197638Y-27953D02*
Y-24016D01*
X195669Y-25984D02*
X199606D01*
D62*
X203150Y55315D02*
X233858D01*
X203150Y70669D02*
X233858D01*
Y55315D02*
Y70669D01*
X203150Y55315D02*
Y70669D01*
X203150Y-102165D02*
X233858D01*
X203150Y-86811D02*
X233858D01*
Y-102165D02*
Y-86811D01*
X203150Y-102165D02*
Y-86811D01*
Y-86417D02*
X233858D01*
X203150Y-71063D02*
X233858D01*
Y-86417D02*
Y-71063D01*
X203150Y-86417D02*
Y-71063D01*
Y-35236D02*
X233858D01*
X203150Y-19882D02*
X233858D01*
Y-35236D02*
Y-19882D01*
X203150Y-35236D02*
Y-19882D01*
Y-19488D02*
X233858D01*
X203150Y-4134D02*
X233858D01*
Y-19488D02*
Y-4134D01*
X203150Y-19488D02*
Y-4134D01*
X203150Y71063D02*
X233858D01*
X203150Y86417D02*
X233858D01*
Y71063D02*
Y86417D01*
X203150Y71063D02*
Y86417D01*
X203051Y122244D02*
X233760D01*
X203051Y137598D02*
X233760D01*
Y122244D02*
Y137598D01*
X203051Y122244D02*
Y137598D01*
X203150Y137992D02*
X233858D01*
X203150Y153346D02*
X233858D01*
Y137992D02*
Y153346D01*
X203150Y137992D02*
Y153346D01*
X119882Y-9843D02*
X145473D01*
X119882Y-42126D02*
X145473D01*
X119882D02*
Y-9843D01*
X145473Y-42126D02*
Y-9843D01*
X163386Y-39567D02*
Y-12402D01*
X145276Y-39567D02*
Y-12402D01*
Y-39567D02*
X163386D01*
X145276Y-12402D02*
X163386D01*
X188779Y-42126D02*
Y-9843D01*
X163189Y-42126D02*
Y-9843D01*
Y-42126D02*
X188779D01*
X163189Y-9843D02*
X188779D01*
X188583Y-12402D02*
X206693D01*
X188583Y-39567D02*
X206693D01*
X188583D02*
Y-12402D01*
X206693Y-39567D02*
Y-12402D01*
M02*
