M48
;Layer_Color=9474304
;FILE_FORMAT=2:5
INCH,TZ
;TYPE=PLATED
T1F00S00C0.01968
T2F00S00C0.03346
T3F00S00C0.03937
T4F00S00C0.04331
T5F00S00C0.06299
T6F00S00C0.07874
T7F00S00C0.12598
T8F00S00C0.17717
T9F00S00C0.25000
%
T01
X12795Y-169414
X19685Y-171260
X26575Y-169414
X31618Y-164370
X33465Y-157480
X45276
X47122Y-164370
X52165Y-169414
X59055Y-171260
X65945Y-169414
X70989Y-164370
X72835Y-157480
X124016
X5906
X7752Y-164370
X125862
X130905Y-169414
X137795Y-171260
X144685Y-169414
X149729Y-164370
X154577Y-162352
X159449Y-164370
X164321Y-162352
X166339Y-157480
X164321Y-152609
X154577
X152559Y-157480
X192913
X194760Y-164370
X199803Y-169414
X206693Y-171260
X213583Y-169414
X218626Y-164370
X220472Y-157480
X367126Y-130044
X374016Y-131890
X380906Y-130044
X385949Y-125000
X387795Y-118110
X385949Y-111221
X380906Y-106177
X374016Y-104331
X367126Y-106177
X362082Y-111221
X360236Y-118110
X362082Y-125000
X367126Y-11933
X374016Y-13780
X380906Y-11933
X385949Y-6890
X387795Y0
X360236
X362082Y-6890
X250935Y-40404
X246063Y-38386
X241191Y-40404
X239173Y-45276
X241191Y-50147
X246063Y-52165
X250935Y-50147
X252953Y-45276
X250935Y-61861
X252953Y-66732
X250935Y-71604
X246063Y-73622
X241191Y-71604
Y-61861
X246063Y-59842
Y-105315
X250935Y-107333
X252953Y-112205
X250935Y-117077
X246063Y-119095
X241191Y-117077
X239173Y-112205
X241191Y-107333
Y-128790
X246063Y-126772
X250935Y-128790
X252953Y-133661
X250935Y-138533
X246063Y-140551
X241191Y-138533
X218626Y-150591
X213583Y-145547
X206693Y-143701
X199803Y-145547
X194760Y-150591
X159449
X149729
X144685Y-145547
X137795Y-143701
X130905Y-145547
X125862Y-150591
X154577Y-122982
X152559Y-118110
X154577Y-113238
X159449Y-111221
X164321Y-113238
X166339Y-118110
X164321Y-122982
X159449Y-125000
Y-16732
X154577Y-14714
X152559Y-9843
X154577Y-4971
X155019Y-0
X148130
X141240
X137795Y-6890
X144685
X141240Y-13780
X148130
X144685Y-20670
X137795
X151575
X165354
X172244
X168799Y-13780
X164321Y-14714
X166339Y-9843
X164321Y-4971
X159449Y-2953
X168799Y-0
X172244Y-6890
X175689Y-13780
X65945Y-86492
X59055Y-84646
X52165Y-86492
X47122Y-91535
X45276Y-98425
X47122Y-105315
X52165Y-110359
X59055Y-112205
X65945Y-110359
X70989Y-105315
X72835Y-98425
X70989Y-91535
X31618
X33465Y-98425
X31618Y-105315
X26575Y-110359
X19685Y-112205
X12795Y-110359
X7752Y-105315
X5906Y-98425
X7752Y-91535
X12795Y-86492
X19685Y-84646
X26575Y-86492
Y-145547
X19685Y-143701
X12795Y-145547
X7752Y-150591
X31618
X47122
X52165Y-145547
X59055Y-143701
X65945Y-145547
X70989Y-150591
X65945Y86492
X59055Y84646
X52165Y86492
X47122Y91535
X45276Y98425
X47122Y105315
X52165Y110359
X59055Y112205
X65945Y110359
X70989Y105315
X72835Y98425
X70989Y91535
X31618
X33465Y98425
X31618Y105315
X26575Y110359
X19685Y112205
X12795Y110359
X7752Y105315
X5906Y98425
X7752Y91535
X12795Y86492
X19685Y84646
X26575Y86492
Y145547
X19685Y143701
X12795Y145547
X7752Y150591
X5906Y157480
X33465
X31618Y150591
X47122
X45276Y157480
X52165Y145547
X59055Y143701
X65945Y145547
X70989Y150591
X72835Y157480
X124016Y157480
X125862Y150591
X130905Y145547
X137795Y143701
X144685Y145547
X149729Y150591
X151575Y157480
X163386
X165232Y150591
X170276Y145547
X177165Y143701
X184055Y145547
X189099Y150591
X190945Y157480
X192913Y130905
X186023
X179134
X172244
X165354
X158464
X151575
X144685
X137795
X141240Y124015
X148130
X155019
X161909
X168799
X175689
X182578
X189468
X196358
X161909Y137795
X155019
X148130
X141240
X137795Y117126
X144685
X151575
X148130Y110236
X141240
X137795Y103346
X144685
X151575
X148130Y96456
X141240
X137795Y89566
X144685
X151575
X148130Y82677
X141240
X137795Y75787
X144685
X151575
X148130Y68897
X141240
X137795Y62007
X144685
X151575
X148130Y55118
X141240
X137795Y48228
X144685
X151575
X148130Y41338
X141240
X137795Y34449
X144685
X151575
X148130Y27559
X141240
X137795Y20669
X144685
X151575
X148130Y13779
X141240
X137795Y6889
X144685
X151575
X158464
X155019Y13779
Y27559
Y41338
Y55118
Y68897
Y82677
Y96456
Y110236
X158464Y144685
X181102Y90551
Y86614
X241191Y85876
X246063Y83858
X250935Y85876
X252953Y90748
X250935Y95620
X246063Y97638
X241191Y95620
Y107333
X239173Y112205
X241191Y117077
X246063Y119095
X250935Y117077
X252953Y112205
X250935Y107333
X246063Y105315
Y52165
X241191Y50147
X239173Y45276
X241191Y40404
X246063Y38386
X250935Y40404
X252953Y45276
X250935Y50147
Y28691
X252953Y23819
X250935Y18947
X246063Y16929
X241191Y18947
Y28691
X246063Y30709
X367126Y11933
X374016Y13780
X380906Y11933
X385949Y6890
X362082
Y111221
X360236Y118110
X362082Y125000
X367126Y130044
X374016Y131890
X380906Y130044
X385949Y125000
X387795Y118110
X385949Y111221
X380906Y106177
X374016Y104331
X367126Y106177
X189099Y164370
X184055Y169414
X177165Y171260
X170276Y169414
X165232Y164370
X149729
X144685Y169414
X137795Y171260
X130905Y169414
X125862Y164370
X70989Y164370
X65945Y169414
X59055Y171260
X52165Y169414
X47122Y164370
X31618
X26575Y169414
X19685Y171260
X12795Y169414
X7752Y164370
T02
X211122Y-86614
X225886
Y-19685
X211122
X211122Y70866
X225886
X225886Y137795
X211122
T03
X159449Y-157480
Y-118110
Y-9843
T04
X164291Y23898
Y33898
Y43898
Y53898
Y63898
Y73898
Y83898
Y93898
Y103898
Y113898
X174291
Y103898
Y93898
Y83898
Y73898
Y63898
Y53898
Y43898
Y33898
Y23898
T05
X246063Y-133661
Y-112205
Y-90748
Y-66732
Y-45276
Y-23819
Y23819
Y45276
Y66732
Y90748
Y112205
Y133661
T06
X41339Y-70866
X80709
Y70866
X41339
T07
X272638Y-137795
Y-78740
Y78740
Y137795
T08
X19685Y-157480
X59055
X98425
X137795
X206693
X302165Y-157480
X374016Y-157480
Y-118110
Y0
X302165
X19685
X19685Y-98425
X59055
X59055Y98425
X19685
Y157480
X59055
X98425
X137795Y157480
X177165
X302165Y157480
X374016Y157480
Y118110
T09
X323228Y-112205
Y-45276
Y45276
Y112205
M30
