G04 Layer_Color=255*
%FSLAX25Y25*%
%MOIN*%
G70*
G01*
G75*
%ADD17C,0.00787*%
%ADD18R,0.11811X0.11811*%
%ADD19C,0.11811*%
%ADD20R,0.11811X0.11811*%
%ADD21C,0.06299*%
%ADD22R,0.06299X0.06299*%
%ADD23C,0.12598*%
%ADD24C,0.05905*%
%ADD25C,0.33465*%
%ADD26C,0.17716*%
%ADD27C,0.25000*%
%ADD29R,0.21654X0.07480*%
%ADD30R,0.14173X0.07087*%
D17*
X0Y177165D02*
X393701D01*
Y-177165D02*
Y177165D01*
X0Y-177165D02*
Y177165D01*
Y-177165D02*
X393701D01*
D18*
X80709Y-70866D02*
D03*
Y70866D02*
D03*
D19*
X41339Y-70866D02*
D03*
X246063Y23819D02*
D03*
Y45276D02*
D03*
Y-66732D02*
D03*
Y-45276D02*
D03*
X159449Y-118110D02*
D03*
Y-9843D02*
D03*
Y-157480D02*
D03*
X246063Y-112205D02*
D03*
Y-133661D02*
D03*
Y90748D02*
D03*
Y112205D02*
D03*
Y45276D02*
D03*
Y23819D02*
D03*
Y-133661D02*
D03*
Y-112205D02*
D03*
Y-66732D02*
D03*
Y-45276D02*
D03*
Y90748D02*
D03*
Y112205D02*
D03*
X41339Y70866D02*
D03*
X135827Y98425D02*
D03*
Y49213D02*
D03*
Y68898D02*
D03*
Y9843D02*
D03*
D03*
Y68898D02*
D03*
D20*
X246063Y66732D02*
D03*
Y-23819D02*
D03*
Y-90748D02*
D03*
Y133661D02*
D03*
Y66732D02*
D03*
Y-90748D02*
D03*
Y-23819D02*
D03*
Y133661D02*
D03*
D21*
X164291Y113898D02*
D03*
X174291D02*
D03*
X164291Y103898D02*
D03*
X174291D02*
D03*
X164291Y93898D02*
D03*
X174291D02*
D03*
X164291Y83898D02*
D03*
X174291D02*
D03*
X164291Y73898D02*
D03*
X174291D02*
D03*
X164291Y63898D02*
D03*
X174291D02*
D03*
X164291Y53898D02*
D03*
X174291D02*
D03*
X164291Y43898D02*
D03*
X174291D02*
D03*
X164291Y33898D02*
D03*
X174291D02*
D03*
X164291Y23898D02*
D03*
D22*
X174291D02*
D03*
D23*
X272638Y-137795D02*
D03*
Y-78740D02*
D03*
Y78740D02*
D03*
Y137795D02*
D03*
D24*
X225886Y-19685D02*
D03*
X211122D02*
D03*
Y-86614D02*
D03*
X225886D02*
D03*
Y137795D02*
D03*
X211122D02*
D03*
X211122Y70866D02*
D03*
X225886D02*
D03*
D25*
X19685Y157480D02*
D03*
X19685Y-157480D02*
D03*
X59055Y157480D02*
D03*
X19685Y98425D02*
D03*
X59055Y-157480D02*
D03*
X19685Y-98425D02*
D03*
X59055D02*
D03*
X59055Y98425D02*
D03*
X374016Y-118110D02*
D03*
Y0D02*
D03*
Y118110D02*
D03*
X206693Y-157480D02*
D03*
X177165Y157480D02*
D03*
X137795D02*
D03*
Y-157480D02*
D03*
D26*
X374016D02*
D03*
X302165Y-157480D02*
D03*
X374016Y157480D02*
D03*
X302165Y157480D02*
D03*
Y0D02*
D03*
X98425Y157480D02*
D03*
X98425Y-157480D02*
D03*
X19685Y0D02*
D03*
D27*
X323228Y112205D02*
D03*
Y45276D02*
D03*
Y-45276D02*
D03*
Y-112205D02*
D03*
D29*
X132677Y-15551D02*
D03*
Y-36417D02*
D03*
X175984D02*
D03*
Y-15551D02*
D03*
D30*
X154331Y-34055D02*
D03*
Y-17913D02*
D03*
X197638D02*
D03*
Y-34055D02*
D03*
M02*
