G04 Layer_Color=2752767*
%FSLAX25Y25*%
%MOIN*%
G70*
G01*
G75*
%ADD17C,0.00787*%
%ADD58C,0.00200*%
%ADD59C,0.00267*%
D17*
X0Y177165D02*
X393701D01*
Y-177165D02*
Y177165D01*
X0Y-177165D02*
Y177165D01*
Y-177165D02*
X393701D01*
D58*
X79909Y-71666D02*
Y-70066D01*
X81509D01*
Y-71666D01*
X79909D01*
X40539D02*
Y-70066D01*
X42139D01*
Y-71666D01*
X40539D01*
X164291Y113098D02*
X163491Y114698D01*
X165091D01*
X164291Y113098D01*
X174291D02*
X173491Y114698D01*
X175091D01*
X174291Y113098D01*
X164291Y103098D02*
X163491Y104698D01*
X165091D01*
X164291Y103098D01*
X174291D02*
X173491Y104698D01*
X175091D01*
X174291Y103098D01*
X164291Y93098D02*
X163491Y94698D01*
X165091D01*
X164291Y93098D01*
X174291D02*
X173491Y94698D01*
X175091D01*
X174291Y93098D01*
X164291Y83098D02*
X163491Y84698D01*
X165091D01*
X164291Y83098D01*
X174291D02*
X173491Y84698D01*
X175091D01*
X174291Y83098D01*
X164291Y73098D02*
X163491Y74698D01*
X165091D01*
X164291Y73098D01*
X174291D02*
X173491Y74698D01*
X175091D01*
X174291Y73098D01*
X164291Y63098D02*
X163491Y64698D01*
X165091D01*
X164291Y63098D01*
X174291D02*
X173491Y64698D01*
X175091D01*
X174291Y63098D01*
X164291Y53098D02*
X163491Y54698D01*
X165091D01*
X164291Y53098D01*
X174291D02*
X173491Y54698D01*
X175091D01*
X174291Y53098D01*
X164291Y43098D02*
X163491Y44698D01*
X165091D01*
X164291Y43098D01*
X174291D02*
X173491Y44698D01*
X175091D01*
X174291Y43098D01*
X164291Y33098D02*
X163491Y34698D01*
X165091D01*
X164291Y33098D01*
X174291D02*
X173491Y34698D01*
X175091D01*
X174291Y33098D01*
X164291Y23098D02*
X163491Y24698D01*
X165091D01*
X164291Y23098D01*
X174291D02*
X173491Y24698D01*
X175091D01*
X174291Y23098D01*
X272638Y-138595D02*
X273038Y-138195D01*
X273438D01*
X273038Y-137795D01*
X273438Y-137395D01*
X273038D01*
X272638Y-136995D01*
X272238Y-137395D01*
X271838D01*
X272238Y-137795D01*
X271838Y-138195D01*
X272238D01*
X272638Y-138595D01*
Y-79540D02*
X273038Y-79140D01*
X273438D01*
X273038Y-78740D01*
X273438Y-78340D01*
X273038D01*
X272638Y-77940D01*
X272238Y-78340D01*
X271838D01*
X272238Y-78740D01*
X271838Y-79140D01*
X272238D01*
X272638Y-79540D01*
Y77940D02*
X273038Y78340D01*
X273438D01*
X273038Y78740D01*
X273438Y79140D01*
X273038D01*
X272638Y79540D01*
X272238Y79140D01*
X271838D01*
X272238Y78740D01*
X271838Y78340D01*
X272238D01*
X272638Y77940D01*
Y136995D02*
X273038Y137395D01*
X273438D01*
X273038Y137795D01*
X273438Y138195D01*
X273038D01*
X272638Y138595D01*
X272238Y138195D01*
X271838D01*
X272238Y137795D01*
X271838Y137395D01*
X272238D01*
X272638Y136995D01*
X225086Y-20485D02*
X225486Y-19685D01*
X225086Y-18885D01*
X225886Y-19285D01*
X226686Y-18885D01*
X226286Y-19685D01*
X226686Y-20485D01*
X225886Y-20085D01*
X225086Y-20485D01*
X210322D02*
X210722Y-19685D01*
X210322Y-18885D01*
X211122Y-19285D01*
X211922Y-18885D01*
X211522Y-19685D01*
X211922Y-20485D01*
X211122Y-20085D01*
X210322Y-20485D01*
X159049Y-118510D02*
Y-118910D01*
X159849D01*
Y-118510D01*
X160249D01*
Y-117710D01*
X159849D01*
Y-117310D01*
X159049D01*
Y-117710D01*
X158649D01*
Y-118510D01*
X159049D01*
Y-10243D02*
Y-10643D01*
X159849D01*
Y-10243D01*
X160249D01*
Y-9443D01*
X159849D01*
Y-9042D01*
X159049D01*
Y-9443D01*
X158649D01*
Y-10243D01*
X159049D01*
Y-157880D02*
Y-158280D01*
X159849D01*
Y-157880D01*
X160249D01*
Y-157080D01*
X159849D01*
Y-156680D01*
X159049D01*
Y-157080D01*
X158649D01*
Y-157880D01*
X159049D01*
X18885Y156680D02*
X19285D01*
X19685Y157080D01*
X20085Y156680D01*
X20485D01*
Y157080D01*
X20085Y157480D01*
X20485Y157880D01*
Y158280D01*
X20085D01*
X19685Y157880D01*
X19285Y158280D01*
X18885D01*
Y157880D01*
X19285Y157480D01*
X18885Y157080D01*
Y156680D01*
X18885Y-158280D02*
X19285D01*
X19685Y-157880D01*
X20085Y-158280D01*
X20485D01*
Y-157880D01*
X20085Y-157480D01*
X20485Y-157080D01*
Y-156680D01*
X20085D01*
X19685Y-157080D01*
X19285Y-156680D01*
X18885D01*
Y-157080D01*
X19285Y-157480D01*
X18885Y-157880D01*
Y-158280D01*
X58255Y156680D02*
X58655D01*
X59055Y157080D01*
X59455Y156680D01*
X59855D01*
Y157080D01*
X59455Y157480D01*
X59855Y157880D01*
Y158280D01*
X59455D01*
X59055Y157880D01*
X58655Y158280D01*
X58255D01*
Y157880D01*
X58655Y157480D01*
X58255Y157080D01*
Y156680D01*
X18885Y97625D02*
X19285D01*
X19685Y98025D01*
X20085Y97625D01*
X20485D01*
Y98025D01*
X20085Y98425D01*
X20485Y98825D01*
Y99225D01*
X20085D01*
X19685Y98825D01*
X19285Y99225D01*
X18885D01*
Y98825D01*
X19285Y98425D01*
X18885Y98025D01*
Y97625D01*
X58255Y-158280D02*
X58655D01*
X59055Y-157880D01*
X59455Y-158280D01*
X59855D01*
Y-157880D01*
X59455Y-157480D01*
X59855Y-157080D01*
Y-156680D01*
X59455D01*
X59055Y-157080D01*
X58655Y-156680D01*
X58255D01*
Y-157080D01*
X58655Y-157480D01*
X58255Y-157880D01*
Y-158280D01*
X18885Y-99225D02*
X19285D01*
X19685Y-98825D01*
X20085Y-99225D01*
X20485D01*
Y-98825D01*
X20085Y-98425D01*
X20485Y-98025D01*
Y-97625D01*
X20085D01*
X19685Y-98025D01*
X19285Y-97625D01*
X18885D01*
Y-98025D01*
X19285Y-98425D01*
X18885Y-98825D01*
Y-99225D01*
X58255D02*
X58655D01*
X59055Y-98825D01*
X59455Y-99225D01*
X59855D01*
Y-98825D01*
X59455Y-98425D01*
X59855Y-98025D01*
Y-97625D01*
X59455D01*
X59055Y-98025D01*
X58655Y-97625D01*
X58255D01*
Y-98025D01*
X58655Y-98425D01*
X58255Y-98825D01*
Y-99225D01*
X58255Y97625D02*
X58655D01*
X59055Y98025D01*
X59455Y97625D01*
X59855D01*
Y98025D01*
X59455Y98425D01*
X59855Y98825D01*
Y99225D01*
X59455D01*
X59055Y98825D01*
X58655Y99225D01*
X58255D01*
Y98825D01*
X58655Y98425D01*
X58255Y98025D01*
Y97625D01*
X373216Y-158280D02*
X373616D01*
X374016Y-157880D01*
X374416Y-158280D01*
X374816D01*
Y-157880D01*
X374416Y-157480D01*
X374816Y-157080D01*
Y-156680D01*
X374416D01*
X374016Y-157080D01*
X373616Y-156680D01*
X373216D01*
Y-157080D01*
X373616Y-157480D01*
X373216Y-157880D01*
Y-158280D01*
Y-118910D02*
X373616D01*
X374016Y-118510D01*
X374416Y-118910D01*
X374816D01*
Y-118510D01*
X374416Y-118110D01*
X374816Y-117710D01*
Y-117310D01*
X374416D01*
X374016Y-117710D01*
X373616Y-117310D01*
X373216D01*
Y-117710D01*
X373616Y-118110D01*
X373216Y-118510D01*
Y-118910D01*
Y-800D02*
X373616D01*
X374016Y-400D01*
X374416Y-800D01*
X374816D01*
Y-400D01*
X374416Y0D01*
X374816Y400D01*
Y800D01*
X374416D01*
X374016Y400D01*
X373616Y800D01*
X373216D01*
Y400D01*
X373616Y0D01*
X373216Y-400D01*
Y-800D01*
X301365Y-158280D02*
X301765D01*
X302165Y-157880D01*
X302565Y-158280D01*
X302965D01*
Y-157880D01*
X302565Y-157480D01*
X302965Y-157080D01*
Y-156680D01*
X302565D01*
X302165Y-157080D01*
X301765Y-156680D01*
X301365D01*
Y-157080D01*
X301765Y-157480D01*
X301365Y-157880D01*
Y-158280D01*
X373216Y156680D02*
X373616D01*
X374016Y157080D01*
X374416Y156680D01*
X374816D01*
Y157080D01*
X374416Y157480D01*
X374816Y157880D01*
Y158280D01*
X374416D01*
X374016Y157880D01*
X373616Y158280D01*
X373216D01*
Y157880D01*
X373616Y157480D01*
X373216Y157080D01*
Y156680D01*
X301365Y156680D02*
X301765D01*
X302165Y157080D01*
X302565Y156680D01*
X302965D01*
Y157080D01*
X302565Y157480D01*
X302965Y157880D01*
Y158280D01*
X302565D01*
X302165Y157880D01*
X301765Y158280D01*
X301365D01*
Y157880D01*
X301765Y157480D01*
X301365Y157080D01*
Y156680D01*
Y-800D02*
X301765D01*
X302165Y-400D01*
X302565Y-800D01*
X302965D01*
Y-400D01*
X302565Y0D01*
X302965Y400D01*
Y800D01*
X302565D01*
X302165Y400D01*
X301765Y800D01*
X301365D01*
Y400D01*
X301765Y0D01*
X301365Y-400D01*
Y-800D01*
X210322Y-87414D02*
X210722Y-86614D01*
X210322Y-85814D01*
X211122Y-86214D01*
X211922Y-85814D01*
X211522Y-86614D01*
X211922Y-87414D01*
X211122Y-87014D01*
X210322Y-87414D01*
X225086D02*
X225486Y-86614D01*
X225086Y-85814D01*
X225886Y-86214D01*
X226686Y-85814D01*
X226286Y-86614D01*
X226686Y-87414D01*
X225886Y-87014D01*
X225086Y-87414D01*
Y136995D02*
X225486Y137795D01*
X225086Y138595D01*
X225886Y138195D01*
X226686Y138595D01*
X226286Y137795D01*
X226686Y136995D01*
X225886Y137395D01*
X225086Y136995D01*
X210322D02*
X210722Y137795D01*
X210322Y138595D01*
X211122Y138195D01*
X211922Y138595D01*
X211522Y137795D01*
X211922Y136995D01*
X211122Y137395D01*
X210322Y136995D01*
X210322Y70066D02*
X210722Y70866D01*
X210322Y71666D01*
X211122Y71266D01*
X211922Y71666D01*
X211522Y70866D01*
X211922Y70066D01*
X211122Y70466D01*
X210322Y70066D01*
X225086D02*
X225486Y70866D01*
X225086Y71666D01*
X225886Y71266D01*
X226686Y71666D01*
X226286Y70866D01*
X226686Y70066D01*
X225886Y70466D01*
X225086Y70066D01*
X322428Y112205D02*
X323228Y113005D01*
X324028Y112205D01*
X323228Y111405D01*
X322428Y112205D01*
Y45276D02*
X323228Y46076D01*
X324028Y45276D01*
X323228Y44476D01*
X322428Y45276D01*
Y-45276D02*
X323228Y-44476D01*
X324028Y-45276D01*
X323228Y-46076D01*
X322428Y-45276D01*
Y-112205D02*
X323228Y-111405D01*
X324028Y-112205D01*
X323228Y-113005D01*
X322428Y-112205D01*
X373216Y117310D02*
X373616D01*
X374016Y117710D01*
X374416Y117310D01*
X374816D01*
Y117710D01*
X374416Y118110D01*
X374816Y118510D01*
Y118910D01*
X374416D01*
X374016Y118510D01*
X373616Y118910D01*
X373216D01*
Y118510D01*
X373616Y118110D01*
X373216Y117710D01*
Y117310D01*
X205893Y-158280D02*
X206293D01*
X206693Y-157880D01*
X207093Y-158280D01*
X207493D01*
Y-157880D01*
X207093Y-157480D01*
X207493Y-157080D01*
Y-156680D01*
X207093D01*
X206693Y-157080D01*
X206293Y-156680D01*
X205893D01*
Y-157080D01*
X206293Y-157480D01*
X205893Y-157880D01*
Y-158280D01*
X176365Y156680D02*
X176765D01*
X177165Y157080D01*
X177565Y156680D01*
X177965D01*
Y157080D01*
X177565Y157480D01*
X177965Y157880D01*
Y158280D01*
X177565D01*
X177165Y157880D01*
X176765Y158280D01*
X176365D01*
Y157880D01*
X176765Y157480D01*
X176365Y157080D01*
Y156680D01*
X79909Y70066D02*
Y71666D01*
X81509D01*
Y70066D01*
X79909D01*
X40539D02*
Y71666D01*
X42139D01*
Y70066D01*
X40539D01*
X97625Y156680D02*
X98025D01*
X98425Y157080D01*
X98825Y156680D01*
X99225D01*
Y157080D01*
X98825Y157480D01*
X99225Y157880D01*
Y158280D01*
X98825D01*
X98425Y157880D01*
X98025Y158280D01*
X97625D01*
Y157880D01*
X98025Y157480D01*
X97625Y157080D01*
Y156680D01*
X97625Y-158280D02*
X98025D01*
X98425Y-157880D01*
X98825Y-158280D01*
X99225D01*
Y-157880D01*
X98825Y-157480D01*
X99225Y-157080D01*
Y-156680D01*
X98825D01*
X98425Y-157080D01*
X98025Y-156680D01*
X97625D01*
Y-157080D01*
X98025Y-157480D01*
X97625Y-157880D01*
Y-158280D01*
X18885Y-800D02*
X19285D01*
X19685Y-400D01*
X20085Y-800D01*
X20485D01*
Y-400D01*
X20085Y0D01*
X20485Y400D01*
Y800D01*
X20085D01*
X19685Y400D01*
X19285Y800D01*
X18885D01*
Y400D01*
X19285Y0D01*
X18885Y-400D01*
Y-800D01*
X136995Y156680D02*
X137395D01*
X137795Y157080D01*
X138195Y156680D01*
X138595D01*
Y157080D01*
X138195Y157480D01*
X138595Y157880D01*
Y158280D01*
X138195D01*
X137795Y157880D01*
X137395Y158280D01*
X136995D01*
Y157880D01*
X137395Y157480D01*
X136995Y157080D01*
Y156680D01*
Y-158280D02*
X137395D01*
X137795Y-157880D01*
X138195Y-158280D01*
X138595D01*
Y-157880D01*
X138195Y-157480D01*
X138595Y-157080D01*
Y-156680D01*
X138195D01*
X137795Y-157080D01*
X137395Y-156680D01*
X136995D01*
Y-157080D01*
X137395Y-157480D01*
X136995Y-157880D01*
Y-158280D01*
X180302Y85814D02*
Y87414D01*
X181902D01*
Y85814D01*
X180302D01*
X180702Y86214D02*
Y87014D01*
X181502D01*
Y86214D01*
X180702D01*
X163521Y-153409D02*
Y-151809D01*
X165121D01*
Y-153409D01*
X163521D01*
X163921Y-153008D02*
Y-152208D01*
X164721D01*
Y-153008D01*
X163921D01*
X158649Y-165170D02*
Y-163570D01*
X160249D01*
Y-165170D01*
X158649D01*
X159049Y-164770D02*
Y-163970D01*
X159849D01*
Y-164770D01*
X159049D01*
X153777Y-153409D02*
Y-151809D01*
X155377D01*
Y-153409D01*
X153777D01*
X154177Y-153008D02*
Y-152208D01*
X154977D01*
Y-153008D01*
X154177D01*
X158649Y-151391D02*
Y-149791D01*
X160249D01*
Y-151391D01*
X158649D01*
X159049Y-150991D02*
Y-150191D01*
X159849D01*
Y-150991D01*
X159049D01*
X165539Y-158280D02*
Y-156680D01*
X167139D01*
Y-158280D01*
X165539D01*
X165939Y-157880D02*
Y-157080D01*
X166739D01*
Y-157880D01*
X165939D01*
X163521Y-163152D02*
Y-161552D01*
X165121D01*
Y-163152D01*
X163521D01*
X163921Y-162752D02*
Y-161952D01*
X164721D01*
Y-162752D01*
X163921D01*
X153777Y-163152D02*
Y-161552D01*
X155377D01*
Y-163152D01*
X153777D01*
X154177Y-162752D02*
Y-161952D01*
X154977D01*
Y-162752D01*
X154177D01*
X153777Y-123782D02*
Y-122182D01*
X155377D01*
Y-123782D01*
X153777D01*
X154177Y-123382D02*
Y-122582D01*
X154977D01*
Y-123382D01*
X154177D01*
X151759Y-118910D02*
Y-117310D01*
X153359D01*
Y-118910D01*
X151759D01*
X152159Y-118510D02*
Y-117710D01*
X152959D01*
Y-118510D01*
X152159D01*
X163521Y-123782D02*
Y-122182D01*
X165121D01*
Y-123782D01*
X163521D01*
X163921Y-123382D02*
Y-122582D01*
X164721D01*
Y-123382D01*
X163921D01*
X165539Y-118910D02*
Y-117310D01*
X167139D01*
Y-118910D01*
X165539D01*
X165939Y-118510D02*
Y-117710D01*
X166739D01*
Y-118510D01*
X165939D01*
X158649Y-112021D02*
Y-110421D01*
X160249D01*
Y-112021D01*
X158649D01*
X159049Y-111620D02*
Y-110820D01*
X159849D01*
Y-111620D01*
X159049D01*
X180302Y89751D02*
Y91351D01*
X181902D01*
Y89751D01*
X180302D01*
X180702Y90151D02*
Y90951D01*
X181502D01*
Y90151D01*
X180702D01*
X240391Y-72404D02*
Y-70804D01*
X241991D01*
Y-72404D01*
X240391D01*
X240791Y-72004D02*
Y-71204D01*
X241591D01*
Y-72004D01*
X240791D01*
X240391Y-62660D02*
Y-61061D01*
X241991D01*
Y-62660D01*
X240391D01*
X240791Y-62261D02*
Y-61461D01*
X241591D01*
Y-62261D01*
X240791D01*
X250135Y-72404D02*
Y-70804D01*
X251735D01*
Y-72404D01*
X250135D01*
X250535Y-72004D02*
Y-71204D01*
X251335D01*
Y-72004D01*
X250535D01*
X250135Y-62660D02*
Y-61061D01*
X251735D01*
Y-62660D01*
X250135D01*
X250535Y-62261D02*
Y-61461D01*
X251335D01*
Y-62261D01*
X250535D01*
X252153Y-67532D02*
Y-65932D01*
X253753D01*
Y-67532D01*
X252153D01*
X252553Y-67132D02*
Y-66332D01*
X253353D01*
Y-67132D01*
X252553D01*
X245263Y-60642D02*
Y-59043D01*
X246863D01*
Y-60642D01*
X245263D01*
X245663Y-60242D02*
Y-59443D01*
X246463D01*
Y-60242D01*
X245663D01*
X245263Y-74422D02*
Y-72822D01*
X246863D01*
Y-74422D01*
X245263D01*
X245663Y-74022D02*
Y-73222D01*
X246463D01*
Y-74022D01*
X245663D01*
X245263Y-141351D02*
Y-139751D01*
X246863D01*
Y-141351D01*
X245263D01*
X245663Y-140951D02*
Y-140151D01*
X246463D01*
Y-140951D01*
X245663D01*
X245263Y-127572D02*
Y-125972D01*
X246863D01*
Y-127572D01*
X245263D01*
X245663Y-127172D02*
Y-126372D01*
X246463D01*
Y-127172D01*
X245663D01*
X252153Y-134461D02*
Y-132861D01*
X253753D01*
Y-134461D01*
X252153D01*
X252553Y-134061D02*
Y-133261D01*
X253353D01*
Y-134061D01*
X252553D01*
X250135Y-129590D02*
Y-127990D01*
X251735D01*
Y-129590D01*
X250135D01*
X250535Y-129190D02*
Y-128390D01*
X251335D01*
Y-129190D01*
X250535D01*
X250135Y-139333D02*
Y-137733D01*
X251735D01*
Y-139333D01*
X250135D01*
X250535Y-138933D02*
Y-138133D01*
X251335D01*
Y-138933D01*
X250535D01*
X240391Y-129590D02*
Y-127990D01*
X241991D01*
Y-129590D01*
X240391D01*
X240791Y-129190D02*
Y-128390D01*
X241591D01*
Y-129190D01*
X240791D01*
X240391Y-139333D02*
Y-137733D01*
X241991D01*
Y-139333D01*
X240391D01*
X240791Y-138933D02*
Y-138133D01*
X241591D01*
Y-138933D01*
X240791D01*
X252153Y-113005D02*
Y-111405D01*
X253753D01*
Y-113005D01*
X252153D01*
X252553Y-112605D02*
Y-111805D01*
X253353D01*
Y-112605D01*
X252553D01*
X250135Y-108133D02*
Y-106533D01*
X251735D01*
Y-108133D01*
X250135D01*
X250535Y-107733D02*
Y-106933D01*
X251335D01*
Y-107733D01*
X250535D01*
X250135Y-117877D02*
Y-116277D01*
X251735D01*
Y-117877D01*
X250135D01*
X250535Y-117476D02*
Y-116676D01*
X251335D01*
Y-117476D01*
X250535D01*
X240391Y-117877D02*
Y-116277D01*
X241991D01*
Y-117877D01*
X240391D01*
X240791Y-117476D02*
Y-116676D01*
X241591D01*
Y-117476D01*
X240791D01*
X245263Y-106115D02*
Y-104515D01*
X246863D01*
Y-106115D01*
X245263D01*
X245663Y-105715D02*
Y-104915D01*
X246463D01*
Y-105715D01*
X245663D01*
X245263Y-119895D02*
Y-118295D01*
X246863D01*
Y-119895D01*
X245263D01*
X245663Y-119494D02*
Y-118694D01*
X246463D01*
Y-119494D01*
X245663D01*
X238373Y-113005D02*
Y-111405D01*
X239973D01*
Y-113005D01*
X238373D01*
X238773Y-112605D02*
Y-111805D01*
X239573D01*
Y-112605D01*
X238773D01*
X240391Y-108133D02*
Y-106533D01*
X241991D01*
Y-108133D01*
X240391D01*
X240791Y-107733D02*
Y-106933D01*
X241591D01*
Y-107733D01*
X240791D01*
X240391Y-41204D02*
Y-39604D01*
X241991D01*
Y-41204D01*
X240391D01*
X240791Y-40804D02*
Y-40004D01*
X241591D01*
Y-40804D01*
X240791D01*
X238373Y-46076D02*
Y-44476D01*
X239973D01*
Y-46076D01*
X238373D01*
X238773Y-45676D02*
Y-44876D01*
X239573D01*
Y-45676D01*
X238773D01*
X245263Y-52965D02*
Y-51365D01*
X246863D01*
Y-52965D01*
X245263D01*
X245663Y-52565D02*
Y-51765D01*
X246463D01*
Y-52565D01*
X245663D01*
X245263Y-39186D02*
Y-37586D01*
X246863D01*
Y-39186D01*
X245263D01*
X245663Y-38786D02*
Y-37986D01*
X246463D01*
Y-38786D01*
X245663D01*
X240391Y-50947D02*
Y-49347D01*
X241991D01*
Y-50947D01*
X240391D01*
X240791Y-50547D02*
Y-49747D01*
X241591D01*
Y-50547D01*
X240791D01*
X250135Y-50947D02*
Y-49347D01*
X251735D01*
Y-50947D01*
X250135D01*
X250535Y-50547D02*
Y-49747D01*
X251335D01*
Y-50547D01*
X250535D01*
X250135Y-41204D02*
Y-39604D01*
X251735D01*
Y-41204D01*
X250135D01*
X250535Y-40804D02*
Y-40004D01*
X251335D01*
Y-40804D01*
X250535D01*
X252153Y-46076D02*
Y-44476D01*
X253753D01*
Y-46076D01*
X252153D01*
X252553Y-45676D02*
Y-44876D01*
X253353D01*
Y-45676D01*
X252553D01*
X240391Y49347D02*
Y50947D01*
X241991D01*
Y49347D01*
X240391D01*
X240791Y49747D02*
Y50547D01*
X241591D01*
Y49747D01*
X240791D01*
X238373Y44476D02*
Y46076D01*
X239973D01*
Y44476D01*
X238373D01*
X238773Y44876D02*
Y45676D01*
X239573D01*
Y44876D01*
X238773D01*
X245263Y37586D02*
Y39186D01*
X246863D01*
Y37586D01*
X245263D01*
X245663Y37986D02*
Y38786D01*
X246463D01*
Y37986D01*
X245663D01*
X245263Y51365D02*
Y52965D01*
X246863D01*
Y51365D01*
X245263D01*
X245663Y51765D02*
Y52565D01*
X246463D01*
Y51765D01*
X245663D01*
X240391Y39604D02*
Y41204D01*
X241991D01*
Y39604D01*
X240391D01*
X240791Y40004D02*
Y40804D01*
X241591D01*
Y40004D01*
X240791D01*
X250135Y39604D02*
Y41204D01*
X251735D01*
Y39604D01*
X250135D01*
X250535Y40004D02*
Y40804D01*
X251335D01*
Y40004D01*
X250535D01*
X250135Y49347D02*
Y50947D01*
X251735D01*
Y49347D01*
X250135D01*
X250535Y49747D02*
Y50547D01*
X251335D01*
Y49747D01*
X250535D01*
X252153Y44476D02*
Y46076D01*
X253753D01*
Y44476D01*
X252153D01*
X252553Y44876D02*
Y45676D01*
X253353D01*
Y44876D01*
X252553D01*
X240391Y116277D02*
Y117877D01*
X241991D01*
Y116277D01*
X240391D01*
X240791Y116676D02*
Y117476D01*
X241591D01*
Y116676D01*
X240791D01*
X238373Y111405D02*
Y113005D01*
X239973D01*
Y111405D01*
X238373D01*
X238773Y111805D02*
Y112605D01*
X239573D01*
Y111805D01*
X238773D01*
X245263Y104515D02*
Y106115D01*
X246863D01*
Y104515D01*
X245263D01*
X245663Y104915D02*
Y105715D01*
X246463D01*
Y104915D01*
X245663D01*
X245263Y118295D02*
Y119895D01*
X246863D01*
Y118295D01*
X245263D01*
X245663Y118694D02*
Y119494D01*
X246463D01*
Y118694D01*
X245663D01*
X240391Y106533D02*
Y108133D01*
X241991D01*
Y106533D01*
X240391D01*
X240791Y106933D02*
Y107733D01*
X241591D01*
Y106933D01*
X240791D01*
X250135Y106533D02*
Y108133D01*
X251735D01*
Y106533D01*
X250135D01*
X250535Y106933D02*
Y107733D01*
X251335D01*
Y106933D01*
X250535D01*
X250135Y116277D02*
Y117877D01*
X251735D01*
Y116277D01*
X250135D01*
X250535Y116676D02*
Y117476D01*
X251335D01*
Y116676D01*
X250535D01*
X252153Y111405D02*
Y113005D01*
X253753D01*
Y111405D01*
X252153D01*
X252553Y111805D02*
Y112605D01*
X253353D01*
Y111805D01*
X252553D01*
X240391Y18147D02*
Y19747D01*
X241991D01*
Y18147D01*
X240391D01*
X240791Y18547D02*
Y19347D01*
X241591D01*
Y18547D01*
X240791D01*
X240391Y27891D02*
Y29491D01*
X241991D01*
Y27891D01*
X240391D01*
X240791Y28291D02*
Y29091D01*
X241591D01*
Y28291D01*
X240791D01*
X250135Y18147D02*
Y19747D01*
X251735D01*
Y18147D01*
X250135D01*
X250535Y18547D02*
Y19347D01*
X251335D01*
Y18547D01*
X250535D01*
X250135Y27891D02*
Y29491D01*
X251735D01*
Y27891D01*
X250135D01*
X250535Y28291D02*
Y29091D01*
X251335D01*
Y28291D01*
X250535D01*
X252153Y23019D02*
Y24619D01*
X253753D01*
Y23019D01*
X252153D01*
X252553Y23419D02*
Y24219D01*
X253353D01*
Y23419D01*
X252553D01*
X245263Y29909D02*
Y31509D01*
X246863D01*
Y29909D01*
X245263D01*
X245663Y30309D02*
Y31109D01*
X246463D01*
Y30309D01*
X245663D01*
X245263Y16129D02*
Y17729D01*
X246863D01*
Y16129D01*
X245263D01*
X245663Y16529D02*
Y17329D01*
X246463D01*
Y16529D01*
X245663D01*
X240391Y85076D02*
Y86676D01*
X241991D01*
Y85076D01*
X240391D01*
X240791Y85476D02*
Y86276D01*
X241591D01*
Y85476D01*
X240791D01*
X240391Y94820D02*
Y96420D01*
X241991D01*
Y94820D01*
X240391D01*
X240791Y95220D02*
Y96020D01*
X241591D01*
Y95220D01*
X240791D01*
X250135Y85076D02*
Y86676D01*
X251735D01*
Y85076D01*
X250135D01*
X250535Y85476D02*
Y86276D01*
X251335D01*
Y85476D01*
X250535D01*
X250135Y94820D02*
Y96420D01*
X251735D01*
Y94820D01*
X250135D01*
X250535Y95220D02*
Y96020D01*
X251335D01*
Y95220D01*
X250535D01*
X252153Y89948D02*
Y91548D01*
X253753D01*
Y89948D01*
X252153D01*
X252553Y90348D02*
Y91148D01*
X253353D01*
Y90348D01*
X252553D01*
X245263Y96838D02*
Y98438D01*
X246863D01*
Y96838D01*
X245263D01*
X245663Y97238D02*
Y98038D01*
X246463D01*
Y97238D01*
X245663D01*
X245263Y83058D02*
Y84658D01*
X246863D01*
Y83058D01*
X245263D01*
X245663Y83458D02*
Y84258D01*
X246463D01*
Y83458D01*
X245663D01*
X153777Y-5771D02*
Y-4171D01*
X155377D01*
Y-5771D01*
X153777D01*
X154177Y-5371D02*
Y-4571D01*
X154977D01*
Y-5371D01*
X154177D01*
X151759Y-10643D02*
Y-9042D01*
X153359D01*
Y-10643D01*
X151759D01*
X152159Y-10243D02*
Y-9443D01*
X152959D01*
Y-10243D01*
X152159D01*
X158649Y-17532D02*
Y-15932D01*
X160249D01*
Y-17532D01*
X158649D01*
X159049Y-17132D02*
Y-16332D01*
X159849D01*
Y-17132D01*
X159049D01*
X158649Y-3753D02*
Y-2153D01*
X160249D01*
Y-3753D01*
X158649D01*
X159049Y-3353D02*
Y-2553D01*
X159849D01*
Y-3353D01*
X159049D01*
X153777Y-15514D02*
Y-13914D01*
X155377D01*
Y-15514D01*
X153777D01*
X154177Y-15114D02*
Y-14314D01*
X154977D01*
Y-15114D01*
X154177D01*
X163521Y-15514D02*
Y-13914D01*
X165121D01*
Y-15514D01*
X163521D01*
X163921Y-15114D02*
Y-14314D01*
X164721D01*
Y-15114D01*
X163921D01*
X163521Y-5771D02*
Y-4171D01*
X165121D01*
Y-5771D01*
X163521D01*
X163921Y-5371D02*
Y-4571D01*
X164721D01*
Y-5371D01*
X163921D01*
X165539Y-10643D02*
Y-9042D01*
X167139D01*
Y-10643D01*
X165539D01*
X165939Y-10243D02*
Y-9443D01*
X166739D01*
Y-10243D01*
X165939D01*
X153777Y-114038D02*
Y-112438D01*
X155377D01*
Y-114038D01*
X153777D01*
X154177Y-113638D02*
Y-112838D01*
X154977D01*
Y-113638D01*
X154177D01*
X158649Y-125800D02*
Y-124200D01*
X160249D01*
Y-125800D01*
X158649D01*
X159049Y-125400D02*
Y-124600D01*
X159849D01*
Y-125400D01*
X159049D01*
X163521Y-114038D02*
Y-112438D01*
X165121D01*
Y-114038D01*
X163521D01*
X163921Y-113638D02*
Y-112838D01*
X164721D01*
Y-113638D01*
X163921D01*
X25775Y-87292D02*
Y-85692D01*
X27375D01*
Y-87292D01*
X25775D01*
X26175Y-86892D02*
Y-86092D01*
X26975D01*
Y-86892D01*
X26175D01*
X32665Y-99225D02*
Y-97625D01*
X34265D01*
Y-99225D01*
X32665D01*
X33065Y-98825D02*
Y-98025D01*
X33865D01*
Y-98825D01*
X33065D01*
X30818Y-92335D02*
Y-90735D01*
X32418D01*
Y-92335D01*
X30818D01*
X31218Y-91935D02*
Y-91135D01*
X32018D01*
Y-91935D01*
X31218D01*
X30818Y-106115D02*
Y-104515D01*
X32418D01*
Y-106115D01*
X30818D01*
X31218Y-105715D02*
Y-104915D01*
X32018D01*
Y-105715D01*
X31218D01*
X18885Y-113005D02*
Y-111405D01*
X20485D01*
Y-113005D01*
X18885D01*
X19285Y-112605D02*
Y-111805D01*
X20085D01*
Y-112605D01*
X19285D01*
X25775Y-111159D02*
Y-109559D01*
X27375D01*
Y-111159D01*
X25775D01*
X26175Y-110759D02*
Y-109959D01*
X26975D01*
Y-110759D01*
X26175D01*
X11995Y-111159D02*
Y-109559D01*
X13595D01*
Y-111159D01*
X11995D01*
X12395Y-110759D02*
Y-109959D01*
X13195D01*
Y-110759D01*
X12395D01*
X5105Y-99225D02*
Y-97625D01*
X6706D01*
Y-99225D01*
X5105D01*
X5505Y-98825D02*
Y-98025D01*
X6306D01*
Y-98825D01*
X5505D01*
X6952Y-106115D02*
Y-104515D01*
X8552D01*
Y-106115D01*
X6952D01*
X7352Y-105715D02*
Y-104915D01*
X8152D01*
Y-105715D01*
X7352D01*
X11995Y-87292D02*
Y-85692D01*
X13595D01*
Y-87292D01*
X11995D01*
X12395Y-86892D02*
Y-86092D01*
X13195D01*
Y-86892D01*
X12395D01*
X18885Y-85446D02*
Y-83846D01*
X20485D01*
Y-85446D01*
X18885D01*
X19285Y-85046D02*
Y-84246D01*
X20085D01*
Y-85046D01*
X19285D01*
X6952Y-92335D02*
Y-90735D01*
X8552D01*
Y-92335D01*
X6952D01*
X7352Y-91935D02*
Y-91135D01*
X8152D01*
Y-91935D01*
X7352D01*
X65145Y-87292D02*
Y-85692D01*
X66745D01*
Y-87292D01*
X65145D01*
X65545Y-86892D02*
Y-86092D01*
X66345D01*
Y-86892D01*
X65545D01*
X72035Y-99225D02*
Y-97625D01*
X73635D01*
Y-99225D01*
X72035D01*
X72435Y-98825D02*
Y-98025D01*
X73235D01*
Y-98825D01*
X72435D01*
X70188Y-92335D02*
Y-90735D01*
X71789D01*
Y-92335D01*
X70188D01*
X70588Y-91935D02*
Y-91135D01*
X71389D01*
Y-91935D01*
X70588D01*
X70188Y-106115D02*
Y-104515D01*
X71789D01*
Y-106115D01*
X70188D01*
X70588Y-105715D02*
Y-104915D01*
X71389D01*
Y-105715D01*
X70588D01*
X58255Y-113005D02*
Y-111405D01*
X59855D01*
Y-113005D01*
X58255D01*
X58655Y-112605D02*
Y-111805D01*
X59455D01*
Y-112605D01*
X58655D01*
X65145Y-111159D02*
Y-109559D01*
X66745D01*
Y-111159D01*
X65145D01*
X65545Y-110759D02*
Y-109959D01*
X66345D01*
Y-110759D01*
X65545D01*
X51365Y-111159D02*
Y-109559D01*
X52965D01*
Y-111159D01*
X51365D01*
X51765Y-110759D02*
Y-109959D01*
X52565D01*
Y-110759D01*
X51765D01*
X44476Y-99225D02*
Y-97625D01*
X46076D01*
Y-99225D01*
X44476D01*
X44876Y-98825D02*
Y-98025D01*
X45676D01*
Y-98825D01*
X44876D01*
X46322Y-106115D02*
Y-104515D01*
X47922D01*
Y-106115D01*
X46322D01*
X46722Y-105715D02*
Y-104915D01*
X47522D01*
Y-105715D01*
X46722D01*
X51365Y-87292D02*
Y-85692D01*
X52965D01*
Y-87292D01*
X51365D01*
X51765Y-86892D02*
Y-86092D01*
X52565D01*
Y-86892D01*
X51765D01*
X58255Y-85446D02*
Y-83846D01*
X59855D01*
Y-85446D01*
X58255D01*
X58655Y-85046D02*
Y-84246D01*
X59455D01*
Y-85046D01*
X58655D01*
X46322Y-92335D02*
Y-90735D01*
X47922D01*
Y-92335D01*
X46322D01*
X46722Y-91935D02*
Y-91135D01*
X47522D01*
Y-91935D01*
X46722D01*
X65145Y-146347D02*
Y-144747D01*
X66745D01*
Y-146347D01*
X65145D01*
X65545Y-145947D02*
Y-145147D01*
X66345D01*
Y-145947D01*
X65545D01*
X72035Y-158280D02*
Y-156680D01*
X73635D01*
Y-158280D01*
X72035D01*
X72435Y-157880D02*
Y-157080D01*
X73235D01*
Y-157880D01*
X72435D01*
X70188Y-151391D02*
Y-149791D01*
X71789D01*
Y-151391D01*
X70188D01*
X70588Y-150991D02*
Y-150191D01*
X71389D01*
Y-150991D01*
X70588D01*
X70188Y-165170D02*
Y-163570D01*
X71789D01*
Y-165170D01*
X70188D01*
X70588Y-164770D02*
Y-163970D01*
X71389D01*
Y-164770D01*
X70588D01*
X58255Y-172060D02*
Y-170460D01*
X59855D01*
Y-172060D01*
X58255D01*
X58655Y-171660D02*
Y-170860D01*
X59455D01*
Y-171660D01*
X58655D01*
X65145Y-170214D02*
Y-168614D01*
X66745D01*
Y-170214D01*
X65145D01*
X65545Y-169814D02*
Y-169014D01*
X66345D01*
Y-169814D01*
X65545D01*
X51365Y-170214D02*
Y-168614D01*
X52965D01*
Y-170214D01*
X51365D01*
X51765Y-169814D02*
Y-169014D01*
X52565D01*
Y-169814D01*
X51765D01*
X44476Y-158280D02*
Y-156680D01*
X46076D01*
Y-158280D01*
X44476D01*
X44876Y-157880D02*
Y-157080D01*
X45676D01*
Y-157880D01*
X44876D01*
X46322Y-165170D02*
Y-163570D01*
X47922D01*
Y-165170D01*
X46322D01*
X46722Y-164770D02*
Y-163970D01*
X47522D01*
Y-164770D01*
X46722D01*
X51365Y-146347D02*
Y-144747D01*
X52965D01*
Y-146347D01*
X51365D01*
X51765Y-145947D02*
Y-145147D01*
X52565D01*
Y-145947D01*
X51765D01*
X58255Y-144501D02*
Y-142901D01*
X59855D01*
Y-144501D01*
X58255D01*
X58655Y-144101D02*
Y-143301D01*
X59455D01*
Y-144101D01*
X58655D01*
X46322Y-151391D02*
Y-149791D01*
X47922D01*
Y-151391D01*
X46322D01*
X46722Y-150991D02*
Y-150191D01*
X47522D01*
Y-150991D01*
X46722D01*
X25775Y-146347D02*
Y-144747D01*
X27375D01*
Y-146347D01*
X25775D01*
X26175Y-145947D02*
Y-145147D01*
X26975D01*
Y-145947D01*
X26175D01*
X32665Y-158280D02*
Y-156680D01*
X34265D01*
Y-158280D01*
X32665D01*
X33065Y-157880D02*
Y-157080D01*
X33865D01*
Y-157880D01*
X33065D01*
X30818Y-151391D02*
Y-149791D01*
X32418D01*
Y-151391D01*
X30818D01*
X31218Y-150991D02*
Y-150191D01*
X32018D01*
Y-150991D01*
X31218D01*
X30818Y-165170D02*
Y-163570D01*
X32418D01*
Y-165170D01*
X30818D01*
X31218Y-164770D02*
Y-163970D01*
X32018D01*
Y-164770D01*
X31218D01*
X18885Y-172060D02*
Y-170460D01*
X20485D01*
Y-172060D01*
X18885D01*
X19285Y-171660D02*
Y-170860D01*
X20085D01*
Y-171660D01*
X19285D01*
X25775Y-170214D02*
Y-168614D01*
X27375D01*
Y-170214D01*
X25775D01*
X26175Y-169814D02*
Y-169014D01*
X26975D01*
Y-169814D01*
X26175D01*
X11995Y-170214D02*
Y-168614D01*
X13595D01*
Y-170214D01*
X11995D01*
X12395Y-169814D02*
Y-169014D01*
X13195D01*
Y-169814D01*
X12395D01*
X5105Y-158280D02*
Y-156680D01*
X6706D01*
Y-158280D01*
X5105D01*
X5505Y-157880D02*
Y-157080D01*
X6306D01*
Y-157880D01*
X5505D01*
X6952Y-165170D02*
Y-163570D01*
X8552D01*
Y-165170D01*
X6952D01*
X7352Y-164770D02*
Y-163970D01*
X8152D01*
Y-164770D01*
X7352D01*
X11995Y-146347D02*
Y-144747D01*
X13595D01*
Y-146347D01*
X11995D01*
X12395Y-145947D02*
Y-145147D01*
X13195D01*
Y-145947D01*
X12395D01*
X18885Y-144501D02*
Y-142901D01*
X20485D01*
Y-144501D01*
X18885D01*
X19285Y-144101D02*
Y-143301D01*
X20085D01*
Y-144101D01*
X19285D01*
X6952Y-151391D02*
Y-149791D01*
X8552D01*
Y-151391D01*
X6952D01*
X7352Y-150991D02*
Y-150191D01*
X8152D01*
Y-150991D01*
X7352D01*
X65145Y109559D02*
Y111159D01*
X66745D01*
Y109559D01*
X65145D01*
X65545Y109959D02*
Y110759D01*
X66345D01*
Y109959D01*
X65545D01*
X72035Y97625D02*
Y99225D01*
X73635D01*
Y97625D01*
X72035D01*
X72435Y98025D02*
Y98825D01*
X73235D01*
Y98025D01*
X72435D01*
X70188Y104515D02*
Y106115D01*
X71789D01*
Y104515D01*
X70188D01*
X70588Y104915D02*
Y105715D01*
X71389D01*
Y104915D01*
X70588D01*
X70188Y90735D02*
Y92335D01*
X71789D01*
Y90735D01*
X70188D01*
X70588Y91135D02*
Y91935D01*
X71389D01*
Y91135D01*
X70588D01*
X58255Y83846D02*
Y85446D01*
X59855D01*
Y83846D01*
X58255D01*
X58655Y84246D02*
Y85046D01*
X59455D01*
Y84246D01*
X58655D01*
X65145Y85692D02*
Y87292D01*
X66745D01*
Y85692D01*
X65145D01*
X65545Y86092D02*
Y86892D01*
X66345D01*
Y86092D01*
X65545D01*
X51365Y85692D02*
Y87292D01*
X52965D01*
Y85692D01*
X51365D01*
X51765Y86092D02*
Y86892D01*
X52565D01*
Y86092D01*
X51765D01*
X44476Y97625D02*
Y99225D01*
X46076D01*
Y97625D01*
X44476D01*
X44876Y98025D02*
Y98825D01*
X45676D01*
Y98025D01*
X44876D01*
X46322Y90735D02*
Y92335D01*
X47922D01*
Y90735D01*
X46322D01*
X46722Y91135D02*
Y91935D01*
X47522D01*
Y91135D01*
X46722D01*
X51365Y109559D02*
Y111159D01*
X52965D01*
Y109559D01*
X51365D01*
X51765Y109959D02*
Y110759D01*
X52565D01*
Y109959D01*
X51765D01*
X58255Y111405D02*
Y113005D01*
X59855D01*
Y111405D01*
X58255D01*
X58655Y111805D02*
Y112605D01*
X59455D01*
Y111805D01*
X58655D01*
X46322Y104515D02*
Y106115D01*
X47922D01*
Y104515D01*
X46322D01*
X46722Y104915D02*
Y105715D01*
X47522D01*
Y104915D01*
X46722D01*
X25775Y109559D02*
Y111159D01*
X27375D01*
Y109559D01*
X25775D01*
X26175Y109959D02*
Y110759D01*
X26975D01*
Y109959D01*
X26175D01*
X32665Y97625D02*
Y99225D01*
X34265D01*
Y97625D01*
X32665D01*
X33065Y98025D02*
Y98825D01*
X33865D01*
Y98025D01*
X33065D01*
X30819Y104515D02*
Y106115D01*
X32419D01*
Y104515D01*
X30819D01*
X31218Y104915D02*
Y105715D01*
X32019D01*
Y104915D01*
X31218D01*
X30819Y90735D02*
Y92335D01*
X32419D01*
Y90735D01*
X30819D01*
X31218Y91135D02*
Y91935D01*
X32019D01*
Y91135D01*
X31218D01*
X18885Y83846D02*
Y85446D01*
X20485D01*
Y83846D01*
X18885D01*
X19285Y84246D02*
Y85046D01*
X20085D01*
Y84246D01*
X19285D01*
X25775Y85692D02*
Y87292D01*
X27375D01*
Y85692D01*
X25775D01*
X26175Y86092D02*
Y86892D01*
X26975D01*
Y86092D01*
X26175D01*
X11995Y85692D02*
Y87292D01*
X13595D01*
Y85692D01*
X11995D01*
X12395Y86092D02*
Y86892D01*
X13195D01*
Y86092D01*
X12395D01*
X5105Y97625D02*
Y99225D01*
X6706D01*
Y97625D01*
X5105D01*
X5505Y98025D02*
Y98825D01*
X6306D01*
Y98025D01*
X5505D01*
X6952Y90735D02*
Y92335D01*
X8552D01*
Y90735D01*
X6952D01*
X7352Y91135D02*
Y91935D01*
X8152D01*
Y91135D01*
X7352D01*
X11995Y109559D02*
Y111159D01*
X13595D01*
Y109559D01*
X11995D01*
X12395Y109959D02*
Y110759D01*
X13195D01*
Y109959D01*
X12395D01*
X18885Y111405D02*
Y113005D01*
X20485D01*
Y111405D01*
X18885D01*
X19285Y111805D02*
Y112605D01*
X20085D01*
Y111805D01*
X19285D01*
X6952Y104515D02*
Y106115D01*
X8552D01*
Y104515D01*
X6952D01*
X7352Y104915D02*
Y105715D01*
X8152D01*
Y104915D01*
X7352D01*
X65145Y168614D02*
Y170214D01*
X66745D01*
Y168614D01*
X65145D01*
X65545Y169014D02*
Y169814D01*
X66345D01*
Y169014D01*
X65545D01*
X72035Y156680D02*
Y158280D01*
X73635D01*
Y156680D01*
X72035D01*
X72435Y157080D02*
Y157880D01*
X73235D01*
Y157080D01*
X72435D01*
X70188Y163570D02*
Y165170D01*
X71789D01*
Y163570D01*
X70188D01*
X70588Y163970D02*
Y164770D01*
X71389D01*
Y163970D01*
X70588D01*
X70188Y149791D02*
Y151391D01*
X71789D01*
Y149791D01*
X70188D01*
X70588Y150191D02*
Y150991D01*
X71389D01*
Y150191D01*
X70588D01*
X58255Y142901D02*
Y144501D01*
X59855D01*
Y142901D01*
X58255D01*
X58655Y143301D02*
Y144101D01*
X59455D01*
Y143301D01*
X58655D01*
X65145Y144747D02*
Y146347D01*
X66745D01*
Y144747D01*
X65145D01*
X65545Y145147D02*
Y145947D01*
X66345D01*
Y145147D01*
X65545D01*
X51365Y144747D02*
Y146347D01*
X52965D01*
Y144747D01*
X51365D01*
X51765Y145147D02*
Y145947D01*
X52565D01*
Y145147D01*
X51765D01*
X44476Y156680D02*
Y158280D01*
X46076D01*
Y156680D01*
X44476D01*
X44876Y157080D02*
Y157880D01*
X45676D01*
Y157080D01*
X44876D01*
X46322Y149791D02*
Y151391D01*
X47922D01*
Y149791D01*
X46322D01*
X46722Y150191D02*
Y150991D01*
X47522D01*
Y150191D01*
X46722D01*
X51365Y168614D02*
Y170214D01*
X52965D01*
Y168614D01*
X51365D01*
X51765Y169014D02*
Y169814D01*
X52565D01*
Y169014D01*
X51765D01*
X58255Y170460D02*
Y172060D01*
X59855D01*
Y170460D01*
X58255D01*
X58655Y170860D02*
Y171660D01*
X59455D01*
Y170860D01*
X58655D01*
X46322Y163570D02*
Y165170D01*
X47922D01*
Y163570D01*
X46322D01*
X46722Y163970D02*
Y164770D01*
X47522D01*
Y163970D01*
X46722D01*
X25775Y168614D02*
Y170214D01*
X27375D01*
Y168614D01*
X25775D01*
X26175Y169014D02*
Y169814D01*
X26975D01*
Y169014D01*
X26175D01*
X32665Y156680D02*
Y158280D01*
X34265D01*
Y156680D01*
X32665D01*
X33065Y157080D02*
Y157880D01*
X33865D01*
Y157080D01*
X33065D01*
X30819Y163570D02*
Y165170D01*
X32419D01*
Y163570D01*
X30819D01*
X31218Y163970D02*
Y164770D01*
X32019D01*
Y163970D01*
X31218D01*
X30819Y149791D02*
Y151391D01*
X32419D01*
Y149791D01*
X30819D01*
X31218Y150191D02*
Y150991D01*
X32019D01*
Y150191D01*
X31218D01*
X18885Y142901D02*
Y144501D01*
X20485D01*
Y142901D01*
X18885D01*
X19285Y143301D02*
Y144101D01*
X20085D01*
Y143301D01*
X19285D01*
X25775Y144747D02*
Y146347D01*
X27375D01*
Y144747D01*
X25775D01*
X26175Y145147D02*
Y145947D01*
X26975D01*
Y145147D01*
X26175D01*
X11995Y144747D02*
Y146347D01*
X13595D01*
Y144747D01*
X11995D01*
X12395Y145147D02*
Y145947D01*
X13195D01*
Y145147D01*
X12395D01*
X5105Y156680D02*
Y158280D01*
X6706D01*
Y156680D01*
X5105D01*
X5505Y157080D02*
Y157880D01*
X6306D01*
Y157080D01*
X5505D01*
X6952Y149791D02*
Y151391D01*
X8552D01*
Y149791D01*
X6952D01*
X7352Y150191D02*
Y150991D01*
X8152D01*
Y150191D01*
X7352D01*
X11995Y168614D02*
Y170214D01*
X13595D01*
Y168614D01*
X11995D01*
X12395Y169014D02*
Y169814D01*
X13195D01*
Y169014D01*
X12395D01*
X18885Y170460D02*
Y172060D01*
X20485D01*
Y170460D01*
X18885D01*
X19285Y170860D02*
Y171660D01*
X20085D01*
Y170860D01*
X19285D01*
X6952Y163570D02*
Y165170D01*
X8552D01*
Y163570D01*
X6952D01*
X7352Y163970D02*
Y164770D01*
X8152D01*
Y163970D01*
X7352D01*
X380105Y-106977D02*
Y-105377D01*
X381705D01*
Y-106977D01*
X380105D01*
X380505Y-106577D02*
Y-105777D01*
X381306D01*
Y-106577D01*
X380505D01*
X386995Y-118910D02*
Y-117310D01*
X388595D01*
Y-118910D01*
X386995D01*
X387395Y-118510D02*
Y-117710D01*
X388195D01*
Y-118510D01*
X387395D01*
X385149Y-112021D02*
Y-110421D01*
X386749D01*
Y-112021D01*
X385149D01*
X385549Y-111620D02*
Y-110820D01*
X386349D01*
Y-111620D01*
X385549D01*
X385149Y-125800D02*
Y-124200D01*
X386749D01*
Y-125800D01*
X385149D01*
X385549Y-125400D02*
Y-124600D01*
X386349D01*
Y-125400D01*
X385549D01*
X373216Y-132690D02*
Y-131090D01*
X374816D01*
Y-132690D01*
X373216D01*
X373616Y-132290D02*
Y-131490D01*
X374416D01*
Y-132290D01*
X373616D01*
X380105Y-130844D02*
Y-129244D01*
X381705D01*
Y-130844D01*
X380105D01*
X380505Y-130444D02*
Y-129644D01*
X381306D01*
Y-130444D01*
X380505D01*
X366326Y-130844D02*
Y-129244D01*
X367926D01*
Y-130844D01*
X366326D01*
X366726Y-130444D02*
Y-129644D01*
X367526D01*
Y-130444D01*
X366726D01*
X359436Y-118910D02*
Y-117310D01*
X361036D01*
Y-118910D01*
X359436D01*
X359836Y-118510D02*
Y-117710D01*
X360636D01*
Y-118510D01*
X359836D01*
X361282Y-125800D02*
Y-124200D01*
X362882D01*
Y-125800D01*
X361282D01*
X361682Y-125400D02*
Y-124600D01*
X362482D01*
Y-125400D01*
X361682D01*
X366326Y-106977D02*
Y-105377D01*
X367926D01*
Y-106977D01*
X366326D01*
X366726Y-106577D02*
Y-105777D01*
X367526D01*
Y-106577D01*
X366726D01*
X373216Y-105131D02*
Y-103531D01*
X374816D01*
Y-105131D01*
X373216D01*
X373616Y-104731D02*
Y-103931D01*
X374416D01*
Y-104731D01*
X373616D01*
X361282Y-112021D02*
Y-110421D01*
X362882D01*
Y-112021D01*
X361282D01*
X361682Y-111620D02*
Y-110820D01*
X362482D01*
Y-111620D01*
X361682D01*
X380105Y11133D02*
Y12733D01*
X381705D01*
Y11133D01*
X380105D01*
X380505Y11533D02*
Y12333D01*
X381306D01*
Y11533D01*
X380505D01*
X386995Y-800D02*
Y800D01*
X388595D01*
Y-800D01*
X386995D01*
X387395Y-400D02*
Y400D01*
X388195D01*
Y-400D01*
X387395D01*
X385149Y6090D02*
Y7690D01*
X386749D01*
Y6090D01*
X385149D01*
X385549Y6490D02*
Y7290D01*
X386349D01*
Y6490D01*
X385549D01*
X385149Y-7690D02*
Y-6090D01*
X386749D01*
Y-7690D01*
X385149D01*
X385549Y-7290D02*
Y-6490D01*
X386349D01*
Y-7290D01*
X385549D01*
X373216Y-14580D02*
Y-12979D01*
X374816D01*
Y-14580D01*
X373216D01*
X373616Y-14179D02*
Y-13379D01*
X374416D01*
Y-14179D01*
X373616D01*
X380105Y-12733D02*
Y-11133D01*
X381705D01*
Y-12733D01*
X380105D01*
X380505Y-12333D02*
Y-11533D01*
X381306D01*
Y-12333D01*
X380505D01*
X366326Y-12733D02*
Y-11133D01*
X367926D01*
Y-12733D01*
X366326D01*
X366726Y-12333D02*
Y-11533D01*
X367526D01*
Y-12333D01*
X366726D01*
X359436Y-800D02*
Y800D01*
X361036D01*
Y-800D01*
X359436D01*
X359836Y-400D02*
Y400D01*
X360636D01*
Y-400D01*
X359836D01*
X361282Y-7690D02*
Y-6090D01*
X362882D01*
Y-7690D01*
X361282D01*
X361682Y-7290D02*
Y-6490D01*
X362482D01*
Y-7290D01*
X361682D01*
X366326Y11133D02*
Y12733D01*
X367926D01*
Y11133D01*
X366326D01*
X366726Y11533D02*
Y12333D01*
X367526D01*
Y11533D01*
X366726D01*
X373216Y12979D02*
Y14580D01*
X374816D01*
Y12979D01*
X373216D01*
X373616Y13379D02*
Y14179D01*
X374416D01*
Y13379D01*
X373616D01*
X361282Y6090D02*
Y7690D01*
X362882D01*
Y6090D01*
X361282D01*
X361682Y6490D02*
Y7290D01*
X362482D01*
Y6490D01*
X361682D01*
X361282Y124200D02*
Y125800D01*
X362882D01*
Y124200D01*
X361282D01*
X361682Y124600D02*
Y125400D01*
X362482D01*
Y124600D01*
X361682D01*
X373216Y131090D02*
Y132690D01*
X374816D01*
Y131090D01*
X373216D01*
X373616Y131490D02*
Y132290D01*
X374416D01*
Y131490D01*
X373616D01*
X366326Y129244D02*
Y130844D01*
X367926D01*
Y129244D01*
X366326D01*
X366726Y129644D02*
Y130444D01*
X367526D01*
Y129644D01*
X366726D01*
X361282Y110421D02*
Y112021D01*
X362882D01*
Y110421D01*
X361282D01*
X361682Y110820D02*
Y111620D01*
X362482D01*
Y110820D01*
X361682D01*
X359436Y117310D02*
Y118910D01*
X361036D01*
Y117310D01*
X359436D01*
X359836Y117710D02*
Y118510D01*
X360636D01*
Y117710D01*
X359836D01*
X366326Y105377D02*
Y106977D01*
X367926D01*
Y105377D01*
X366326D01*
X366726Y105777D02*
Y106577D01*
X367526D01*
Y105777D01*
X366726D01*
X380105Y105377D02*
Y106977D01*
X381705D01*
Y105377D01*
X380105D01*
X380505Y105777D02*
Y106577D01*
X381306D01*
Y105777D01*
X380505D01*
X373216Y103531D02*
Y105131D01*
X374816D01*
Y103531D01*
X373216D01*
X373616Y103931D02*
Y104731D01*
X374416D01*
Y103931D01*
X373616D01*
X385149Y110421D02*
Y112021D01*
X386749D01*
Y110421D01*
X385149D01*
X385549Y110820D02*
Y111620D01*
X386349D01*
Y110820D01*
X385549D01*
X385149Y124200D02*
Y125800D01*
X386749D01*
Y124200D01*
X385149D01*
X385549Y124600D02*
Y125400D01*
X386349D01*
Y124600D01*
X385549D01*
X386995Y117310D02*
Y118910D01*
X388595D01*
Y117310D01*
X386995D01*
X387395Y117710D02*
Y118510D01*
X388195D01*
Y117710D01*
X387395D01*
X380105Y129244D02*
Y130844D01*
X381705D01*
Y129244D01*
X380105D01*
X380505Y129644D02*
Y130444D01*
X381306D01*
Y129644D01*
X380505D01*
X193959Y-151391D02*
Y-149791D01*
X195560D01*
Y-151391D01*
X193959D01*
X194360Y-150991D02*
Y-150191D01*
X195159D01*
Y-150991D01*
X194360D01*
X205893Y-144501D02*
Y-142901D01*
X207493D01*
Y-144501D01*
X205893D01*
X206293Y-144101D02*
Y-143301D01*
X207093D01*
Y-144101D01*
X206293D01*
X199003Y-146347D02*
Y-144747D01*
X200603D01*
Y-146347D01*
X199003D01*
X199403Y-145947D02*
Y-145147D01*
X200203D01*
Y-145947D01*
X199403D01*
X193959Y-165170D02*
Y-163570D01*
X195560D01*
Y-165170D01*
X193959D01*
X194360Y-164770D02*
Y-163970D01*
X195159D01*
Y-164770D01*
X194360D01*
X192113Y-158280D02*
Y-156680D01*
X193713D01*
Y-158280D01*
X192113D01*
X192513Y-157880D02*
Y-157080D01*
X193313D01*
Y-157880D01*
X192513D01*
X199003Y-170214D02*
Y-168614D01*
X200603D01*
Y-170214D01*
X199003D01*
X199403Y-169814D02*
Y-169014D01*
X200203D01*
Y-169814D01*
X199403D01*
X212783Y-170214D02*
Y-168614D01*
X214383D01*
Y-170214D01*
X212783D01*
X213183Y-169814D02*
Y-169014D01*
X213983D01*
Y-169814D01*
X213183D01*
X205893Y-172060D02*
Y-170460D01*
X207493D01*
Y-172060D01*
X205893D01*
X206293Y-171660D02*
Y-170860D01*
X207093D01*
Y-171660D01*
X206293D01*
X217826Y-165170D02*
Y-163570D01*
X219426D01*
Y-165170D01*
X217826D01*
X218226Y-164770D02*
Y-163970D01*
X219026D01*
Y-164770D01*
X218226D01*
X217826Y-151391D02*
Y-149791D01*
X219426D01*
Y-151391D01*
X217826D01*
X218226Y-150991D02*
Y-150191D01*
X219026D01*
Y-150991D01*
X218226D01*
X219672Y-158280D02*
Y-156680D01*
X221272D01*
Y-158280D01*
X219672D01*
X220072Y-157880D02*
Y-157080D01*
X220872D01*
Y-157880D01*
X220072D01*
X212783Y-146347D02*
Y-144747D01*
X214383D01*
Y-146347D01*
X212783D01*
X213183Y-145947D02*
Y-145147D01*
X213983D01*
Y-145947D01*
X213183D01*
X164432Y163570D02*
Y165170D01*
X166032D01*
Y163570D01*
X164432D01*
X164832Y163970D02*
Y164770D01*
X165632D01*
Y163970D01*
X164832D01*
X176365Y170460D02*
Y172060D01*
X177965D01*
Y170460D01*
X176365D01*
X176765Y170860D02*
Y171660D01*
X177565D01*
Y170860D01*
X176765D01*
X169476Y168614D02*
Y170214D01*
X171076D01*
Y168614D01*
X169476D01*
X169876Y169014D02*
Y169814D01*
X170676D01*
Y169014D01*
X169876D01*
X164432Y149791D02*
Y151391D01*
X166032D01*
Y149791D01*
X164432D01*
X164832Y150191D02*
Y150991D01*
X165632D01*
Y150191D01*
X164832D01*
X162586Y156680D02*
Y158280D01*
X164186D01*
Y156680D01*
X162586D01*
X162986Y157080D02*
Y157880D01*
X163786D01*
Y157080D01*
X162986D01*
X169476Y144747D02*
Y146347D01*
X171076D01*
Y144747D01*
X169476D01*
X169876Y145147D02*
Y145947D01*
X170676D01*
Y145147D01*
X169876D01*
X183255Y144747D02*
Y146347D01*
X184855D01*
Y144747D01*
X183255D01*
X183655Y145147D02*
Y145947D01*
X184455D01*
Y145147D01*
X183655D01*
X176365Y142901D02*
Y144501D01*
X177965D01*
Y142901D01*
X176365D01*
X176765Y143301D02*
Y144101D01*
X177565D01*
Y143301D01*
X176765D01*
X188299Y149791D02*
Y151391D01*
X189899D01*
Y149791D01*
X188299D01*
X188699Y150191D02*
Y150991D01*
X189499D01*
Y150191D01*
X188699D01*
X188299Y163570D02*
Y165170D01*
X189899D01*
Y163570D01*
X188299D01*
X188699Y163970D02*
Y164770D01*
X189499D01*
Y163970D01*
X188699D01*
X190145Y156680D02*
Y158280D01*
X191745D01*
Y156680D01*
X190145D01*
X190545Y157080D02*
Y157880D01*
X191345D01*
Y157080D01*
X190545D01*
X183255Y168614D02*
Y170214D01*
X184855D01*
Y168614D01*
X183255D01*
X183655Y169014D02*
Y169814D01*
X184455D01*
Y169014D01*
X183655D01*
X143885Y168614D02*
Y170214D01*
X145485D01*
Y168614D01*
X143885D01*
X144285Y169014D02*
Y169814D01*
X145085D01*
Y169014D01*
X144285D01*
X150775Y156680D02*
Y158280D01*
X152375D01*
Y156680D01*
X150775D01*
X151175Y157080D02*
Y157880D01*
X151975D01*
Y157080D01*
X151175D01*
X148929Y163570D02*
Y165170D01*
X150529D01*
Y163570D01*
X148929D01*
X149329Y163970D02*
Y164770D01*
X150129D01*
Y163970D01*
X149329D01*
X130105Y168614D02*
Y170214D01*
X131705D01*
Y168614D01*
X130105D01*
X130506Y169014D02*
Y169814D01*
X131306D01*
Y169014D01*
X130506D01*
X136995Y170460D02*
Y172060D01*
X138595D01*
Y170460D01*
X136995D01*
X137395Y170860D02*
Y171660D01*
X138195D01*
Y170860D01*
X137395D01*
X125062Y163570D02*
Y165170D01*
X126662D01*
Y163570D01*
X125062D01*
X125462Y163970D02*
Y164770D01*
X126262D01*
Y163970D01*
X125462D01*
X125062Y149791D02*
Y151391D01*
X126662D01*
Y149791D01*
X125062D01*
X125462Y150191D02*
Y150991D01*
X126262D01*
Y150191D01*
X125462D01*
X123216Y156680D02*
Y158280D01*
X124816D01*
Y156680D01*
X123216D01*
X123616Y157080D02*
Y157880D01*
X124416D01*
Y157080D01*
X123616D01*
X130105Y144747D02*
Y146347D01*
X131705D01*
Y144747D01*
X130105D01*
X130506Y145147D02*
Y145947D01*
X131306D01*
Y145147D01*
X130506D01*
X143885Y144747D02*
Y146347D01*
X145485D01*
Y144747D01*
X143885D01*
X144285Y145147D02*
Y145947D01*
X145085D01*
Y145147D01*
X144285D01*
X136995Y142901D02*
Y144501D01*
X138595D01*
Y142901D01*
X136995D01*
X137395Y143301D02*
Y144101D01*
X138195D01*
Y143301D01*
X137395D01*
X148929Y149791D02*
Y151391D01*
X150529D01*
Y149791D01*
X148929D01*
X149329Y150191D02*
Y150991D01*
X150129D01*
Y150191D01*
X149329D01*
X143885Y-146347D02*
Y-144747D01*
X145485D01*
Y-146347D01*
X143885D01*
X144285Y-145947D02*
Y-145147D01*
X145085D01*
Y-145947D01*
X144285D01*
X148929Y-151391D02*
Y-149791D01*
X150529D01*
Y-151391D01*
X148929D01*
X149329Y-150991D02*
Y-150191D01*
X150129D01*
Y-150991D01*
X149329D01*
X130105Y-146347D02*
Y-144747D01*
X131705D01*
Y-146347D01*
X130105D01*
X130506Y-145947D02*
Y-145147D01*
X131306D01*
Y-145947D01*
X130506D01*
X136995Y-144501D02*
Y-142901D01*
X138595D01*
Y-144501D01*
X136995D01*
X137395Y-144101D02*
Y-143301D01*
X138195D01*
Y-144101D01*
X137395D01*
X125062Y-151391D02*
Y-149791D01*
X126662D01*
Y-151391D01*
X125062D01*
X125462Y-150991D02*
Y-150191D01*
X126262D01*
Y-150991D01*
X125462D01*
X125062Y-165170D02*
Y-163570D01*
X126662D01*
Y-165170D01*
X125062D01*
X125462Y-164770D02*
Y-163970D01*
X126262D01*
Y-164770D01*
X125462D01*
X123216Y-158280D02*
Y-156680D01*
X124816D01*
Y-158280D01*
X123216D01*
X123616Y-157880D02*
Y-157080D01*
X124416D01*
Y-157880D01*
X123616D01*
X130105Y-170214D02*
Y-168614D01*
X131705D01*
Y-170214D01*
X130105D01*
X130506Y-169814D02*
Y-169014D01*
X131306D01*
Y-169814D01*
X130506D01*
X143885Y-170214D02*
Y-168614D01*
X145485D01*
Y-170214D01*
X143885D01*
X144285Y-169814D02*
Y-169014D01*
X145085D01*
Y-169814D01*
X144285D01*
X136995Y-172060D02*
Y-170460D01*
X138595D01*
Y-172060D01*
X136995D01*
X137395Y-171660D02*
Y-170860D01*
X138195D01*
Y-171660D01*
X137395D01*
X148929Y-165170D02*
Y-163570D01*
X150529D01*
Y-165170D01*
X148929D01*
X149329Y-164770D02*
Y-163970D01*
X150129D01*
Y-164770D01*
X149329D01*
X151759Y-158280D02*
Y-156680D01*
X153359D01*
Y-158280D01*
X151759D01*
X152159Y-157880D02*
Y-157080D01*
X152959D01*
Y-157880D01*
X152159D01*
X136995Y-21470D02*
Y-19870D01*
X138595D01*
Y-21470D01*
X136995D01*
X137395Y-21070D02*
Y-20270D01*
X138195D01*
Y-21070D01*
X137395D01*
X140440Y-14580D02*
Y-12980D01*
X142040D01*
Y-14580D01*
X140440D01*
X140840Y-14180D02*
Y-13380D01*
X141640D01*
Y-14180D01*
X140840D01*
X136995Y-7690D02*
Y-6090D01*
X138595D01*
Y-7690D01*
X136995D01*
X137395Y-7290D02*
Y-6490D01*
X138195D01*
Y-7290D01*
X137395D01*
X140440Y-800D02*
Y800D01*
X142040D01*
Y-800D01*
X140440D01*
X140840Y-400D02*
Y400D01*
X141640D01*
Y-400D01*
X140840D01*
X136995Y6089D02*
Y7689D01*
X138595D01*
Y6089D01*
X136995D01*
X137395Y6489D02*
Y7289D01*
X138195D01*
Y6489D01*
X137395D01*
X140440Y12979D02*
Y14579D01*
X142040D01*
Y12979D01*
X140440D01*
X140840Y13379D02*
Y14179D01*
X141640D01*
Y13379D01*
X140840D01*
X136995Y19869D02*
Y21469D01*
X138595D01*
Y19869D01*
X136995D01*
X137395Y20269D02*
Y21069D01*
X138195D01*
Y20269D01*
X137395D01*
X140440Y26759D02*
Y28359D01*
X142040D01*
Y26759D01*
X140440D01*
X140840Y27159D02*
Y27959D01*
X141640D01*
Y27159D01*
X140840D01*
X136995Y33648D02*
Y35249D01*
X138595D01*
Y33648D01*
X136995D01*
X137395Y34049D02*
Y34848D01*
X138195D01*
Y34049D01*
X137395D01*
X140440Y40538D02*
Y42138D01*
X142040D01*
Y40538D01*
X140440D01*
X140840Y40938D02*
Y41738D01*
X141640D01*
Y40938D01*
X140840D01*
X136995Y47428D02*
Y49028D01*
X138595D01*
Y47428D01*
X136995D01*
X137395Y47828D02*
Y48628D01*
X138195D01*
Y47828D01*
X137395D01*
X140440Y54318D02*
Y55918D01*
X142040D01*
Y54318D01*
X140440D01*
X140840Y54718D02*
Y55518D01*
X141640D01*
Y54718D01*
X140840D01*
X136995Y61207D02*
Y62808D01*
X138595D01*
Y61207D01*
X136995D01*
X137395Y61607D02*
Y62407D01*
X138195D01*
Y61607D01*
X137395D01*
X140440Y68097D02*
Y69697D01*
X142040D01*
Y68097D01*
X140440D01*
X140840Y68497D02*
Y69297D01*
X141640D01*
Y68497D01*
X140840D01*
X136995Y74987D02*
Y76587D01*
X138595D01*
Y74987D01*
X136995D01*
X137395Y75387D02*
Y76187D01*
X138195D01*
Y75387D01*
X137395D01*
X140440Y81877D02*
Y83477D01*
X142040D01*
Y81877D01*
X140440D01*
X140840Y82277D02*
Y83077D01*
X141640D01*
Y82277D01*
X140840D01*
X136995Y88766D02*
Y90367D01*
X138595D01*
Y88766D01*
X136995D01*
X137395Y89166D02*
Y89966D01*
X138195D01*
Y89166D01*
X137395D01*
X140440Y95656D02*
Y97256D01*
X142040D01*
Y95656D01*
X140440D01*
X140840Y96056D02*
Y96856D01*
X141640D01*
Y96056D01*
X140840D01*
X136995Y102546D02*
Y104146D01*
X138595D01*
Y102546D01*
X136995D01*
X137395Y102946D02*
Y103746D01*
X138195D01*
Y102946D01*
X137395D01*
X140440Y109436D02*
Y111036D01*
X142040D01*
Y109436D01*
X140440D01*
X140840Y109836D02*
Y110636D01*
X141640D01*
Y109836D01*
X140840D01*
X136995Y116326D02*
Y117926D01*
X138595D01*
Y116326D01*
X136995D01*
X137395Y116726D02*
Y117526D01*
X138195D01*
Y116726D01*
X137395D01*
X140440Y123215D02*
Y124815D01*
X142040D01*
Y123215D01*
X140440D01*
X140840Y123615D02*
Y124415D01*
X141640D01*
Y123615D01*
X140840D01*
X136995Y130105D02*
Y131705D01*
X138595D01*
Y130105D01*
X136995D01*
X137395Y130505D02*
Y131305D01*
X138195D01*
Y130505D01*
X137395D01*
X140440Y136995D02*
Y138595D01*
X142040D01*
Y136995D01*
X140440D01*
X140840Y137395D02*
Y138195D01*
X141640D01*
Y137395D01*
X140840D01*
X143885Y-21470D02*
Y-19870D01*
X145485D01*
Y-21470D01*
X143885D01*
X144285Y-21070D02*
Y-20270D01*
X145085D01*
Y-21070D01*
X144285D01*
X147330Y-14580D02*
Y-12980D01*
X148930D01*
Y-14580D01*
X147330D01*
X147730Y-14180D02*
Y-13380D01*
X148530D01*
Y-14180D01*
X147730D01*
X143885Y-7690D02*
Y-6090D01*
X145485D01*
Y-7690D01*
X143885D01*
X144285Y-7290D02*
Y-6490D01*
X145085D01*
Y-7290D01*
X144285D01*
X147330Y-800D02*
Y800D01*
X148930D01*
Y-800D01*
X147330D01*
X147730Y-400D02*
Y400D01*
X148530D01*
Y-400D01*
X147730D01*
X143885Y6089D02*
Y7689D01*
X145485D01*
Y6089D01*
X143885D01*
X144285Y6489D02*
Y7289D01*
X145085D01*
Y6489D01*
X144285D01*
X147330Y12979D02*
Y14579D01*
X148930D01*
Y12979D01*
X147330D01*
X147730Y13379D02*
Y14179D01*
X148530D01*
Y13379D01*
X147730D01*
X143885Y19869D02*
Y21469D01*
X145485D01*
Y19869D01*
X143885D01*
X144285Y20269D02*
Y21069D01*
X145085D01*
Y20269D01*
X144285D01*
X147330Y26759D02*
Y28359D01*
X148930D01*
Y26759D01*
X147330D01*
X147730Y27159D02*
Y27959D01*
X148530D01*
Y27159D01*
X147730D01*
X143885Y33648D02*
Y35249D01*
X145485D01*
Y33648D01*
X143885D01*
X144285Y34049D02*
Y34848D01*
X145085D01*
Y34049D01*
X144285D01*
X147330Y40538D02*
Y42138D01*
X148930D01*
Y40538D01*
X147330D01*
X147730Y40938D02*
Y41738D01*
X148530D01*
Y40938D01*
X147730D01*
X143885Y47428D02*
Y49028D01*
X145485D01*
Y47428D01*
X143885D01*
X144285Y47828D02*
Y48628D01*
X145085D01*
Y47828D01*
X144285D01*
X147330Y54318D02*
Y55918D01*
X148930D01*
Y54318D01*
X147330D01*
X147730Y54718D02*
Y55518D01*
X148530D01*
Y54718D01*
X147730D01*
X143885Y61207D02*
Y62808D01*
X145485D01*
Y61207D01*
X143885D01*
X144285Y61607D02*
Y62407D01*
X145085D01*
Y61607D01*
X144285D01*
X147330Y68097D02*
Y69697D01*
X148930D01*
Y68097D01*
X147330D01*
X147730Y68497D02*
Y69297D01*
X148530D01*
Y68497D01*
X147730D01*
X143885Y74987D02*
Y76587D01*
X145485D01*
Y74987D01*
X143885D01*
X144285Y75387D02*
Y76187D01*
X145085D01*
Y75387D01*
X144285D01*
X147330Y81877D02*
Y83477D01*
X148930D01*
Y81877D01*
X147330D01*
X147730Y82277D02*
Y83077D01*
X148530D01*
Y82277D01*
X147730D01*
X143885Y88766D02*
Y90367D01*
X145485D01*
Y88766D01*
X143885D01*
X144285Y89166D02*
Y89966D01*
X145085D01*
Y89166D01*
X144285D01*
X147330Y95656D02*
Y97256D01*
X148930D01*
Y95656D01*
X147330D01*
X147730Y96056D02*
Y96856D01*
X148530D01*
Y96056D01*
X147730D01*
X143885Y102546D02*
Y104146D01*
X145485D01*
Y102546D01*
X143885D01*
X144285Y102946D02*
Y103746D01*
X145085D01*
Y102946D01*
X144285D01*
X147330Y109436D02*
Y111036D01*
X148930D01*
Y109436D01*
X147330D01*
X147730Y109836D02*
Y110636D01*
X148530D01*
Y109836D01*
X147730D01*
X143885Y116326D02*
Y117926D01*
X145485D01*
Y116326D01*
X143885D01*
X144285Y116726D02*
Y117526D01*
X145085D01*
Y116726D01*
X144285D01*
X147330Y123215D02*
Y124815D01*
X148930D01*
Y123215D01*
X147330D01*
X147730Y123615D02*
Y124415D01*
X148530D01*
Y123615D01*
X147730D01*
X143885Y130105D02*
Y131705D01*
X145485D01*
Y130105D01*
X143885D01*
X144285Y130505D02*
Y131305D01*
X145085D01*
Y130505D01*
X144285D01*
X147330Y136995D02*
Y138595D01*
X148930D01*
Y136995D01*
X147330D01*
X147730Y137395D02*
Y138195D01*
X148530D01*
Y137395D01*
X147730D01*
X150775Y-21470D02*
Y-19870D01*
X152374D01*
Y-21470D01*
X150775D01*
X151174Y-21070D02*
Y-20270D01*
X151974D01*
Y-21070D01*
X151174D01*
X154219Y-800D02*
Y800D01*
X155819D01*
Y-800D01*
X154219D01*
X154619Y-400D02*
Y400D01*
X155419D01*
Y-400D01*
X154619D01*
X150775Y6089D02*
Y7689D01*
X152374D01*
Y6089D01*
X150775D01*
X151174Y6489D02*
Y7289D01*
X151974D01*
Y6489D01*
X151174D01*
X154219Y12979D02*
Y14579D01*
X155819D01*
Y12979D01*
X154219D01*
X154619Y13379D02*
Y14179D01*
X155419D01*
Y13379D01*
X154619D01*
X150775Y19869D02*
Y21469D01*
X152374D01*
Y19869D01*
X150775D01*
X151174Y20269D02*
Y21069D01*
X151974D01*
Y20269D01*
X151174D01*
X154219Y26759D02*
Y28359D01*
X155819D01*
Y26759D01*
X154219D01*
X154619Y27159D02*
Y27959D01*
X155419D01*
Y27159D01*
X154619D01*
X150775Y33648D02*
Y35249D01*
X152374D01*
Y33648D01*
X150775D01*
X151174Y34049D02*
Y34848D01*
X151974D01*
Y34049D01*
X151174D01*
X154219Y40538D02*
Y42138D01*
X155819D01*
Y40538D01*
X154219D01*
X154619Y40938D02*
Y41738D01*
X155419D01*
Y40938D01*
X154619D01*
X150775Y47428D02*
Y49028D01*
X152374D01*
Y47428D01*
X150775D01*
X151174Y47828D02*
Y48628D01*
X151974D01*
Y47828D01*
X151174D01*
X154219Y54318D02*
Y55918D01*
X155819D01*
Y54318D01*
X154219D01*
X154619Y54718D02*
Y55518D01*
X155419D01*
Y54718D01*
X154619D01*
X150775Y61207D02*
Y62808D01*
X152374D01*
Y61207D01*
X150775D01*
X151174Y61607D02*
Y62407D01*
X151974D01*
Y61607D01*
X151174D01*
X154219Y68097D02*
Y69697D01*
X155819D01*
Y68097D01*
X154219D01*
X154619Y68497D02*
Y69297D01*
X155419D01*
Y68497D01*
X154619D01*
X150775Y74987D02*
Y76587D01*
X152374D01*
Y74987D01*
X150775D01*
X151174Y75387D02*
Y76187D01*
X151974D01*
Y75387D01*
X151174D01*
X154219Y81877D02*
Y83477D01*
X155819D01*
Y81877D01*
X154219D01*
X154619Y82277D02*
Y83077D01*
X155419D01*
Y82277D01*
X154619D01*
X150775Y88766D02*
Y90367D01*
X152374D01*
Y88766D01*
X150775D01*
X151174Y89166D02*
Y89966D01*
X151974D01*
Y89166D01*
X151174D01*
X154219Y95656D02*
Y97256D01*
X155819D01*
Y95656D01*
X154219D01*
X154619Y96056D02*
Y96856D01*
X155419D01*
Y96056D01*
X154619D01*
X150775Y102546D02*
Y104146D01*
X152374D01*
Y102546D01*
X150775D01*
X151174Y102946D02*
Y103746D01*
X151974D01*
Y102946D01*
X151174D01*
X154219Y109436D02*
Y111036D01*
X155819D01*
Y109436D01*
X154219D01*
X154619Y109836D02*
Y110636D01*
X155419D01*
Y109836D01*
X154619D01*
X150775Y116326D02*
Y117926D01*
X152374D01*
Y116326D01*
X150775D01*
X151174Y116726D02*
Y117526D01*
X151974D01*
Y116726D01*
X151174D01*
X154219Y123215D02*
Y124815D01*
X155819D01*
Y123215D01*
X154219D01*
X154619Y123615D02*
Y124415D01*
X155419D01*
Y123615D01*
X154619D01*
X150775Y130105D02*
Y131705D01*
X152374D01*
Y130105D01*
X150775D01*
X151174Y130505D02*
Y131305D01*
X151974D01*
Y130505D01*
X151174D01*
X154219Y136995D02*
Y138595D01*
X155819D01*
Y136995D01*
X154219D01*
X154619Y137395D02*
Y138195D01*
X155419D01*
Y137395D01*
X154619D01*
X157664Y6089D02*
Y7689D01*
X159264D01*
Y6089D01*
X157664D01*
X158064Y6489D02*
Y7289D01*
X158864D01*
Y6489D01*
X158064D01*
X161109Y123215D02*
Y124815D01*
X162709D01*
Y123215D01*
X161109D01*
X161509Y123615D02*
Y124415D01*
X162309D01*
Y123615D01*
X161509D01*
X157664Y130105D02*
Y131705D01*
X159264D01*
Y130105D01*
X157664D01*
X158064Y130505D02*
Y131305D01*
X158864D01*
Y130505D01*
X158064D01*
X161109Y136995D02*
Y138595D01*
X162709D01*
Y136995D01*
X161109D01*
X161509Y137395D02*
Y138195D01*
X162309D01*
Y137395D01*
X161509D01*
X157664Y143885D02*
Y145485D01*
X159264D01*
Y143885D01*
X157664D01*
X158064Y144285D02*
Y145085D01*
X158864D01*
Y144285D01*
X158064D01*
X164554Y-21470D02*
Y-19870D01*
X166154D01*
Y-21470D01*
X164554D01*
X164954Y-21070D02*
Y-20270D01*
X165754D01*
Y-21070D01*
X164954D01*
X167999Y-14580D02*
Y-12980D01*
X169599D01*
Y-14580D01*
X167999D01*
X168399Y-14180D02*
Y-13380D01*
X169199D01*
Y-14180D01*
X168399D01*
X167999Y-800D02*
Y800D01*
X169599D01*
Y-800D01*
X167999D01*
X168399Y-400D02*
Y400D01*
X169199D01*
Y-400D01*
X168399D01*
X167999Y123215D02*
Y124815D01*
X169599D01*
Y123215D01*
X167999D01*
X168399Y123615D02*
Y124415D01*
X169199D01*
Y123615D01*
X168399D01*
X164554Y130105D02*
Y131705D01*
X166154D01*
Y130105D01*
X164554D01*
X164954Y130505D02*
Y131305D01*
X165754D01*
Y130505D01*
X164954D01*
X171444Y-21470D02*
Y-19870D01*
X173044D01*
Y-21470D01*
X171444D01*
X171844Y-21070D02*
Y-20270D01*
X172644D01*
Y-21070D01*
X171844D01*
X174889Y-14580D02*
Y-12980D01*
X176489D01*
Y-14580D01*
X174889D01*
X175289Y-14180D02*
Y-13380D01*
X176089D01*
Y-14180D01*
X175289D01*
X171444Y-7690D02*
Y-6090D01*
X173044D01*
Y-7690D01*
X171444D01*
X171844Y-7290D02*
Y-6490D01*
X172644D01*
Y-7290D01*
X171844D01*
X174889Y123215D02*
Y124815D01*
X176489D01*
Y123215D01*
X174889D01*
X175289Y123615D02*
Y124415D01*
X176089D01*
Y123615D01*
X175289D01*
X171444Y130105D02*
Y131705D01*
X173044D01*
Y130105D01*
X171444D01*
X171844Y130505D02*
Y131305D01*
X172644D01*
Y130505D01*
X171844D01*
X181778Y123215D02*
Y124815D01*
X183378D01*
Y123215D01*
X181778D01*
X182178Y123615D02*
Y124415D01*
X182978D01*
Y123615D01*
X182178D01*
X178334Y130105D02*
Y131705D01*
X179934D01*
Y130105D01*
X178334D01*
X178734Y130505D02*
Y131305D01*
X179534D01*
Y130505D01*
X178734D01*
X188668Y123215D02*
Y124815D01*
X190268D01*
Y123215D01*
X188668D01*
X189068Y123615D02*
Y124415D01*
X189868D01*
Y123615D01*
X189068D01*
X185223Y130105D02*
Y131705D01*
X186823D01*
Y130105D01*
X185223D01*
X185623Y130505D02*
Y131305D01*
X186423D01*
Y130505D01*
X185623D01*
X195558Y123215D02*
Y124815D01*
X197158D01*
Y123215D01*
X195558D01*
X195958Y123615D02*
Y124415D01*
X196758D01*
Y123615D01*
X195958D01*
X192113Y130105D02*
Y131705D01*
X193713D01*
Y130105D01*
X192113D01*
X192513Y130505D02*
Y131305D01*
X193313D01*
Y130505D01*
X192513D01*
D59*
X246863Y23819D02*
G03*
X246863Y23819I-800J0D01*
G01*
Y45276D02*
G03*
X246863Y45276I-800J0D01*
G01*
Y66732D02*
G03*
X246863Y66732I-800J0D01*
G01*
Y-66732D02*
G03*
X246863Y-66732I-800J0D01*
G01*
Y-45276D02*
G03*
X246863Y-45276I-800J0D01*
G01*
Y-23819D02*
G03*
X246863Y-23819I-800J0D01*
G01*
Y-90748D02*
G03*
X246863Y-90748I-800J0D01*
G01*
Y-112205D02*
G03*
X246863Y-112205I-800J0D01*
G01*
Y-133661D02*
G03*
X246863Y-133661I-800J0D01*
G01*
Y90748D02*
G03*
X246863Y90748I-800J0D01*
G01*
Y112205D02*
G03*
X246863Y112205I-800J0D01*
G01*
Y133661D02*
G03*
X246863Y133661I-800J0D01*
G01*
Y66732D02*
G03*
X246863Y66732I-800J0D01*
G01*
Y45276D02*
G03*
X246863Y45276I-800J0D01*
G01*
Y23819D02*
G03*
X246863Y23819I-800J0D01*
G01*
Y-133661D02*
G03*
X246863Y-133661I-800J0D01*
G01*
Y-112205D02*
G03*
X246863Y-112205I-800J0D01*
G01*
Y-90748D02*
G03*
X246863Y-90748I-800J0D01*
G01*
Y-66732D02*
G03*
X246863Y-66732I-800J0D01*
G01*
Y-45276D02*
G03*
X246863Y-45276I-800J0D01*
G01*
Y-23819D02*
G03*
X246863Y-23819I-800J0D01*
G01*
Y90748D02*
G03*
X246863Y90748I-800J0D01*
G01*
Y112205D02*
G03*
X246863Y112205I-800J0D01*
G01*
Y133661D02*
G03*
X246863Y133661I-800J0D01*
G01*
M02*
