G04 Layer_Color=16711935*
%FSLAX25Y25*%
%MOIN*%
G70*
G01*
G75*
%ADD17C,0.00787*%
%ADD56C,0.00394*%
D17*
X0Y177165D02*
X393701D01*
Y-177165D02*
Y177165D01*
X0Y-177165D02*
Y177165D01*
Y-177165D02*
X393701D01*
D56*
X205512Y56299D02*
X231496D01*
X205512Y69685D02*
X231496D01*
Y56299D02*
Y69685D01*
X205512Y56299D02*
Y69685D01*
X235827Y-13976D02*
X256693D01*
Y-76575D02*
Y-13976D01*
X235827Y-76575D02*
Y-13976D01*
Y-76575D02*
X256693D01*
X205512Y-101181D02*
X231496D01*
X205512Y-87795D02*
X231496D01*
Y-101181D02*
Y-87795D01*
X205512Y-101181D02*
Y-87795D01*
Y-85433D02*
X231496D01*
X205512Y-72047D02*
X231496D01*
Y-85433D02*
Y-72047D01*
X205512Y-85433D02*
Y-72047D01*
Y-34252D02*
X231496D01*
X205512Y-20866D02*
X231496D01*
Y-34252D02*
Y-20866D01*
X205512Y-34252D02*
Y-20866D01*
Y-18504D02*
X231496D01*
X205512Y-5118D02*
X231496D01*
Y-18504D02*
Y-5118D01*
X205512Y-18504D02*
Y-5118D01*
X205512Y72047D02*
X231496D01*
X205512Y85433D02*
X231496D01*
Y72047D02*
Y85433D01*
X205512Y72047D02*
Y85433D01*
X205413Y123228D02*
X231398D01*
X205413Y136614D02*
X231398D01*
Y123228D02*
Y136614D01*
X205413Y123228D02*
Y136614D01*
X205512Y138976D02*
X231496D01*
X205512Y152362D02*
X231496D01*
Y138976D02*
Y152362D01*
X205512Y138976D02*
Y152362D01*
X235827Y-143504D02*
X256693D01*
X235827D02*
Y-80905D01*
X256693Y-143504D02*
Y-80905D01*
X235827D02*
X256693D01*
X235827Y143504D02*
X256693D01*
Y80905D02*
Y143504D01*
X235827Y80905D02*
Y143504D01*
Y80905D02*
X256693D01*
X235827Y13976D02*
X256693D01*
X235827D02*
Y76575D01*
X256693Y13976D02*
Y76575D01*
X235827D02*
X256693D01*
M02*
